<svg xmlns="http://www.w3.org/2000/svg" viewBox="0 0 116.37 39.83"><defs><style>.cls-1{fill-rule:evenodd;}</style></defs><g id="Layer_2" data-name="Layer 2"><g id="Layer_1-2" data-name="Layer 1"><path class="cls-1" d="M111.11,9.71a4.86,4.86,0,0,1,0-9.71c2.67,0,5.26,2.21,5.26,4.88S113.78,9.71,111.11,9.71Zm0-7.23a2.4,2.4,0,0,0-2.34,2.4,2.35,2.35,0,0,0,4.69,0A2.4,2.4,0,0,0,111.11,2.48Zm-3.49,12.79C104.4,24.48,98.78,33.4,85.9,38.32c-3.52,1.48-5.61-2.67-2.11-4.46A26.79,26.79,0,0,0,102.05,15.5c.37-1.24.23-2.39-1.47-2.43-4.51.21-11.78.13-18.4.36a2.28,2.28,0,1,1-.1-4.55c6.08-.28,14.68-.32,20.52-.23C106.33,8.69,109.25,11.5,107.62,15.27Zm-56,24.25c-2.13.69-3.28.14-3.74-.87s-.14-2.21,1.5-2.77A25,25,0,0,0,63.48,18.5c.74-3,5.2-1.62,4.32,1.19C65.18,28.39,60.08,35.42,51.58,39.52Zm3.34-15.87a12.37,12.37,0,0,0-2.16-3.87c-1.66-1.36,1.43-4.37,3.31-2.11,1.06,1.88,2.07,2.94,2.76,4.55C59.94,25.35,55.89,26.59,54.92,23.65Zm-6.16,2.53a12.09,12.09,0,0,0-2.62-3.54c-1.89-1.62.78-4.51,2.94-2.58a17.35,17.35,0,0,1,3.4,4.09C54.65,26.64,50.14,29.19,48.76,26.18ZM21.2,27.47a14.16,14.16,0,0,1,2.71,3.31,4.14,4.14,0,0,1-.08,3.68c-1.59.69-3.28.64-4.15-.78-1-2.63-7.13-7.36-10.86-9.11-2.53-1.2-.32-5.16,2.9-3.5,1.75,1.38,3.77,2.07,5.7,3.41,3.5-1.62,7.37-5.25,9.48-7.37.6-.59,1-1.56-.41-1.56A207.06,207.06,0,0,0,2.38,16.64c-3.24-.54-3.09-5.23,0-5.32,7.23-.14,18.54.18,26.18-.23,4.14,0,7.13,3.54,4.33,6.72C30.08,21.79,25.29,24.8,21.2,27.47Z"/></g></g></svg>