<svg xmlns="http://www.w3.org/2000/svg" viewBox="0 0 232.12 34.27"><defs><style>.cls-1{fill:#fff;fill-rule:evenodd;}</style></defs><g id="Layer_2" data-name="Layer 2"><g id="Layer_1-2" data-name="Layer 1"><path class="cls-1" d="M229.36,14.76a23.81,23.81,0,0,0-5.64.25c-.56.4-1.08,0-1.64,0,0,.68.54,1.4-.24,2.08-.4,2.72-1.2,5.2-3.08,6.48a3.48,3.48,0,0,1-4.92-.6c-.56-.68-1.12-1.36-1.56-2-1-1.92,1.12-3.84,2.68-1.8,1.16,1.52,1.84,1.32,2.4.48a9.9,9.9,0,0,0,1.16-4.24c-3.32.52-6.44,1.24-9.08,1.92,0,1.88.08,3.8.2,5.2.32,4.83,1.6,5.68,5,5.76a22.26,22.26,0,0,0,6.52-1.08c3-.72,4,3.11,1.12,3.92-2.76,1.62-6,.92-8.28.82-5.24-.71-7.16-3.19-7.72-8.62a17.88,17.88,0,0,1,0-5l-1.05.2c-3.52,1.12-5,1.6-6.24,2-3.16.92-4.24-3.32-.92-4.12,2-.44,4.76-1.2,6.52-1.43l1.12-.41v-.52c-.08-2.32-.2-4-.28-5.68-.12-2.72,4.16-3,4.2-.16,0,1.28,0,3.12-.12,5l0,.52c2.64-.56,6-1.24,9.24-1.8,0-1.2,0-2.32,0-3.32a14.74,14.74,0,0,0,0-1.6c0-.32,0-.68,0-1.56-.08-2.48,4-2.8,4,0,0,1.9-.08,2.52-.16,3.64,0,.86-.08,1.48-.12,2.28.36,0,.68-.12,1-.16A25.77,25.77,0,0,1,230,11C233.24,11,232.6,15,229.36,14.76ZM178.55,31.32c-2,.92-4.48-2.92-1.28-4.08a20.39,20.39,0,0,0,4.24-2c4.24-2.84,4.72-6,3-7.8s-6-2.4-11.48,1.32a11.06,11.06,0,0,0-5,2.48,84.17,84.17,0,0,0,.32,9.51,2.15,2.15,0,0,1-1.84,2.56c-1.08.16-2.24,0-2.4-2.19a49.34,49.34,0,0,0,0-5.92l-.24.4a12.81,12.81,0,0,0-1.61,3.75c-1.91,2.37-5.71.12-3.95-2a6.64,6.64,0,0,1,1.2-2.11,60.42,60.42,0,0,0,5.32-9.76l.08-1a.66.66,0,0,0-.52.08,26.07,26.07,0,0,0-2.88,1.72c-2.88,1.8-4.2-2.2-1.92-3.28,1.48-.68,3.64-1.72,5.68-2.56.28-2.92.52-5.44.68-7.16.24-2.8,4.28-2.24,3.92.12-.2,1.44-.48,3.94-.76,5.72,1.56,0,2.64,2,.84,4.52-.2.28-.8,1.4-1.6,2.84v.2c1.2-.36,2.36-1.64,3.44-2.2,7.12-3.8,13.48-2.48,16.36.8s2.24,8.68-3.8,13A24.9,24.9,0,0,1,178.55,31.32ZM148.57,16c-1.06,0-1.54,0-2-.44A73.84,73.84,0,0,1,134.36,4.44c.24-.52-.8-.8-1.16-.8s-.68.28-1.08.8a93,93,0,0,1-11.9,12,5,5,0,0,1-2.14.68,1.84,1.84,0,0,1-1.85-2c0-.64,0-.71.73-1.72,4.32-2,9.52-7.84,12.4-11.64,1-1.28,2.24-1.33,4.24-1.33a4.15,4.15,0,0,1,3.16,1.29,66,66,0,0,0,12.75,10.44,1.58,1.58,0,0,1,.88,1.44C150.39,14.76,149.27,16,148.57,16Zm-43.49,4.24c-.64-3.2-2.28-6.28-4.44-7.76-1.92-1.32.58-4.28,2.64-2.48,2.84,2.12,5.93,6.4,6,9.28C109.6,22.2,105.64,23,105.08,20.24ZM91.8,26.39c-2.56,3.64-6.12,3.29-8.36.89-2.88-3.12-4.2-7.76-3.78-12.8A9.1,9.1,0,0,1,78.72,10c.08-2.52,4-3,4.08,0,.46,1.56-.08,1.64,0,3.48.16,4.2.92,8.16,3.16,10.32,1,1,1.56,2,2.44-.08a5.15,5.15,0,0,0,1.32-2.36c1.08-2.32,4.4-.64,3.64,1.44C93,24.79,92.24,25.16,91.8,26.39ZM64,34.15c-2.8,0-4.24-.36-4.24-2.12a1.61,1.61,0,0,1,1.56-1.76c.12,0,.2.05.32.05a15.82,15.82,0,0,0,2.12.24c1.32,0,2.32-.48,2.36-2.44,0-1.6.08-3.32.08-5,0-2.64,0-5.32,0-7.8V13.64c-.72,0-1.76.08-2.92.08-4.72,0-8,0-8.16-3.52,0-.8,0-1.68,0-2.6,0-1.48,0-3,.08-4.4A3.32,3.32,0,0,1,58.61,0c.76,0,2.44,0,4.08,0,1.25,0,2.28,0,3,0,3,.16,5.09,1.76,5.09,3.56v3c0,6,0,12.2,0,17.79,0,1.37-.76,3.05-.76,4.59C70,31.68,68.57,34.15,64,34.15ZM62.33,3c-3.2,0-3.64,0-3.72,1.28,0,.4,0,.84,0,1.32h7.52C66.09,3,66,3,62.33,3ZM66.17,8.2h-7.6c0,.48,0,.92,0,1.32,0,1.12.16,1.28,4.4,1.28,1.32,0,2.6,0,3.16,0ZM61.09,19.6c0,1,.08,2.16.08,3.8,0,.16,0,.88,0,1.56a3.8,3.8,0,0,1-3.84,3.8,14.82,14.82,0,0,1-3.52.63c-6.64,0-7.8-.6-7.8-6.39,0-1,0-2.28.08-3.36A3.63,3.63,0,0,1,49.73,16c1,0,2.44-.08,3.88-.08s2.92,0,3.76.08A3.79,3.79,0,0,1,61.09,19.6ZM53.53,19c-3.84,0-3.92.12-3.92,3,0,.95,0,1.64,0,2.28.08,1.24,1.08,1.28,3.92,1.28.92,0,1.84,0,3.18,0,.78-.12.78-.57.78-4C57.53,19,57.29,19,53.53,19Zm-9.2-5.28c-1,0-2,0-2.76-.08V17.2c0,4.28,0,10.59-.16,15.36a1.75,1.75,0,0,1-1.92,1.71,1.73,1.73,0,0,1-1.91-1.63v-.08c.41-7.32.2-20,.41-28.64C38,0,40.57,0,44.73,0c1.52,0,3.64,0,3.92,0A3.4,3.4,0,0,1,52.21,3.2c0,1.4.08,2.92.08,4.4C52.29,12.72,52.25,13.72,44.33,13.72Zm4.4-9.52C48.65,3.08,48.45,3,45.25,3s-3.56.12-3.64,1.56c0,.51,0,.68,0,1h7.2C48.77,5.08,48.73,4.6,48.73,4.2Zm-7.16,4v2.56c.56,0,1.76,0,3,0,3.88,0,4.16-.16,4.2-1.28,0-.4,0-.84,0-1.32ZM27.16,13a6.1,6.1,0,0,0-4.94-1.64c-2.78.28-3.42-3.28-.54-3,2.88-.78,6.88.22,8.32,1.74A1.94,1.94,0,0,1,30,13C29.36,13.72,28.16,14.81,27.16,13ZM23,16.36C29.6,18.64,28.52,24,26.48,27c-2.26,3.76-8.2,5-12.84,2.4-2.28-1.32,0-4.6,1.72-3.4,3.12,1.52,5.68,1.56,7.6-1,1.66-1.28,2.08-3.6-1.4-5.4-1.56-.6-3.33-.2-6.48-.08A18.28,18.28,0,0,0,11.24,21a32.68,32.68,0,0,0,0,5.92c.32,5.71-4.8,5.64-8.08,4C-1.64,28.68,0,26,1.8,23.52a25.76,25.76,0,0,1,5.64-4.24c0-1.68-.08-2.88-.08-5a15,15,0,0,1-4.8.16c-2.48-.36-2.48-4.36.84-3.68a9.53,9.53,0,0,0,4-.36c0-1.88-.08-3.16-.16-4.68-.16-3,4.24-2.69,4,0-.08.88-.12,2.34-.2,3.36a12,12,0,0,0,1.6-.92c2.52-1.44,4.6,1.9,1.8,3.4a14.4,14.4,0,0,1-3.76,1.8c0,1.24,0,2.72,0,4.24,1.48-.52,2.28-.92,3.36-1.24A15.35,15.35,0,0,1,23,16.36ZM7.48,23c-1.16,1.35-2.16,1.72-3,2.64s-.84,2,.08,2.4c1.72,1.7,2.88.71,2.92-.84C7.52,26.16,7.52,24.68,7.48,23Zm132.76-8H126.8A1.85,1.85,0,0,1,125,13.08a1.72,1.72,0,0,1,1.84-1.76h13.44a1.72,1.72,0,0,1,1.83,1.76A1.85,1.85,0,0,1,140.24,15Zm-13.8,4.23c1.68,0,3.72-.08,5.88-.08,2.64,0,5.48,0,8,.08A4.14,4.14,0,0,1,144.59,23c0,.69.08,1.69.08,2.73s0,2-.08,3c-.12,3-1.76,4-4.43,4.62a38.47,38.47,0,0,0-6.92-.39,36.1,36.1,0,0,0-6.72.39c-2.92-.62-4.4-2.27-4.52-4.59,0-.71,0-1.55,0-2.39,0-1.12,0-2.28,0-3.2C122.08,21.32,123.24,19.36,126.44,19.24Zm1.2,10.19c1.72.05,3.6.08,5.52.08s3.92,0,6.43-.08c1.17-.08,1.17-1.35,1.17-3.15,0-3-.08-3.72-1.92-3.76-1.48,0-3.2-.08-5-.08-2.16,0-4.36,0-6.24.08s-1.88,1.28-1.88,3.52C125.72,29,126.08,29.4,127.64,29.43Z"/></g></g></svg>