<svg xmlns="http://www.w3.org/2000/svg" width="408.27" height="3.79" viewBox="0 0 408.27 3.79"><g id="f25c2763-f356-4524-a674-c58fc108a578" data-name="Layer 2"><g id="ada8d95e-fc47-437e-a0bb-52b76da862d4" data-name="レイヤー 1"><path d="M406.37,3.79a1.89,1.89,0,0,1-1.89-1.92,1.9,1.9,0,0,1,3.79,0A1.89,1.89,0,0,1,406.37,3.79ZM388.92,1.87a1.9,1.9,0,0,1,3.79,0,1.9,1.9,0,1,1-3.79,0Zm-15.56,0a1.9,1.9,0,0,1,3.8,0,1.9,1.9,0,1,1-3.8,0Zm-15.55,0a1.9,1.9,0,0,1,3.79,0,1.9,1.9,0,1,1-3.79,0Zm-15.56,0a1.9,1.9,0,0,1,3.79,0,1.9,1.9,0,1,1-3.79,0Zm-15.56,0A2.17,2.17,0,0,1,328.59,0a1.87,1.87,0,0,1,1.9,1.87,1.89,1.89,0,0,1-1.9,1.92A2.2,2.2,0,0,1,326.69,1.87Zm-15.55,0a1.9,1.9,0,0,1,3.79,0,1.9,1.9,0,1,1-3.79,0Zm-14.74,0c0-1.05,0-1.87,1.08-1.87a1.66,1.66,0,0,1,1.89,1.87,1.69,1.69,0,0,1-1.89,1.92C296.42,3.79,296.4,3,296.4,1.87ZM280,1.87a1.9,1.9,0,0,1,3.79,0,1.9,1.9,0,1,1-3.79,0Zm-15.55,0a1.9,1.9,0,0,1,3.79,0,1.9,1.9,0,1,1-3.79,0Zm-15.56,0a1.9,1.9,0,0,1,3.79,0,1.9,1.9,0,1,1-3.79,0Zm-15.56,0a1.9,1.9,0,0,1,3.8,0,1.9,1.9,0,1,1-3.8,0Zm-15.55,0A1.87,1.87,0,0,1,219.69,0c1.06,0,2.79.82,2.79,1.87s-1.73,1.92-2.79,1.92A1.89,1.89,0,0,1,217.8,1.87Zm-15.56,0a1.9,1.9,0,0,1,3.79,0,1.9,1.9,0,1,1-3.79,0Zm-15.56,0c0-1.05,1.14-1.87,2.7-1.87a2.1,2.1,0,0,1,1.09,1.87,2.16,2.16,0,0,1-1.09,1.92C187.82,3.79,186.68,3,186.68,1.87Zm-15.55,0a1.9,1.9,0,0,1,3.79,0,1.9,1.9,0,1,1-3.79,0Zm-14.85,0c0-1.05.13-1.87,1.18-1.87a1.71,1.71,0,0,1,1.9,1.87,1.73,1.73,0,0,1-1.9,1.92C156.41,3.79,156.28,3,156.28,1.87ZM140,1.87a1.9,1.9,0,0,1,3.79,0,1.9,1.9,0,1,1-3.79,0Zm-15.55,0a1.9,1.9,0,0,1,3.79,0,1.9,1.9,0,1,1-3.79,0Zm-15.56,0a1.9,1.9,0,0,1,3.79,0,1.9,1.9,0,1,1-3.79,0Zm-15.56,0a1.9,1.9,0,0,1,3.79,0,1.9,1.9,0,1,1-3.79,0Zm-15.56,0A1.87,1.87,0,0,1,79.68,0c1.06,0,2.69.82,2.69,1.87s-1.63,1.92-2.69,1.92A1.89,1.89,0,0,1,77.78,1.87Zm-15.55,0a1.9,1.9,0,0,1,3.79,0,1.9,1.9,0,1,1-3.79,0Zm-15.56,0c0-1.05,1-1.87,2.6-1.87a2,2,0,0,1,1.19,1.87,2,2,0,0,1-1.19,1.92C47.71,3.79,46.67,3,46.67,1.87Zm-15.56,0a1.9,1.9,0,0,1,3.8,0,1.9,1.9,0,1,1-3.8,0Zm-14.94,0C16.17.82,16.4,0,17.45,0a1.76,1.76,0,0,1,1.9,1.87,1.78,1.78,0,0,1-1.9,1.92C16.4,3.79,16.17,3,16.17,1.87ZM0,1.87A1.87,1.87,0,0,1,1.9,0,1.87,1.87,0,0,1,3.79,1.87,1.9,1.9,0,1,1,0,1.87Z" fill="#412718" fill-rule="evenodd" opacity="0.36" style="isolation:isolate"/></g></g></svg>