<svg xmlns="http://www.w3.org/2000/svg" width="232.86" height="33.71" viewBox="0 0 232.86 33.71"><g id="ac0bb295-bda4-4024-9ab2-4872a0bca4c0" data-name="Layer 2"><g id="aa336535-088c-4848-ab68-4a5f0a8fc37f" data-name="サンプルテキスト"><path d="M.74,27c.32.31,1.75-2.64,2.2-2.2S-.22,28,.53,28.76C1,29.21,4,23.45,4.9,24.39S.32,28.31,1.15,29.14c.53.53,3.72-5.41,4.57-4.56.68.68-5.22,5.14-4.55,5.81C2.43,31.64,6,23.58,7,24.6c1.63,1.63-6,5.84-5.26,6.6,1.94,1.94,5.37-8.35,6.86-6.86.71.71-7.75,5.65-6.22,7.19s5.19-8.82,7-7c1.67,1.66-7.21,5.73-6,7,1,1,6.08-7.7,6.89-6.89,1.91,1.91-7.16,5.86-6,7,2.13,2.13,5.68-8.68,7.18-7.18S3.9,29.79,5.67,31.56C10.19,36.08,22,8.84,25.18,12.05c2,2-22.27,16-18.37,19.84,5,5,13.21-23.28,18.25-18.25C28.87,17.46,3.25,27.14,8.21,32.1,12,35.87,21.34,11.68,25,15.32c4.6,4.6-18,13.32-15.06,16.28C14,35.71,23.47,14,25.52,16c3.64,3.64-17.73,13.76-15.19,16.3C13.11,35.09,23,15.84,24.92,17.72c4,4-16,11.15-13.18,14,3.79,3.79,10.49-15.87,13.18-13.18,2.34,2.34-15.43,11.1-12.85,13.68C15.77,35.92,24,17.62,25.32,19c2.93,2.93-13,10.54-11,12.56,1.24,1.24,8.57-13.4,11-11,2.17,2.17-12.74,8.36-10,11.05,2.11,2.11,7.64-12.37,10-10s-10.18,8.62-8.87,9.94c2.33,2.32,6.15-10.89,8.52-8.51s-9.44,7.57-8,9c2.31,2.31,6.83-9,7.9-7.9,1.5,1.49-8,6.7-6.93,7.74,2,2,6.52-9.33,7.93-7.92s-8.45,6.32-6.85,7.92,6.24-9.5,7.87-7.87c.79.79-8.54,5.86-6.78,7.62C21.42,33,26.75,23.11,27.64,24c1.05,1.05-8.08,7.26-7.15,8.18,1.43,1.44,6.59-9.17,7.88-7.89,1,1-7.76,6.29-6.37,7.68.85.86,6.06-8.69,7.38-7.37s-7.32,6.33-6.2,7.45c2,2,5.81-10.13,8-8,1.67,1.66-7.38,7-6.64,7.71S31.3,22.91,32.34,24C34.43,26,23.9,30.5,25.42,32c1.26,1.26,5.17-9.23,7.2-7.2.73.73-7.56,5.64-5.94,7.26,1.09,1.09,5-8.84,6.9-6.9,1.22,1.22-6.41,5-5,6.45s5.75-7.22,6.48-6.48c1.1,1.09-6.94,4.93-5.16,6.71s5-6.81,5.9-5.9c.77.77-7.17,4.66-5.51,6.33.54.54,4.72-5.94,5.33-5.33,1,1-4.32,3.95-3.4,4.86s3.77-4.93,4.35-4.35c.87.87-4.17,3.83-3.5,4.51S35.4,28,36.21,28.83" fill="none" stroke="#fff" stroke-linecap="round" stroke-linejoin="round" stroke-width="0.86"/><path d="M25.43,10.58C26.73,11.88,30.35,4.34,31,5c1.2,1.2-5.46,4.35-4.21,5.6.91.91,4.83-6.1,5.47-5.46,1.17,1.17-5.86,4.36-4.64,5.58.68.68,4.91-6,5.46-5.45,1.4,1.4-5.43,4.46-4.39,5.5.61.62,3.06-5.29,4.17-4.18.88.89-3,3.64-2.53,4.13.84.84,2.11-3.71,2.91-2.91.63.63-2.1,2.12-1.58,2.64.3.3,1.1-1.75,1.42-1.42" fill="none" stroke="#fff" stroke-linecap="round" stroke-linejoin="round" stroke-width="0.86"/><path d="M4.06,6.17c.37.36,1.1-1.52,1.31-1.31S3.16,7,3.79,7.66s2.47-3.8,3.14-3.14S3.1,7.35,4.05,8.29C4.72,9,6.79,3.56,7.79,4.56S2.66,8.11,3.92,9.37,8.35,3.66,9,4.3c1.25,1.24-5.4,4.78-4.58,5.61C5.74,11.24,8.26,3,9.78,4.55s-6.35,4.59-5,5.94C5.92,11.63,9.92,3.28,11,4.31S5,9,6.42,10.42,10.76,3,12.3,4.54c.91.92-5.22,5.33-4.59,6,1.7,1.71,4.92-6.63,5.77-5.77S6.7,9.24,8.36,10.91s5.48-6.73,6.11-6.11c.82.82-4.71,5-4.11,5.6,1.57,1.57,5.15-6.68,5.91-5.91,1.58,1.57-6.58,5.24-5.47,6.34,1.46,1.47,5.39-6.76,6.07-6.07C18,5.89,10.33,9.32,12,11c1.85,1.85,5.22-6.91,6.06-6.07,1.19,1.19-7.34,5.66-5.86,7.14,1.32,1.33,5.15-9.43,7.29-7.29,1.63,1.62-9.15,7-7.42,8.76s6-10.86,8.42-8.42c2.05,2.05-10.29,7.62-8.53,9.38,2.83,2.83,7.17-12.13,9.65-9.65C23.75,7,9.9,12.74,12.19,15c3,3,8-12.79,10.4-10.4,2.89,2.9-12.43,9.3-10.31,11.41S21,2.33,23.47,4.86C25.37,6.76,11,15.92,12.35,17.31c3,3,9.84-14.82,12.33-12.33,3.43,3.43-15.4,10.93-12.5,13.84,3.11,3.1,11.47-16.65,14.06-14.06C29.55,8.07,8,16,11.89,19.93c2.76,2.76,12.72-17.31,15-15C29,7,7.85,16.47,12.34,21c4.2,4.2,14.1-18.88,16.49-16.49,3.26,3.26-20.8,14-16.91,17.91C15.5,26,24.63-.44,29.69,4.61,35,10,9.2,21.33,11.67,23.81c3.63,3.63,17-20.89,18.94-18.94" fill="none" stroke="#fff" stroke-linecap="round" stroke-linejoin="round" stroke-width="0.86"/><path d="M188.58,24.79c.4.4,1.4-1.8,1.6-1.59.76.76-3.18,3-2.38,3.77s4.33-5.48,4.9-4.9c1.26,1.25-6.34,4.66-5,6,.82.82,5.81-7.15,6.48-6.48,2,2-7.83,6-6.38,7.48,1.06,1.06,5.35-9.17,7.26-7.26s-7.85,7.26-6.75,8.35c7,7,18.5-31.76,25.13-25.13,7.36,7.36-30.67,20-24.66,26,5.5,5.49,19.92-31.59,25.75-25.76,3,3-30.64,20-24.88,25.78,7.49,7.48,20.81-30.55,25.68-25.68,3.38,3.37-31,20-24.7,26.26C195.45,36.47,211.72,1.54,216.2,6c4.81,4.81-31.52,18.56-24.43,25.66C198,38,211.25.27,217.22,6.24c3.47,3.46-31.72,19.36-25,26.08S214.28,5.14,216.84,7.7c3.4,3.4-29.45,19-23.79,24.62C196.43,35.7,213.2,4,217.31,8.06c3.56,3.57-26.88,21.36-23.49,24.75C198,37,211.76,3.92,217.23,9.39c2.34,2.34-25.34,18.44-21.09,22.69,4,4,17.11-26,21.59-21.58,5.2,5.21-24.93,17.11-20.48,21.56C202,36.83,212,7.9,216.71,12.6c3.89,3.88-22.5,15.84-18.75,19.59,3.43,3.43,12.79-22.91,17.85-17.85,3.79,3.8-18.83,13.48-15.56,16.76,2.91,2.91,12.68-16.21,14.45-14.44,3,3-13.48,11.78-11.9,13.35,3.25,3.25,9.63-12.34,11-11,.72.72-6.84,6.68-6,7.56,1.51,1.51,4.2-7,5.62-5.62,1,1-7,5.72-5.82,7,.93.92,5.33-7.25,6.29-6.29.64.64-5.75,5.42-5.17,6,.76.76,4.14-7.41,5.77-5.77,1,1-6.77,6.05-5.77,7.05,1.37,1.37,5.43-7.6,6.52-6.52.92.92-7,5.4-5.53,6.85,1.17,1.16,5.49-6.71,6.1-6.1s-6.3,5.86-5.53,6.63c1.15,1.15,4.83-7.67,6.26-6.25s-5.9,6.17-5.27,6.8c1.56,1.56,5.49-6.84,6.16-6.16,1.84,1.84-7.66,5.31-6.06,6.9.82.82,5-7.23,6.11-6.11.88.88-6.59,5.17-5.22,6.54,1,1,5.13-7.6,6.36-6.37.78.78-6.83,5.09-5.49,6.43,1,1,4.23-7.3,5.77-5.77S212,30.3,213.7,32c.74.74,5.08-6.68,5.88-5.89,1.58,1.59-6.71,5-5.4,6.31.79.79,4.83-6.39,5.61-5.61,1.13,1.13-5.69,4.56-4.63,5.63.64.64,4.29-5.66,5-5,.9.91-4.27,4-3.55,4.75,1,1,2.49-4.09,3.29-3.29.39.4-2.59,2.1-1.89,2.8.31.31,1.17-2,1.57-1.56" fill="none" stroke="#fff" stroke-linecap="round" stroke-linejoin="round" stroke-width="0.86"/><path d="M188.57,5.83c.36.36,1.07-1.48,1.28-1.27s-2.15,2.13-1.53,2.75,2.42-3.74,3.08-3.08S187.64,7,188.57,8c.66.65,2.7-4.67,3.68-3.68s-5,3.5-3.8,4.74,4.38-5.63,5-5c1.22,1.22-5.31,4.71-4.49,5.53,1.3,1.3,3.78-6.77,5.27-5.28s-6.23,4.53-4.91,5.85c1.13,1.13,5.07-7.1,6.09-6.08s-5.79,4.59-4.41,6,4.25-7.26,5.75-5.76c.89.89-5,5.2-4.44,5.82C194,11.73,197.11,3.6,198,4.44s-6.6,4.41-5,6,5.34-6.57,6-6c.8.8-4.54,4.87-4,5.45,1.54,1.54,5-6.51,5.77-5.76,1.53,1.53-6.41,5.12-5.33,6.2,1.43,1.43,5.26-6.6,5.93-5.93,1,1-5.78,4.15-4.32,5.61,1.68,1.69,4.71-6.24,5.47-5.47s-5.06,4.21-4,5.27,3.82-7,5.43-5.43c1,1-5.28,4.51-4.23,5.56s3.66-6.79,5.23-5.22c1.13,1.12-5.45,4.36-4.48,5.33,1.65,1.66,4.14-7,5.59-5.59,1.1,1.09-5.66,4.18-4.5,5.34,1.63,1.63,4.22-6.8,5.51-5.52s-5.28,4.48-4.32,5.43,4-6.44,5.21-5.21c.73.73-4.35,4.61-3.82,5.15,1.3,1.3,3.93-6.12,5-5S204,9,205.09,10.09c1.28,1.28,4.55-6.69,5.62-5.62,1.65,1.65-8.86,5.81-6.92,7.74,1.4,1.41,6.4-8.74,7.57-7.57s-11.8,7.59-9,10.43,9.22-12.35,10.79-10.78" fill="none" stroke="#fff" stroke-linecap="round" stroke-linejoin="round" stroke-width="0.86"/><path d="M144.88,23.16c.84.84,5.16-7.74,6.45-6.45s-6.09,5.22-5.1,6.21,4.18-7.16,5.66-5.67-5.08,5.13-4.54,5.66c1.33,1.33,4.13-7.32,5.73-5.72,1,1-4.39,4.46-3.63,5.21s3.23-5.25,4.24-4.24c.4.4-4.66,3.19-3.5,4.35.56.55,3.13-4.48,3.8-3.81s-4.17,3.52-3.34,4.34,3.32-4.29,3.8-3.81-2.33,2.95-2,3.27c.51.51,1.71-2.36,2-2" fill="none" stroke="#fff" stroke-linecap="round" stroke-linejoin="round" stroke-width="0.86"/><path d="M143.68,12.76c1,1,4.21-7.16,5.69-5.68.52.52-5.62,4.5-4.6,5.52,1.49,1.5,4.75-6.47,5.61-5.61,1.32,1.31-5,4.66-4.32,5.38,1.6,1.61,4-6.71,5.36-5.36,1,1-6,4.76-4.69,6.12,1.62,1.61,4.08-7.36,5.72-5.72,1.29,1.28-4.38,4.49-3.89,5s4.1-6.09,5.09-5.09c.62.62-5.49,4.63-4.37,5.75s3.32-6,4.66-4.65c.74.74-3.73,3.7-3.14,4.29s3-4.77,3.89-3.9-3.45,2.71-2.51,3.64c.47.47,1.63-2.81,2.22-2.22" fill="none" stroke="#fff" stroke-linecap="round" stroke-linejoin="round" stroke-width="0.86"/><path d="M120.13,19.16c.28.28,1.63-2.44,2-2s-2.74,3-2.07,3.64c.39.39,3-4.68,3.86-3.86s-3.87,3.45-3.16,4.16c.46.45,3.17-4.64,3.91-3.9.58.58-4.34,4.46-3.77,5,1.09,1.08,4.13-5.89,5-5,1.35,1.34-4.83,4.92-4.2,5.55,1.62,1.63,4.55-7.06,5.81-5.81.58.59-6.32,4.74-5,6s4.32-7.33,5.83-5.83c1.3,1.31-5.54,4.6-4.56,5.58.82.83,4.83-6.14,5.48-5.48,1.46,1.45-5.34,4.56-4.48,5.42,1.68,1.68,4.44-6.82,5.63-5.63s-5.33,4.12-4,5.43c3.69,3.69,13.3-18.56,15.92-15.93,1.62,1.62-17.94,13.08-14.78,16.25C131.83,27,138.94,2.61,143.3,7c3.28,3.29-18.64,11.71-14.38,16C132.5,26.51,141.37,3.58,144.83,7c4.34,4.34-17,12.61-14.19,15.41,4.2,4.2,13.85-18,15.94-15.94,3.72,3.72-18.13,14.05-15.53,16.64,3.06,3.07,14-18.12,16-16,4.61,4.61-18.46,12.74-15.19,16,4.59,4.59,12.76-19.26,16-16,3,3-19.66,14-16.39,17.23,5,5,15.81-19.46,17.64-17.63C153.51,11.05,129.42,22,132.44,25c1.26,1.27,8.79-13.76,11.27-11.27s-14.17,9.21-11.19,12.19c2.38,2.38,8.62-13.95,11.29-11.29,2.92,2.92-12.69,10.51-11.07,12.13,2.92,2.92,7.88-13.84,10.86-10.85S130.5,26.11,132.42,28c3.24,3.23,9.68-12.69,11.18-11.18,2.29,2.29-12.42,10.05-10.83,11.64,3.12,3.12,9.84-14.15,12-12s-14.35,10.12-11.7,12.77c2.5,2.5,10.05-15.38,12.72-12.72,1.37,1.37-15.21,9.92-12.15,13,2.36,2.36,11.47-14.48,13-13,1.87,1.87-14.77,12.52-13.12,14.16,2.56,2.56,11.56-16.16,13.86-13.86,1.9,1.9-15.69,11.61-13,14.3,1.6,1.6,11.54-16.46,14-14C151.1,19.92,132.69,29.5,135,31.8c4,4,10.94-19.35,15.14-15.15,3.42,3.42-15.75,13.77-14.22,15.3,1,1,8.18-10.72,9.45-9.45,2.63,2.62-10.79,8.1-8.88,10,1.45,1.45,6-10.66,8.33-8.33.89.89-9.32,6.72-7.36,8.68,1.17,1.18,5.38-9.56,7.47-7.47,1.37,1.37-7.29,5.57-5.7,7.16,1.29,1.29,5.72-7.18,6.45-6.45,1.05,1-6.61,4.75-4.9,6.46,1.4,1.41,4.08-5.58,4.83-4.83.57.57-5.26,3.58-4,4.83.32.32,2.81-3.55,3.17-3.18" fill="none" stroke="#fff" stroke-linecap="round" stroke-linejoin="round" stroke-width="0.86"/><path d="M130.17,5.54c.5.49,1.77-2.27,2-2" fill="none" stroke="#fff" stroke-linecap="round" stroke-linejoin="round" stroke-width="0.86"/><path d="M120.91,8.36c.36.36,1.08-1.5,1.29-1.29S120,9.22,120.64,9.85s2.46-3.79,3.13-3.12S120,9.55,120.9,10.49c.66.67,2.73-4.74,3.73-3.74s-5.14,3.56-3.87,4.82,4.44-5.72,5.08-5.08c1.25,1.25-5.42,4.8-4.59,5.63,1.33,1.33,3.86-6.9,5.38-5.38s-6.36,4.6-5,5.95c1.14,1.15,5.15-7.23,6.19-6.19s-6,4.7-4.54,6.12,4.35-7.44,5.89-5.89c.92.91-5.24,5.34-4.6,6,3,3,8.64-11.63,10.13-10.14s-12.43,7.6-9.48,10.55c2.74,2.74,9.53-11.75,10.64-10.64,1.57,1.57-9.8,9-8.65,10.13,2.75,2.74,9-11.6,10.28-10.27,2.72,2.72-11.76,8.79-9.84,10.7,2.53,2.54,9.14-11.5,10.33-10.32,1.9,1.9-11.46,7.27-8.72,10S137.43,2,138.72,3.24c1.65,1.65-10.41,7.6-8.36,9.65,1.69,1.69,6.65-12.11,9.38-9.38,2,2-11.46,8.53-9.33,10.66s6.94-12.53,9.74-9.73C142.47,6.76,128.43,13,130.43,15c3,3,7.74-13.09,10.41-10.42,2.32,2.32-12.49,8.44-10,10.88,3.1,3.11,8.19-13.08,10.64-10.63,2.91,2.91-12.54,9.31-10.41,11.44s8.18-13,10.58-10.58" fill="none" stroke="#fff" stroke-linecap="round" stroke-linejoin="round" stroke-width="0.86"/><path d="M167.12,25.83c.38.37,1.32-1.7,1.51-1.51.71.7-2.89,2.8-2.15,3.54,1,1,5.36-6.79,6.08-6.08,1.5,1.51-7.68,5.49-6.11,7.06,2.36,2.36,15.83-19.67,17.75-17.75,5.14,5.14-21.43,14.94-17.63,18.74,2.51,2.52,12.92-22,17.46-17.46s-19.52,16-16.95,18.54c4.89,4.88,12.85-22.09,17.47-17.47,5.12,5.11-21.09,14.1-16.91,18.27,3.66,3.67,13.29-21.08,17.19-17.19,2,2-20.14,13.4-16.33,17.22,4.85,4.84,13.41-19.71,16.56-16.56,2.15,2.15-19.46,13-15.47,17,2.91,2.91,12.61-18,15.3-15.3S166.83,28,171,32.08c3.48,3.47,10.8-17.42,14.11-14.11,1.87,1.87-16.86,10.69-13.23,14.31,3.4,3.4,10.88-13.46,12.17-12.17,1.59,1.59-13.58,9.11-10.93,11.76,1.51,1.51,8.85-12.52,10.69-10.69,1.37,1.38-10,8.62-8.67,9.93s5.66-9.15,7.4-7.4c.5.5-5.14,4.22-4.22,5.14.65.65,2.77-4.25,3.5-3.51" fill="none" stroke="#fff" stroke-linecap="round" stroke-linejoin="round" stroke-width="0.86"/><path d="M176.57,12.32c.53.54,1.66-2.28,2-2s-3.38,2.83-2.49,3.71,3.28-5,4.16-4.16S174.71,13.67,176,15c.89.89,3.71-6.36,5-5s-7.47,4.85-5.68,6.63S181.23,9,182.1,9.85c1.87,1.87-8.4,7-7.16,8.2,1.94,1.94,5.5-9.93,7.71-7.72,2.53,2.53-11,7.41-8.72,9.67,1.85,1.85,7.87-11.23,9.55-9.55" fill="none" stroke="#fff" stroke-linecap="round" stroke-linejoin="round" stroke-width="0.86"/><path d="M220.06,4.86c.37.37,1.09-1.5,1.3-1.29S219,5.85,219.62,6.52s2.41-3.69,3-3-4,2.95-3,3.94c.65.66,2.68-4.63,3.65-3.65S217.62,7.61,219,9c1.23,1.23,4.45-5.74,5.1-5.1,1.38,1.38-6.06,5.25-5.14,6.17,1.34,1.34,3.86-6.91,5.39-5.39s-7,5-5.49,6.44c1.11,1.11,5-7.06,6-6s-6.56,5-5,6.58c1.16,1.16,3.66-6.22,5-4.94.83.84-4.71,4.92-4.13,5.5,1.11,1.12,3.18-4.3,3.74-3.74s-4.42,3.22-3.29,4.35c.75.75,2.77-3.37,3.07-3.07s-1.64,2.13-1.4,2.37,1.26-1.62,1.44-1.44" fill="none" stroke="#fff" stroke-linecap="round" stroke-linejoin="round" stroke-width="0.86"/><path d="M227.47,4.84c.35.35,1-1.45,1.24-1.25s-2.32,2.22-1.66,2.88,2.38-3.65,3-3-4,2.92-3,3.91c.65.65,2.66-4.59,3.63-3.62s-5.62,3.82-4.25,5.19,4.45-5.73,5.09-5.09c1.38,1.38-6,5.25-5.13,6.17,1.34,1.34,3.87-6.93,5.4-5.4s-7,5-5.53,6.47c1.12,1.12,5.06-7.09,6.08-6.08s-6.68,5.12-5.11,6.68c1.18,1.18,3.72-6.35,5-5,.86.87-4.92,5.09-4.32,5.69,1.18,1.18,3.37-4.55,4-4s-4.81,3.43-3.59,4.64c.83.83,3.05-3.71,3.38-3.38s-1.87,2.48-1.6,2.75,1.38-1.77,1.58-1.58" fill="none" stroke="#fff" stroke-linecap="round" stroke-linejoin="round" stroke-width="0.86"/><path d="M102.8,16c.44.44,1.35-1.85,1.6-1.6s-2.82,2.51-2.05,3.27,2.94-4.52,3.73-3.73-4.79,3.37-3.63,4.52c.79.8,3.29-5.66,4.48-4.47s-6.56,4.34-5,5.92,5.23-6.76,6-6c1.56,1.56-6.9,5.87-5.87,6.91,1.59,1.59,4.56-8.2,6.38-6.38s-8.22,5.73-6.51,7.45c1.38,1.38,6-8.55,7.3-7.3s-8.57,6.23-6.62,8.19c1.7,1.69,5.3-9.07,7.19-7.19,1.31,1.31-7.81,7.37-6.9,8.27,2.14,2.14,6.18-8.33,7.26-7.26s-9.79,6.16-7.44,8.51c1.91,1.92,6.73-8.29,7.5-7.51,1.23,1.22-7.45,7.14-6.55,8,1.87,1.86,6.1-7.9,7-7,2,2-8.58,6.62-7.16,8,1.69,1.69,6.16-7.74,7-7,1.4,1.4-8.25,5.51-6.23,7.53s5.33-7,6.19-6.19c1.12,1.12-6.89,5.37-5.49,6.77,1.09,1.08,4.18-7.7,5.94-5.95,1.25,1.25-6.85,5.54-5.53,6.87s3.86-7.14,5.5-5.5c1.31,1.3-6.37,5-5.25,6.11,1.7,1.71,4.28-7.28,5.78-5.78,1.23,1.23-6.47,4.68-5.16,6,1.67,1.67,4.33-7,5.65-5.65,1.48,1.48-6.06,5-5,6.09s4-6.41,5.18-5.19c.8.8-4.85,5-4.26,5.6,1.21,1.21,3.62-5.67,4.64-4.65,1.17,1.17-4.74,4.11-3.76,5.1s3.59-5.3,4.45-4.44-5.19,3.66-4,4.83c.75.75,3.36-4.61,4-4,.32.32-2.26,2.33-1.55,3,.49.49,1.5-2.05,1.77-1.77" fill="none" stroke="#fff" stroke-linecap="round" stroke-linejoin="round" stroke-width="0.86"/><path d="M80.56,15.84c.41.41,1.24-1.71,1.47-1.47s-2.74,2.47-2,3.21,2.92-4.49,3.7-3.7S79,17.25,80.11,18.41c.77.77,3.22-5.55,4.38-4.39s-6.54,4.33-5,5.91,5.29-6.85,6.07-6.07c1.66,1.66-7.39,6.22-6.29,7.32C81,22.87,84.12,12.53,86,14.46c2.16,2.16-9.3,6.38-7.37,8.31,1.57,1.57,6.8-9.65,8.22-8.22,1.85,1.84-12.35,8.44-9.61,11.18,2.41,2.4,7.49-12.84,10.16-10.16,2,1.94-12,10.63-10.6,12C80,30.75,86.16,15,87.77,16.61S73.13,25.42,76.58,28.86c2.93,2.94,10.17-12.53,11.35-11.35C89.79,19.37,76.24,28,77.6,29.33c2.85,2.86,9.31-12.08,10.7-10.7,3,3-12.78,9.5-10.7,11.58C80.15,32.77,86.83,18.58,88,19.77c2,2-12.35,7.76-9.4,10.7,2.74,2.74,7.82-10.31,9.06-9.07,1.58,1.58-10,7.32-8,9.29,1.42,1.42,5.55-10.14,7.84-7.85,1.51,1.51-8.47,6.59-6.86,8.2,1.31,1.3,4.26-7.84,6-6.05,1.31,1.32-6.43,5-5.3,6.15,1.47,1.47,3.66-6.23,5-4.94.9.91-4.62,3.54-3.67,4.5s2.28-3.72,3-3" fill="none" stroke="#fff" stroke-linecap="round" stroke-linejoin="round" stroke-width="0.86"/><path d="M109.25,4.45c.46.46,3.1-4.53,3.81-3.82s-2.8,2.89-2.29,3.4,1.92-3.32,2.62-2.62S111.45,4,111.7,4.22c.61.61,2-3.51,2.77-2.78.51.51-1.69,2.52-1.31,2.9S114.5,2,115,2.5c.22.22-2.2,1.84-1.59,2.45.32.32,1.57-2.35,2-2s-2.72,2.56-2.15,3.13S115.64,3,116,3.35s-2.61,3.17-2.25,3.53c.67.67,2.29-3.16,2.73-2.73.69.69-3.52,2.91-2.8,3.64.93.93,2-3.71,2.86-2.86" fill="none" stroke="#fff" stroke-linecap="round" stroke-linejoin="round" stroke-width="0.86"/><path d="M100.83,12.27c2,2,8.46-14.28,11.37-11.38C113.31,2,99.76,10,101.91,12.11c1.56,1.55,5-6.74,5.85-5.85,1.38,1.38-5.31,4.85-4.55,5.61,1.38,1.38,3.38-5.7,4.54-4.54.83.83-5,4.14-3.86,5.29S106.8,7.4,108,8.55c.81.82-2.55,3-2.23,3.33s2.55-3.81,3.18-3.18c.39.39-3.17,3.13-2.46,3.83s2.07-3.69,2.89-2.88c.43.44-1.92,2.37-1.57,2.72.51.51,2.24-3.49,2.86-2.87s-2.74,2.32-2,3.09c.57.58,2.07-3.52,2.79-2.8s-2,2.4-1.43,3c1.52,1.52,4.57-8.74,6.66-6.65,1.8,1.8-7,6.16-6.07,7.12C112.38,15,115.71,5,117.29,6.6s-5.18,5.38-4.5,6.07c.48.48,2.69-5,3.84-3.84" fill="none" stroke="#fff" stroke-linecap="round" stroke-linejoin="round" stroke-width="0.86"/><path d="M104.89,4c.45.44,2.22-3.47,2.84-2.84.78.77-4.66,4.18-3.64,5.2.6.6,4.49-7,5.75-5.76" fill="none" stroke="#fff" stroke-linecap="round" stroke-linejoin="round" stroke-width="0.86"/><path d="M90.24,4.91c.44.44,1.57-2,1.79-1.8" fill="none" stroke="#fff" stroke-linecap="round" stroke-linejoin="round" stroke-width="0.86"/><path d="M78.65,8c.37.37,1.1-1.54,1.32-1.33S77.77,8.8,78.4,9.43s2.48-3.82,3.15-3.15-3.83,2.83-2.88,3.78c.67.67,2.76-4.77,3.76-3.77s-5.11,3.55-3.86,4.81S83,5.39,83.64,6c1.24,1.24-5.37,4.76-4.55,5.58,1.33,1.32,3.83-6.84,5.34-5.33s-6.3,4.56-5,5.9C80.6,13.32,84.58,5,85.61,6s-5.9,4.66-4.49,6.06S85.43,4.73,87,6.26c.91.91-5.18,5.3-4.55,5.93,1.69,1.7,4.89-6.61,5.75-5.75s-6.76,4.49-5.1,6.15,5.46-6.71,6.09-6.08c.81.81-4.69,5-4.09,5.58C87.77,14.8,93.92.59,95.24,1.91c2.7,2.7-11.64,8.71-9.74,10.61C88,15,94.57,1.1,95.74,2.27c1.89,1.89-11.36,7.21-8.64,9.93C90,15.11,95.41,1.27,96.72,2.58,98.33,4.19,86.58,10,88.58,12c1.65,1.64,6.49-11.83,9.16-9.16,1.75,1.74-9.9,7.51-8,9.37s6.07-11,8.55-8.56c2.08,2.08-10.45,7.73-8.66,9.52,2.74,2.74,7-11.76,9.35-9.36,2.11,2.11-11.32,7.71-9.09,9.93,2.82,2.82,7.43-11.87,9.65-9.65C102.21,6.79,88,12.8,90,14.77S97.57,2.68,99.8,4.91C101.48,6.6,88.78,14.79,90,16c2.43,2.43,8-12,10-10,2.82,2.82-12.56,9.11-10.16,11.51s9-13.08,11-11c2.63,2.63-14.42,9.05-11.33,12.14,2.21,2.21,10.17-13.84,12-12,1.65,1.65-15.15,9.42-11.54,13,3.44,3.44,11.52-15.45,13.48-13.49,2.7,2.7-17.12,11.68-13.9,14.9,3,3,10.58-19,14.78-14.77,4.48,4.48-17.11,14.13-15,16.2C93.55,26.71,109-1.62,111.23.63s-26.39,18-21.74,22.7c2.15,2.15,8.5-13.88,11.19-11.19,2,2-12.59,10.86-11.12,12.34,2.18,2.18,8.23-14.39,11.31-11.31,3.24,3.23-13.28,11-11.36,12.93,2.27,2.27,8.25-14.1,11.18-11.18,2.15,2.16-14.08,9.74-11.14,12.67,1.91,1.91,8.8-13.9,11.35-11.35,3.32,3.32-13.37,11.07-11.46,13,1.09,1.1,8.94-13.32,11.13-11.14,1.44,1.44-13.14,9.69-10.84,12,3.06,3.06,9-12.63,10.82-10.82,2.71,2.71-11.18,10-10,11.21,1.68,1.67,8.94-11.46,10.2-10.19,1,1-12.18,8.43-9.52,11.1,2.37,2.36,8.22-10.46,9.34-9.34,2.74,2.74-10.48,8.41-8.86,10,2.21,2.2,6.85-11.17,9-9,.9.89-9.66,8-8.24,9.45,1.88,1.87,7.13-9.18,8.15-8.15,1.19,1.18-9.52,6.28-7.45,8.34.73.73,5.61-9.17,7.39-7.39.75.75-7.82,5.5-5.89,7.43,1.56,1.57,4.3-7.56,5.93-5.93.77.77-5.88,5.24-4.8,6.32s3.68-5.4,4.54-4.54-2.77,2.63-2.13,3.27c.49.49,1.48-2.66,2.07-2.07" fill="none" stroke="#fff" stroke-linecap="round" stroke-linejoin="round" stroke-width="0.86"/><path d="M41.76,24.79c.4.4,1.4-1.8,1.6-1.59.76.76-3.18,3-2.38,3.77s4.33-5.48,4.9-4.9c1.26,1.25-6.34,4.66-5,6,.82.82,5.81-7.15,6.48-6.48,2,2-7.84,6-6.38,7.48,1.06,1.06,5.35-9.17,7.26-7.26S40.36,29,41.46,30.13C48.48,37.15,60-1.64,66.6,5,74,12.36,35.93,25,41.94,31,47.44,36.51,61.86-.57,67.69,5.26c3,3-30.64,20-24.88,25.78C50.3,38.52,63.62.49,68.49,5.36c3.37,3.37-31,20-24.71,26.26C48.63,36.47,64.89,1.55,69.38,6,74.19,10.84,37.86,24.59,45,31.69,51.22,38,64.43.27,70.4,6.24c3.47,3.47-31.72,19.36-25,26.08S67.45,5.14,70,7.7c3.41,3.4-29.44,19-23.78,24.62C49.61,35.7,66.38,4,70.48,8.06,74.05,11.63,43.6,29.42,47,32.81,51.22,37,64.94,3.93,70.41,9.4c2.33,2.33-25.34,18.43-21.09,22.68,4,4,17.11-26,21.58-21.58C76.11,15.71,46,27.61,50.43,32.06,55.19,36.82,65.19,7.9,69.88,12.6c3.89,3.89-22.49,15.84-18.74,19.59C54.57,35.61,63.92,9.29,69,14.35c3.79,3.79-18.82,13.48-15.55,16.75C56.34,34,66.1,14.89,67.88,16.66c3,3-13.47,11.78-11.9,13.35,3.25,3.25,9.63-12.34,11-11,.73.72-6.83,6.69-6,7.56,1.51,1.51,4.21-7,5.63-5.62,1,1-7,5.72-5.82,7,.93.92,5.33-7.25,6.29-6.29.64.64-5.75,5.42-5.17,6,.76.76,4.14-7.41,5.77-5.77,1,1-6.77,6.05-5.77,7.05,1.37,1.37,5.43-7.6,6.52-6.52.92.92-7,5.4-5.53,6.85,1.16,1.16,5.49-6.71,6.1-6.1s-6.3,5.86-5.53,6.63c1.15,1.15,4.83-7.67,6.26-6.25s-5.9,6.17-5.27,6.8C66,31.88,70,23.49,70.64,24.16c1.84,1.84-7.66,5.31-6.06,6.9.81.82,5-7.23,6.11-6.11.87.88-6.59,5.17-5.22,6.54,1,1,5.13-7.6,6.36-6.37.77.78-6.83,5.09-5.49,6.43,1,1,4.23-7.3,5.77-5.77s-7,4.52-5.23,6.24c.73.74,5.08-6.68,5.88-5.89,1.58,1.59-6.71,5-5.4,6.31.79.79,4.83-6.39,5.61-5.61,1.13,1.13-5.7,4.56-4.63,5.63.64.64,4.29-5.66,5-5,.91.91-4.26,4-3.55,4.75,1,1,2.5-4.08,3.29-3.29.4.4-2.58,2.1-1.88,2.8.31.31,1.17-2,1.56-1.56" fill="none" stroke="#fff" stroke-linecap="round" stroke-linejoin="round" stroke-width="0.86"/><path d="M41.75,5.83c.36.36,1.07-1.48,1.28-1.27S40.87,6.69,41.5,7.31s2.42-3.74,3.08-3.08S40.82,7,41.75,8c.66.65,2.7-4.67,3.68-3.68s-5,3.5-3.8,4.74,4.38-5.63,5-5c1.23,1.22-5.3,4.71-4.49,5.52,1.31,1.31,3.79-6.76,5.28-5.27s-6.24,4.53-4.91,5.85C43.63,11.24,47.58,3,48.6,4s-5.79,4.59-4.41,6,4.25-7.26,5.75-5.76c.89.89-5,5.2-4.44,5.82,1.66,1.66,4.79-6.47,5.63-5.63s-6.6,4.41-5,6,5.34-6.57,6-6c.8.8-4.54,4.87-4,5.45,1.53,1.54,5-6.5,5.77-5.76,1.53,1.53-6.41,5.12-5.33,6.2,1.43,1.43,5.26-6.6,5.93-5.93,1,1-5.79,4.15-4.32,5.61,1.68,1.69,4.71-6.24,5.47-5.47s-5.06,4.21-4,5.27,3.82-7,5.44-5.43c1,1-5.28,4.51-4.23,5.56s3.66-6.79,5.23-5.22c1.12,1.12-5.45,4.36-4.48,5.33,1.65,1.66,4.14-7,5.59-5.59,1.1,1.09-5.66,4.18-4.5,5.34,1.63,1.63,4.22-6.8,5.51-5.52S55,8.83,55.9,9.78s4-6.44,5.22-5.21c.73.73-4.35,4.61-3.82,5.15,1.3,1.3,3.93-6.12,5-5s-5.1,4.34-4,5.4c1.28,1.28,4.55-6.69,5.62-5.62C65.53,6.12,55,10.28,57,12.21c1.41,1.41,6.41-8.74,7.58-7.57s-11.81,7.59-9,10.44S64.79,2.72,66.36,4.29" fill="none" stroke="#fff" stroke-linecap="round" stroke-linejoin="round" stroke-width="0.86"/><path d="M158.59,11.65c.38.38,1.14-1.56,1.35-1.35s-2.37,2.26-1.7,2.93,2.48-3.82,3.14-3.15-3.88,2.86-2.92,3.82c.65.65,2.67-4.62,3.65-3.65s-5.33,3.66-4,5,4.34-5.57,5-5c1.3,1.3-5.67,5-4.81,5.84,1.27,1.27,3.68-6.58,5.13-5.13s-6.65,4.78-5.24,6.18c1.09,1.09,4.94-6.91,5.93-5.92s-6.92,5.26-5.31,6.87c1.29,1.29,4-6.9,5.48-5.47,1,1-5.94,5.89-5.23,6.6,1.55,1.54,4.45-6,5.23-5.23s-7.05,4.66-5.32,6.38c1.36,1.36,4.84-6,5.39-5.4.83.83-4.73,5-4.13,5.63,1.23,1.23,4.06-5.26,4.65-4.66,1.31,1.31-5.39,4.43-4.47,5.35s3.84-4.81,4.32-4.32c.74.73-4,3.15-2.92,4.21s2.53-3.39,3-3-1.76,2-1.31,2.47c.26.27.81-1.66,1.23-1.24" fill="none" stroke="#fff" stroke-linecap="round" stroke-linejoin="round" stroke-width="0.86"/><path d="M165.94,11.65c.38.38,1.13-1.56,1.35-1.35s-2.38,2.26-1.71,2.93,2.48-3.82,3.15-3.15-3.88,2.86-2.93,3.82c.66.65,2.68-4.62,3.65-3.65s-5.33,3.66-4,5,4.33-5.57,4.95-5c1.3,1.3-5.67,5-4.8,5.84,1.27,1.27,3.68-6.58,5.13-5.13s-6.65,4.77-5.24,6.18c1.09,1.09,4.93-6.91,5.92-5.92s-6.92,5.26-5.3,6.87c1.28,1.29,4-6.9,5.47-5.47,1,1-5.93,5.89-5.22,6.6,1.54,1.54,4.45-6,5.23-5.23s-7.06,4.66-5.33,6.38c1.36,1.36,4.85-6,5.4-5.4.82.83-4.74,5-4.14,5.63,1.24,1.23,4.06-5.26,4.66-4.66,1.31,1.31-5.4,4.43-4.48,5.35S171.53,16.5,172,17c.73.74-4,3.16-2.93,4.22s2.54-3.39,3-3-1.77,2-1.32,2.47c.27.27.81-1.66,1.24-1.23" fill="none" stroke="#fff" stroke-linecap="round" stroke-linejoin="round" stroke-width="0.86"/></g></g></svg>