<svg xmlns="http://www.w3.org/2000/svg" width="136.14" height="19.81" viewBox="0 0 136.14 19.81"><g id="ba52890b-0621-4455-b1d5-001ed385dd40" data-name="Layer 2"><g id="e8c23e8f-e6c5-412f-a85a-8cdfbaa3fedd" data-name="レイヤー 1"><path d="M19.5,7.85H15.12A10.77,10.77,0,0,1,15.47,10a5.65,5.65,0,0,1-5.65,5.65,6.31,6.31,0,0,1-2.08-.47L18.17,4.8A9.82,9.82,0,1,0,19.65,10,16.56,16.56,0,0,0,19.5,7.85ZM4.24,10A5.65,5.65,0,0,1,9.88,4.4a5.47,5.47,0,0,1,2,.38L4.64,12.14A5.65,5.65,0,0,1,4.24,10Z" fill="#3171b9"/><path d="M31.86,1.7A6.17,6.17,0,0,0,23.15,2a6.17,6.17,0,0,0-.28,8.71l2.23,2.23,3-3L26,7.86a2.07,2.07,0,0,1,.06-3,2.13,2.13,0,0,1,3,.06l2,2,3-3Z" fill="#e4007f"/><path d="M33.25,9.16,31.11,6.93l-3.06,3,2,2a2.08,2.08,0,0,1-.06,3,2,2,0,0,1-3,0l-2-2-3,3,2,2a6.3,6.3,0,0,0,8.93,0A6.18,6.18,0,0,0,33.25,9.16Z" fill="#3171b9"/><path d="M43.4,0H36.48V19.67h4.3V4.27h2.44c1.29,0,2.48.6,2.48,2.09a2.19,2.19,0,0,1-2.3,2.19H40.8l2.82,4.18A6.31,6.31,0,0,0,50,6.36,6.3,6.3,0,0,0,43.4,0Z" fill="#3171b9"/><path d="M70.7,8.72c0-.36-.09-.58-.14-1H66.14a4.68,4.68,0,0,1,.36,2.12,5.7,5.7,0,0,1-5.7,5.64,5.64,5.64,0,0,1,0-11.27,5.86,5.86,0,0,1,5.29,3.45l3.14-3.13A10.21,10.21,0,0,0,59.67.06,9.88,9.88,0,0,0,62,19.68,10,10,0,0,0,70.7,8.72Z" fill="#3171b9"/><path d="M77.79,6.32V8.59c.47.77,1.4.77,2.64.77.8,0,1.76,0,2.37-.07a3.09,3.09,0,0,0-.2.65c-.53,0-1.32,0-2,0-1.52,0-2.4,0-3-.83-.3.29-.6.58-.86.8a.14.14,0,0,1-.08.14l-.34-.71a10.9,10.9,0,0,0,.93-.73V6.93H76.3V6.32Zm-.93-2.58A5.25,5.25,0,0,1,78,4.87l-.54.42a5.18,5.18,0,0,0-1.1-1.18ZM80,9.11V7.93a6.27,6.27,0,0,1-1.58.88,5.34,5.34,0,0,0-.35-.48,4.88,4.88,0,0,0,1.75-1H78.66V5.81H82V7.24l0,0,.56.37s-.09,0-.17,0c-.23.16-.59.37-.89.54a3.88,3.88,0,0,0,1.1.39,1.74,1.74,0,0,0-.38.52,3.72,3.72,0,0,1-1.68-1v1ZM82.63,5V5.5H78.1V5H80V4.59H78.47V4.11H80V3.56l.81,0c0,.07,0,.1-.16.12v.39h1.57v.48H80.64V5ZM79.27,6.25V6.9h2.12V6.25Zm1.36,1.08.05,0,0,0a2.37,2.37,0,0,0,.5.5,8.29,8.29,0,0,0,.77-.55h-1.3Z" fill="#231916"/><path d="M85.17,8.86l1-.15,0,.55c-.93.17-1.89.33-2.51.43a.14.14,0,0,1-.11.11l-.2-.7L84.57,9V7.11h-1V6.54h1V5.88h-.66V5.79l-.11.11a2,2,0,0,0-.45-.43,6.67,6.67,0,0,0,1.27-1.91l.75.11c0,.07-.06.1-.15.1l0,0a8.24,8.24,0,0,1,1.16,1L86,5.38a7.51,7.51,0,0,0-1.06-1,9.66,9.66,0,0,1-.64,1h1.63v.55h-.74v.66h1v.57h-1Zm-1.24-.1a5.89,5.89,0,0,0-.29-1.27l.45-.13a5.5,5.5,0,0,1,.31,1.26Zm2.29-1.24a.17.17,0,0,1-.16.07,8.49,8.49,0,0,1-.35,1.08l-.4-.16a10.34,10.34,0,0,0,.3-1.19Zm3.72-.23H88.55A3.75,3.75,0,0,0,90,9.57a2.3,2.3,0,0,0-.44.53,4.14,4.14,0,0,1-1.45-2.21,3.92,3.92,0,0,1-1.88,2.19,2.61,2.61,0,0,0-.45-.5,3.26,3.26,0,0,0,1.84-2.29H86.23V6.68h1.51q0-.42,0-.81v-.4h-.69a4.52,4.52,0,0,1-.41,1,2.72,2.72,0,0,0-.51-.28,7,7,0,0,0,.64-2.33l.72.17s-.06.08-.15.08c0,.24-.08.48-.13.73h.53V3.56l.81,0c0,.06-.06.1-.16.12V4.85h1.25v.62H88.42v.4a7.57,7.57,0,0,1,0,.81h1.56Z" fill="#231916"/><path d="M95.67,4.52a.24.24,0,0,1-.12.1A11.09,11.09,0,0,1,94.21,7a27.09,27.09,0,0,1,2.44,2.25L96,9.75a20.83,20.83,0,0,0-2.27-2.24,11,11,0,0,1-2.57,2.24,3.68,3.68,0,0,0-.51-.54,9.48,9.48,0,0,0,3.92-4.3H91.33V4.25H95l.12,0Z" fill="#231916"/><path d="M99.22,6.92A6,6,0,0,1,98,9l-.58-.36a4.87,4.87,0,0,0,1.21-1.91Zm1.51-1V8.94c0,.93-.71.92-1.75.91a3.44,3.44,0,0,0-.2-.65l.67,0c.43,0,.57,0,.57-.27V5.89H97.74V5.23H100V3.82l.9,0a.21.21,0,0,1-.19.16V5.23H103v.66Zm1.24.74a13.28,13.28,0,0,1,1.41,2l-.62.37a11.91,11.91,0,0,0-1.35-2.05Zm.86-3.22a.77.77,0,1,1-.77.77A.77.77,0,0,1,102.83,3.41Zm.52.77a.53.53,0,0,0-1,0,.53.53,0,0,0,.53.53A.52.52,0,0,0,103.35,4.18Z" fill="#231916"/><path d="M104,6.36h5.82v.7h-5.54a.33.33,0,0,1-.23.12Z" fill="#231916"/><path d="M111.29,4.59A8.27,8.27,0,0,1,112,6.44l-.65.2a8.65,8.65,0,0,0-.65-1.84Zm5.15.16a.21.21,0,0,1-.2.1,6.87,6.87,0,0,1-4.06,4.9,3.71,3.71,0,0,0-.46-.53c2.1-.89,3.19-2.23,3.83-4.76Zm-2.94-.53a11,11,0,0,1,.34,2l-.7.1a12,12,0,0,0-.33-2Z" fill="#231916"/><path d="M122.46,5.15a.45.45,0,0,1-.13.11,7.29,7.29,0,0,1-3.79,4.65,2.55,2.55,0,0,0-.51-.54,6.18,6.18,0,0,0,3.41-3.86h-2.26a7.2,7.2,0,0,1-1.52,1.66,3.73,3.73,0,0,0-.57-.44,7,7,0,0,0,2.21-3l.89.22c0,.07-.11.1-.21.1-.13.28-.27.55-.41.8h2.22l.1,0Z" fill="#231916"/><path d="M129,6a.23.23,0,0,1-.12.09,4.83,4.83,0,0,1-3.8,3.73,3.15,3.15,0,0,0-.42-.56,4.14,4.14,0,0,0,3.37-2.83h-4.41V5.82h4.71l.08-.05Zm-.72-1.35h-4V4h4Z" fill="#231916"/><path d="M134.28,3.59a5.33,5.33,0,0,1,.85,1l-.16.12.33.16a.29.29,0,0,1-.12.1,6.18,6.18,0,0,1-4.14,5,4.46,4.46,0,0,0-.47-.57,5.2,5.2,0,0,0,3.73-4.07h-4.24V4.62h4.5l.06,0a7.19,7.19,0,0,0-.66-.75Zm1.52,1a5.29,5.29,0,0,0-.83-1l.33-.26a5.65,5.65,0,0,1,.84,1Z" fill="#231916"/><path d="M96.93,12.29h4.77V13h-2v3.1h2.55v.66H96.45v-.66h2.49V13h-2Z" fill="#231916"/><path d="M108.18,12.07a.23.23,0,0,1-.12.1,11.13,11.13,0,0,1-1.35,2.35,24.63,24.63,0,0,1,2.44,2.25l-.61.53a20.91,20.91,0,0,0-2.28-2.24,10.82,10.82,0,0,1-2.57,2.24,4.26,4.26,0,0,0-.51-.54,9.59,9.59,0,0,0,3.93-4.29h-3.28V11.8h3.66l.13,0Z" fill="#231916"/><path d="M111.72,14.47a6,6,0,0,1-1.26,2l-.58-.36a4.76,4.76,0,0,0,1.21-1.91Zm1.51-1v3c0,.93-.71.92-1.75.91a3.44,3.44,0,0,0-.2-.65l.67,0c.43,0,.57,0,.57-.27V13.44h-2.28v-.66h2.28V11.37l.9,0a.21.21,0,0,1-.19.16v1.21h2.27v.66Zm1.25.74a13.57,13.57,0,0,1,1.41,2l-.63.36a11.91,11.91,0,0,0-1.35-2Zm.85-3.22a.77.77,0,0,1,0,1.54.77.77,0,1,1,0-1.54Zm.52.77a.52.52,0,0,0-.52-.52.52.52,0,0,0-.52.52.52.52,0,1,0,1,0Z" fill="#231916"/></g></g></svg>