<svg id="Layer_1" data-name="Layer 1" xmlns="http://www.w3.org/2000/svg" viewBox="0 0 414.59 64.36"><defs><style>.cls-1{fill-rule:evenodd;}</style></defs><path class="cls-1" d="M1166.1,521.37c-5.71,10.35-15.23,19.78-25.81,23.14-3.91,1.24-5.39-4-1.37-5,9-2.35,18.34-11.87,23-20.89C1163.38,515.8,1168.12,517.73,1166.1,521.37Zm-23,4.14a17,17,0,0,0-6.81-3.41c-2.76-.64-1.43-5.29,1.89-4.32,2.43.69,5.88,1.93,8.09,4,1.78,1.12,1.34,2.3.6,3.36A2.44,2.44,0,0,1,1143.14,525.51Zm-27.49,17.94c-3.58.18-9.56.23-13,.23a2,2,0,1,1,0-4c3.59.13,10.21.13,12.7,0,.82,0,2-.51,1.51-1.14,0-.93.1-1.94.1-3-4.37.1-10,.14-13,.1a2.13,2.13,0,0,1-2.21-1.8c-.05-1,.83-1.84,2.35-1.84,3.12,0,9.52-.18,12.83-.18,0-.92,0-1.66,0-2.17.49-1-.69-1.38-1.7-1.42-2.94-.09-8.55.53-12,.27-3,.14-3.12-3.68-.13-3.81,3.72-.14,9.93-.23,13.29-.14s4.65,2.07,4.65,4.6c0,2,0,6.85,0,9.84C1120.81,542.48,1118.23,544.1,1115.65,543.45Zm-53.64,2.3c-3.64,1.2-5.16-3.77-1.52-4.74,9.15-2.48,19.37-12.61,24.2-21.52,1.52-3.09,6.12-.66,4.85,2.43C1082.89,532.45,1072.45,543,1062,545.75Zm5.33-22.64c-1.42-1.47-3.26-2-5-3.54-1.83-1.06-.78-5.15,2.35-3.77a61.83,61.83,0,0,1,7,3.82c.39,1.1.2,3.23-.63,3.59A2.45,2.45,0,0,1,1067.34,523.11Zm-1.79,7.41A2.85,2.85,0,0,1,1062,532c-1.7-1.82-3.82-2.24-5.71-3.06-2.76-.46-1.88-4.83,2.16-4.19a28.69,28.69,0,0,1,6,2.3A2.49,2.49,0,0,1,1065.55,530.52Zm-24.13-.74h-28.89a2.21,2.21,0,0,1-2.44-2.2c0-1.15.88-1.56,2.44-1.56h28.89c1.57,0,3,.36,3,1.51S1043,529.78,1041.42,529.78Zm-29.52,24.66c1.31,0,3.06,0,4.31,0s2.46,0,4,0,1.52,1,1.52,2,0,2.21-2,2.27c-1.24,0-2.6,0-3.69,0-1.57,0-2.87,0-4,0-2-.06-2.06-1-2.06-2.21S1010,554.46,1011.9,554.44Zm.63,3.2a18.65,18.65,0,0,0,3.63.2c3.35,0,3.45,0,4.24-1-.43-.08-.23-.18-.23-.28,0-.54-.6-.66-1.2-.66-.94,0-2.1,0-3,0-1.37,0-2.51,0-3.45,0a3.39,3.39,0,0,1-.16.68C1012.35,557.2,1012,557.64,1012.53,557.64Zm-.95,2c1.09,0,2.37,0,3.69,0,1.64,0,3.32,0,4.8,0a2,2,0,0,1,2.14,1.54c0,.72.06,1.52.06,2.34,0,1,0,2.08-.06,3a2.51,2.51,0,0,1-2.24,2.15c-.38,0-.76.2-1.16.2,1.38.15,3.08.61,4.36.69s.9.46.9.92a1.1,1.1,0,0,1-1.12,1.12,15.64,15.64,0,0,1-5.36-1.82c-.32-.18-.44.29-.44-.74,0-.26.12-.54.32,0a22.34,22.34,0,0,1-3.66-.2c.26-.37.44,0,.44.29a.8.8,0,0,1-.42.72,14.46,14.46,0,0,1-5.43,1.82c-.2,0-1.06-.5-1.06-1a1.09,1.09,0,0,1,1-1,25.82,25.82,0,0,0,4.86-1.09,12.72,12.72,0,0,1-1.52-.2c-1.46-.25-2.24-1-2.28-2,0-.76-.06-1.7-.06-2.64a13.05,13.05,0,0,1,.06-1.82C1009.4,560.51,1010,559.65,1011.58,559.63Zm8.73,2.16c0-.46-.3-.74-1-.76-1.18,0-2.88,0-4.46,0-1,0-1.92,0-2.69,0s-1,.4-1,.78v.34h9.15Zm-9.13,4.26c0,.56.42.76,1,.78,1.14,0,2.68.06,4.16.06,1.08,0,2.12,0,3,0,.54,0,.92-.24,1-.78,0-.12,0-.24,0-.36h-9.15Zm0-1.6h9.23v-1.06h-9.23Zm-7.72-2.42c-1.08,0-4.84-3.23-7.06-5.71-.22-.24-.38-.36-.52-.36.06,0-.28.12-.48.36a26.63,26.63,0,0,1-6.42,6,1.5,1.5,0,0,1-.84.28,1,1,0,0,1-.46-2A21.63,21.63,0,0,0,994,555a2.32,2.32,0,0,1,1.94-1,2.59,2.59,0,0,1,1.68,1,23.63,23.63,0,0,0,6.48,5,.94.94,0,0,1,.54.86A1.21,1.21,0,0,1,1003.42,562ZM979.8,542.39c-3.18,1.52-7.28.6-7.14-4.28.14-5.24.23-16.42.58-19.5-.62-3.55,4.25-3.18,4.34-.1.1,3.27,0,13.57-.18,17.07,0,1.29,1.15,1.75,2.25,1.15a43.81,43.81,0,0,0,16.61-15.18,2.51,2.51,0,1,1,4.24,2.67C996.81,530,987.48,538.53,979.8,542.39Zm3.27,20.12c0,.48-.1,1-1,1H969.48c-.13,0-1.06-.48-1.06-1a1,1,0,0,1,1.06-1h12.57C983,561.51,983.07,562,983.07,562.51Zm-29.16,8c-1.64.5-2.38-1.48-.78-1.9,3.94-1.06,6.48-3.48,7.38-6,1-.54.1-.86-.66-.88-2,0-5.76,0-7.9.1a1,1,0,1,1-.06-1.88c2.58-.06,5.94-.08,8.66-.06,2,0,3,1.14,3.05,3.1A15.46,15.46,0,0,1,953.91,570.47ZM960.27,558c-1.88,0-4.64.06-6.8,0-1.32,0-1.4-1.88.14-1.86,1.92,0,4.72,0,6.74,0a1,1,0,0,1,1.08.92C961.43,557.52,961.09,558,960.27,558Zm-5-15.77c-6.77-.23-16-.28-22,.13-2.71.19-3-4-.14-3.85,3.08-.33,7.59-.42,12.24-.42a30.06,30.06,0,0,1,2-6.12c-.46-.39-.46-1.11-1.51-1.11-1.94,0-4.3,0-7.66.09s-2.91-3.86-.76-3.95c4-.14,8.23-.05,10.53,0a3.61,3.61,0,0,1,3.45,4.65,39.73,39.73,0,0,0-1.15,6.4c1.79,0,3.36,0,5.11.09C958.22,538.49,958,543,955.28,542.21ZM930,556.82a7,7,0,0,0-1.46-1.4c-.94-.56,0-1.62.88-.78.5-.12,1.42.78,1.8,1.1C931.9,556.68,930.56,557.69,930,556.82Zm-2.12,1.83c.1-.74-1.06-1.61-1.42-1.85-.92-.6.06-1.66.92-1.16a6.68,6.68,0,0,1,1.76,1.54C930.53,558.15,928.42,559.14,927.9,558.65ZM926.14,560c-.9.84-2,.6-3.12.92l.64,2c1.62-.46,3.22-.9,4.44-1.22,1.56-.4,1.82,1.7.58,1.78a36.88,36.88,0,0,1-4.48,1.2c.64,2,1.24,3.92,1.62,5.1.24.74-.18,1.26-.66,1.83-.48-.21-1.08,0-1.26-1.11-.32-.49-.88-3.2-1.52-4.9a20.67,20.67,0,0,0-4.74,1.12c-1.32.44-1.73-1.42-.42-1.88,1.16-.36,2.84-.88,4.62-1.4-.22-.7-.44-1.38-.64-2-1.24.34-2.09.66-3.4.9-1.54.34-1.92-1.48-.6-1.78,1.1-.24,2.26-.54,3.44-.86-.4-1.28-.76-2.39-1-3.13-.46-1.16,1.58-1.66,1.9-.56.58.72.56,1.84,1,3.17a31.94,31.94,0,0,1,3.16-.77C927,557.8,927.36,559.63,926.14,560Zm-14.69-14.58a34.92,34.92,0,0,0-7.36-4.56,29.43,29.43,0,0,0-6.49-2.38c-2-1.3-1.57-5.58,2.07-4.56s11.14,3.58,15.63,6.94a3.81,3.81,0,0,1-.08,4.19A2.57,2.57,0,0,1,911.45,545.43Zm-11.14-22.59a29.11,29.11,0,0,1,9.07,2.85,2.65,2.65,0,0,1,1.15,3.63,2.38,2.38,0,0,1-3.55.79,10.62,10.62,0,0,0-7.63-2.11C896.29,526.61,897.32,522.38,900.31,522.84Zm9.62-2.76c-3.08-1.61-7.45-2.38-10.58-3.22-3.22-.42-2-4.88,1.65-4.33a36.4,36.4,0,0,1,10.68,2.85c1.75.83,3,2.49,1.61,3.64C913.52,520.17,911.45,520.86,909.93,520.08Zm-14.77,52c0-.53-.16-.33-.27-.33-.89,0-6-2.92-6-9.26s5.08-8.63,5.72-8.63c.34,0,.56-.3.56,0a.56.56,0,0,1-.34.5,9.36,9.36,0,0,0,0,16.49C895.06,570.91,895.16,571.11,895.16,572.06Zm-38-26.31C853.48,547,852,542,855.59,541c9.58-2.48,19.37-12.61,25-21.52.7-3.09,5.3-.66,3.28,2.43C878,532.45,867.55,543,857.11,545.75Zm5.34-22.64c-1.43-1.47-3.27-2-5-3.54-2.62-1.06-.78-5.15,3.06-3.77a52.43,52.43,0,0,1,5.41,3.82c1.24,1.1,1.06,3.23.23,3.59A2.45,2.45,0,0,1,862.45,523.11Zm-1.8,7.41a2.85,2.85,0,0,1-3.54,1.5c-1.7-1.82-3.82-2.24-5.7-3.06-2.77-.46-1.89-4.83,1.47-4.19a23.13,23.13,0,0,1,6.71,2.3A2.48,2.48,0,0,1,860.65,530.52Zm-45.37,8.93a2.34,2.34,0,0,1-2.3,2.16c-.6,0-.41-.28-1.52-1-.48-1.66-1.51-2.4-1.8-3.73-1.14-.28-1.23-.16-1.23-.87,0-1,1.19-1.8,2.55-1.8C813.4,534.2,815.28,538.49,815.28,539.45Zm22.91-13.12c-2.39,0-11.22-7.4-16.28-12.65-.51-1-1-1.19-1.38-1.19s-.92.27-1.29,1.19A75.2,75.2,0,0,1,812,521a3.93,3.93,0,0,1,1.24-.37h14.81a2,2,0,0,1,2.07,2,1.93,1.93,0,0,1-2.07,2h-5.43v4h11.18a2,2,0,0,1,2.07,2,1.93,1.93,0,0,1-2.07,2H822.64v10.07h1.61a25.62,25.62,0,0,0,3-7.08,1.94,1.94,0,0,1,2-1.47c1.24,0,3.05.92,3.05,2.16s-3,5.06-3.65,6.08l9-.1a1.89,1.89,0,0,1,1.93,2,1.87,1.87,0,0,1-1.93,2H803.6a2,2,0,1,1,0-4l14.63.41V532.45h-11a2,2,0,0,1-2.12-2,2,2,0,0,1,2.12-2h11v-4h-5a2,2,0,0,1-1.7-3.17c-6.72,6.07-8.42,6.3-9.07,6.3a2.71,2.71,0,0,1-2.44-1.46c0-1.67.42-2.45,1.43-2.7,5.34-3,11.13-8.68,14.63-12.74a4.62,4.62,0,0,1,4.1-2.65,5.24,5.24,0,0,1,4.37,2.65,64.62,64.62,0,0,0,15,11.06c.87,1,1.24,1.15,1.24,1.88A2.64,2.64,0,0,1,838.19,526.33Zm-50.08,8.06.1,12.16c0,.9-1.11,1.5-2.21,1.5s-1.41-.6-1.41-1.5l-.71-11-11.69,3.27a2.15,2.15,0,0,1-.73.09,1.92,1.92,0,0,1-1.93-2c0-.83.5-.91,1.56-2l12.79-3.54.71-21.76c0-1.33.26-2,1.36-2a2.09,2.09,0,0,1,2.26,2l-.1,20.76,4.28-1.39A3.26,3.26,0,0,1,793,529a2,2,0,0,1,2,2.07,1.88,1.88,0,0,1-1.47,1.84Zm-13.52-12.24c1.79,0,5,2,5.79,2.71a2.45,2.45,0,0,1,.92,1.89,2.19,2.19,0,0,1-2,2.25,2.13,2.13,0,0,1-1.43-.6,24.89,24.89,0,0,0-4.5-2.89,1.67,1.67,0,0,1-1.06-1.48A2.16,2.16,0,0,1,774.59,522.15Zm5.1-2.3a2,2,0,0,1-1.51-.78,18.3,18.3,0,0,0-4.24-3.36,1.44,1.44,0,0,1-.83-1.29,2.23,2.23,0,0,1,2.26-2c1.56,0,5,2.62,5.7,3.36.51.55,1.28,1.15,1.28,1.75C782.35,518.74,780.84,519.85,779.69,519.85Zm-8.19,4.23a1.87,1.87,0,0,1-1.84,2h0L764.7,526v3.15c.27-1,.59-1,.92-1,1.29,0,5.33,2.95,5.33,4.69a2.26,2.26,0,0,1-2.11,2.21c-.51,0-.35-.23-1.48-.78a9.19,9.19,0,0,0-2.66-2.64c.42,6.41.23,15.44.23,15.44v-.65a2,2,0,0,1-2,2,2.13,2.13,0,0,1-2.37-2V547l.18-14.55c-4.18,7.17-5.7,7.13-6.44,7.13a2.22,2.22,0,0,1-2.25-2.07c0-.5.23-1,1.51-1.47a69.66,69.66,0,0,0,7.18-9.94V526l-5.2.09h0a1.8,1.8,0,0,1-2-1.84,2,2,0,0,1,2-2.07h5.16l-.14-12.38v0a2.11,2.11,0,0,1,2.37-2,2,2,0,0,1,2,2v0a48.24,48.24,0,0,0,.65,8.28c-.75-.13-.65-.27-.56-.41,1.22-1.06,2-3,2.62-4.46a1.55,1.55,0,0,1,1.47-1,2.19,2.19,0,0,1,2.16,2c0,.87-1.84,3.63-3.35,5.38-.42.46-.92,1-1.43,1-.25,0-1.43-.76-.91-1.41l-.46,2.95h4.5A1.84,1.84,0,0,1,771.5,524.08Zm-13.38-3.86a1.64,1.64,0,0,1-1.52-1.06,19.66,19.66,0,0,0-2.49-4.1,1.44,1.44,0,0,1-.31-1,1.94,1.94,0,0,1,2.06-1.71c2.07,0,4.37,4.6,4.37,5.66A2.15,2.15,0,0,1,758.12,520.22Zm141,38.4c-.06-1.54,2.06-1.18,2.1,0,0,1.42,0,5.9-.08,7.42,0,.56.5.76,1,.5a20.29,20.29,0,0,0,7.22-6.6,1.09,1.09,0,1,1,1.84,1.16c-1.6,2.5-5.66,6.79-9,7.9a2,2,0,0,1-3.06-1.86C899.13,564.83,899.17,560,899.11,558.62Zm36,8.55c1.34,0,3.31-.08,5.33-.08.24-.9.52-2,.62-2.66.06-.3,0-.48-.4-.48-.84,0-2.2,0-3.52,0s-1.31-.94-.14-1.34a7.55,7.55,0,0,1,4.58.2c1.3-.5,1.72.8,1.5,2.2a17.65,17.65,0,0,0-.72,2c.86,0,1.68,0,2.44,0,1.24,0,1.14,1.8.65,1.76-3.63-.1-7.63-.12-10.28.06A.89.89,0,1,1,935.13,567.17Zm57.93-5.52c-.62,0-.94-.82-.94-1.28a.89.89,0,0,1,.94-.9h5.74c.62,0,1.33.46,1.33.9a1.63,1.63,0,0,1-1.33,1.28Zm-4.56,2.48a.91.91,0,0,1,.94-.94h12.7c1.39,0,1,.46,1,.92s.43.88-1,.88l-6.8,0a32.89,32.89,0,0,1-1.46,3.9,37.87,37.87,0,0,1,5.4-.23,4.32,4.32,0,0,0-1.46-1.55.81.81,0,0,1-.42-.68.91.91,0,0,1,.94-.82c1.18,0,4.78,3.34,4.78,4.52a1.14,1.14,0,0,1-1.12,1.08.91.91,0,0,1-.82-.54c-.2,0,.15-.7-.66-1A92.48,92.48,0,0,1,990.31,571c-1.15,0-1.47-.52-1.47-1a.84.84,0,0,1,.82-.9c.7,0,1.42,0,2.14-.08a13.38,13.38,0,0,0,1.42-4l-3.78,0A.85.85,0,0,1,988.5,564.13Zm39-10.31c0-.28.7,0,.56,0,.94,0,5.72,2.32,5.72,8.63s-5.12,9.26-5.84,9.26c-.28,0-.44-.2-.44.33,0-.95.1-1.15.32-1.25,3.26-1.72,5.79-5,5.79-8.34,0-3-2.47-6.47-5.77-8.15A.56.56,0,0,1,1027.53,553.82Z" transform="translate(-752 -507.7)"/></svg>