<svg xmlns="http://www.w3.org/2000/svg" width="477.55" height="64.43" viewBox="0 0 477.55 64.43"><g id="bdf7def0-b044-4c35-9561-5bbab790b324" data-name="Layer 2"><g id="aff7cfcb-506f-4fb1-b1e1-6ab50619da6c" data-name="レイヤー 1"><path d="M474.33,14.49l-12.67-.07c4.27,1.75,11.83,7.15,11.83,10.08,0,1.89-1.47,3.43-2.39,3.43a4,4,0,0,1-3.63-1.61,21.87,21.87,0,0,0-3-3.22A313.5,313.5,0,0,1,426.93,27a3.21,3.21,0,0,1-3.5-3,2.84,2.84,0,0,1,3-3.05c2.87,0,5.88.64,9.62-.21,0-1.54.88-4.2,1.58-6.3l-14.77.07a3.05,3.05,0,0,1-3.22-3.08c0-.76,1.12-3.08,3.22-3.08l21.91.14V4.2A3.37,3.37,0,0,1,448.42.91c2.46,0,3.65,1.12,3.65,3.29V8.47l22.26-.14a3.54,3.54,0,0,1,3.22,3.08A3,3,0,0,1,474.33,14.49Zm-16.45,4.06a2.26,2.26,0,0,1-1.41-2c0-.84.5-1.23,1.34-2.24H445.06c-.49,1.4-1.75,4-2,6,4.8-.35,10.26-.84,15.52-1.4C458.3,19.27,458.09,18.69,457.88,18.55Zm-48.6,39.77c-3.87,0-13.75-10.36-17.18-14.63.77,4.41.28,8.68.28,14.07v2.59A3.12,3.12,0,0,1,389,63.43a3,3,0,0,1-3.22-3.08V57.76c0-5.32.14-9.8.28-13.56a64,64,0,0,1-13.93,14.26,4.08,4.08,0,0,1-2.31.84,3.46,3.46,0,0,1-3.5-3.22A3.08,3.08,0,0,1,368,53.56c6.83-4.06,11.34-8.89,15.61-15.19l-11.9.28h-.07a2.67,2.67,0,0,1-2.94-2.73c0-1.55,1.05-2.63,3-2.63l14.14-.39V29.68a4.24,4.24,0,0,1,.84-2c-2-.07-3.85-.14-4.7-.21-7.83-.49-7.83-5.32-7.83-10.43,0-6.36.83-12.32,7.77-12.67,1.61-.07,4.27-.14,6.93-.14,3.29,0,6.51.07,9,.14A7.14,7.14,0,0,1,405,11.46c.14,2.3.39,3.9.39,6.2,0,7.68-.79,10.06-13.84,10.06a4,4,0,0,1,.84,2V32.9l15.55.39c1.89,0,2.87,1,2.87,2.49a2.77,2.77,0,0,1-2.8,2.87h-.07l-13.45-.28c4.9,5.74,10.86,10.15,16.67,14.34,1.19-.13,1.68.92,1.68,2A3.69,3.69,0,0,1,409.28,58.32ZM398.41,18.76c0-4.2,0-5.32-.07-5.7-.21-3-1.06-3.05-9-3.05-1.92,0-4.27.07-5.88.14-2.94.07-2.94,1.89-2.94,7s.21,4.83,9,4.83C396.44,22,398.41,22,398.41,18.76ZM365.78,60.42a3.34,3.34,0,0,1-3.64,3.15c-1.75,0-3.43-1-3.43-3v-.14l1-31.84c-4.76,5-6.72,5.93-8.19,5.93a3,3,0,0,1-3-3.15c0-.84.06-1.75.9-2A63.17,63.17,0,0,0,366.13,5.25c.63-2,1.89-2.66,3.15-2.66a3.77,3.77,0,0,1,3.85,3.5c0,1.54-3.57,8.05-6.58,12.46Zm-26.68-38H284.78a2.7,2.7,0,1,1,0-5.39l15.54.07a16.1,16.1,0,0,0-1.4-2.45c-.21-.42-.35-.07-.35-1.05a1.4,1.4,0,0,1,1.54-1.32l-9.73-.36a2.63,2.63,0,0,1-2.81-2.73,2.93,2.93,0,0,1,2.81-2.66H308.7V3.29A3,3,0,0,1,311.87,0a3.37,3.37,0,0,1,3.64,3.29v.07l-.07,3.15H333.5a3,3,0,0,1,2.87,2.66,2.68,2.68,0,0,1-2.87,2.73l-10.71.36a1.76,1.76,0,0,1,1.61,1.81c0,.28,0,.56-1.12,3L339.1,17a2.7,2.7,0,1,1,0,5.39ZM303.61,12.26c1.26,0,2.94,2.79,3.5,4.82h9.66A13.73,13.73,0,0,0,318.1,13c.07-.49.28-.84.56-.69ZM269.4,45l-18.76-.26a23.28,23.28,0,0,1,.21,3.36c0,6-2.94,15.54-15.12,15.54-4.63,0-8.4-1.47-8.4-4.2a3.24,3.24,0,0,1,3.29-3.29,3.27,3.27,0,0,1,1.12.14,15.58,15.58,0,0,0,4.62.77c8.07,0,8.07-9.38,8.07-9.94a13,13,0,0,0-.44-2.38l-29.68,1c-2.17,0-3.22-2.36-3.22-3.8a3.44,3.44,0,0,1,3.7-3.32l25.35.14a11.83,11.83,0,0,0-2.8-1.48c-1.47-.48-1.53-.85-1.53-2.3A2.92,2.92,0,0,1,239,32a8.69,8.69,0,0,1,4.13,1.41c1.82-1.19,5.53-3.79,5.53-4.63,0-.28-.28-.42-.77-.42-.77-.07-2.1-.07-3.71-.07-4.48,0-11.27.14-16.17.35h-.14a2.92,2.92,0,0,1-3.15-2.94c0-1.4,1.05-2.52,3.22-2.94,3-.14,6.79-.14,10.5-.14,5.11,0,10.22.07,13.44.14,4,.42,5.67,2.73,5.67,4.27,0,3.43-3.71,6.31-10,10.22a6.53,6.53,0,0,1,1,1.48l20.86-.21A3.25,3.25,0,0,1,269.4,45Zm-3.71-15.74c-1.82,0-3.34-1-3.34-2.94v-4c0-2.94-1.7-3.43-4.57-3.06-5-.51-11.9-.58-18-.58a125.93,125.93,0,0,0-14.21.58c-3.85-.37-4.48,1.5-4.69,3.06v4.13c0,2-1.75,3.08-3.57,3.08A3.17,3.17,0,0,1,214,26.39c0-.91-.07-2-.07-3.08s.07-2.38.07-2.54c.14-4.18,2.73-7.54,8.19-7.61l5.88-.07c-.35.67-.63-.56-.91-1-1.47-2.45-3-3.36-4.53-5-1-.56-1.28-.32-1.28-1.82s1.75-3,3.57-3c2.66,0,8.12,5.32,8.12,7.77a3.78,3.78,0,0,1-2,3.08c6.16-.07,12.65-.07,18.41-.07a24.63,24.63,0,0,0,5-9.24,3.89,3.89,0,0,1,3.15-2.24c2,0,4,1.47,4,3.43,0,1.33-1.55,4.76-5.11,8.12,1.61,0,3.29.07,4.9.07,4.13.07,8.78,2.31,8.12,6.91.07,1.61.07,2.19.07,3.52,0,1,0,1.89-.07,2.59C270.06,28.21,267.44,29.26,265.69,29.26ZM242.38,12.74A2.48,2.48,0,0,1,240,11.06c-1-2.59-2.52-4.13-4.13-6-.42-.49-.06-1-.06-1.54a2.8,2.8,0,0,1,3-2.73c3.57,0,7.92,6.86,7.92,8.47C246.73,11.13,244.43,12.74,242.38,12.74ZM177.92,58.18c-6.16,2-8.33-5.46-2.31-6.86,5.32-1.19,10.71-4.2,13-7.84,5-7.84,3.08-17-3.85-21.43a18.19,18.19,0,0,0-8.69-2.8,3.5,3.5,0,0,1,1,3.22c-1.12,8.89-7.42,22.13-14.14,28.74-5.39,4.71-11.27,1.86-14.35-4.16-4-8.68.28-21.71,10.34-27.78,7.93-5.51,20.74-7.37,29.57-2.05,10.85,6.51,12.6,19.4,6.51,29.41C191.72,52,184.85,56.36,177.92,58.18ZM161.54,24c-6.51,5.4-10,14.17-7.07,19.57,1.05,2,2.87,3.08,4.62,1.54,5.25-4.62,10.76-15.75,10.85-23.32.07-.84.71-1.61.63-2.17A22.74,22.74,0,0,0,161.54,24Zm-68,22.44a2.14,2.14,0,0,1-2.29-2.1A2.51,2.51,0,0,1,91.61,43a27.15,27.15,0,0,0,2.09-5,2.09,2.09,0,0,1,2.1-1.87,2.64,2.64,0,0,1,2.74,2.46c0,1.89-2.88,6.65-3,6.86C95,46.14,95.08,46.42,93.56,46.42ZM77.74,37c.7,0,1.81.22,2,.78.84.84,4.13,5.88,4.13,8.68a3,3,0,0,1-3.15,3.29,2.35,2.35,0,0,1-2.38-2,28.51,28.51,0,0,0-3.29-7,1.72,1.72,0,0,1-.42-1.33C74.59,38,76.45,37,77.74,37Zm54.61,25.63c-4.27,0-11.9-10-15.4-20.09-5.39,15-16,20.58-18.55,20.58A3.28,3.28,0,0,1,95,59.93a3.66,3.66,0,0,1,2.09-3c8.48-4.27,13.38-11.92,15.2-20.87l-10.64.28h-.14c-2,0-2.94-.75-2.94-3V32.9a2.4,2.4,0,0,1-2.1,1l-5.89.2V50.27c2.25-.84,4.21-1.68,6.1-2.59a5.52,5.52,0,0,1,1.4-.35,2.87,2.87,0,0,1,2.8,2.87,3.27,3.27,0,0,1-2,2.8c-12,6-20.94,7.49-22.2,7.49-2.24,0-3.36-.77-3.36-3.15A3.05,3.05,0,0,1,76,54.26a86.7,86.7,0,0,0,8.61-2V34.09L77,33.89c-1.89,0-2.2-1.27-2.2-2.6s.81-2.8,2.2-2.8H84.6v-5H81.87a2.76,2.76,0,0,1-2.38-1.05c-1.12,1.68-1.54,3-3.5,3-1.15,0-3.36-1.89-3.36-3.5,0-.7.28-1.4.91-1.21A135.52,135.52,0,0,0,82.29,7.48c1.19-3.14,3.15-4.4,5.18-4.4s4.07,1.19,5.61,3.64A94.28,94.28,0,0,0,100,16a2.55,2.55,0,0,1,.7,1.75,3.48,3.48,0,0,1-3.36,3.15c-.42,0-.77.64-.67-.21v.85c0,.62-1.37,1.95-3.12,1.95H90.62v5h5.89c2.47,0,2.66,1.69,2.66,2.73v.29a3.52,3.52,0,0,1,2.52-1.27l11.34.07a19.58,19.58,0,0,0,.07-2c0-2.1.07-4.83.07-7.77h-4.69c-2.73,7.63-4.41,7.77-5.88,7.77-1.68,0-3.22-1.05-3.22-2.59a3,3,0,0,1,.49-1.61,41.16,41.16,0,0,0,5.25-15.82A2.85,2.85,0,0,1,108.06,6a3.22,3.22,0,0,1,3.43,3,40.58,40.58,0,0,1-1.19,5.67h2.87c0-3.71-.07-7.21-.14-9.52V5c0-1.32,1.68-2.83,3.36-2.83s3.5.8,3.5,3v9.52l9-.07a2.84,2.84,0,0,1,2.94,3,2.88,2.88,0,0,1-2.94,3l-9.1-.07c0,2.87,0,5.46-.07,8.07,0,.05-.07.89-.14,1.73l11.83-.07a2.9,2.9,0,0,1,2.87,3.09c0,2.25-.91,3-2.8,3h-.07l-10.78-.21c1.89,7.43,7.21,15.55,13.79,19.89a4.25,4.25,0,0,1,1.68,3.71C136.13,60.77,134.52,62.59,132.35,62.59ZM93.77,18.13c-2-2.73-4.13-6.37-5.25-8-.14-.13-.35-.42-.56-.42s-.35.29-.49.42a58.75,58.75,0,0,1-4.83,8ZM59.16,62c-4.41.42-10.85,1.6-17.22,1.6-15.2,0-20.94-2.58-27.52-9.37-3.5,3.92-7.84,8.33-10.57,8.33-2,0-3.85-1.82-3.85-2.87,0-1.82.49-2.8,1.75-3.5a33.5,33.5,0,0,0,9.38-7.28c.32-3,1-5.88,1-8.54V37.53c0-1.82-1.72-2-4.1-2H5.32c-1.33,0-3.85-.07-3.85-3a3,3,0,0,1,2.94-3.15c2.52,0,4.48,0,7,.06,4.23.14,6.33,2.11,6.33,6.59,0,4.06-.14,9.71-.14,13.37C22.05,55,30.06,56.43,39,56.43c7,0,14.64-.77,20-1.19h.35A3.4,3.4,0,1,1,59.16,62Zm-2.52-8.75c-2.1,0-11.55-4-16.66-10.5l.07,10.3c0,1.25-1.47,2-2.87,2s-2.41-.77-2.41-2l-.39-9.88c-5.75,4.69-11.21,7.21-12.33,7.21-1.75,0-2.08-1.75-2.08-3.29,0-1-.37-1.89.75-2.12a49.94,49.94,0,0,0,12.55-7c-9.33,0-9.89-1.62-9.89-6.51,0-7.22,1.05-7.29,15.75-7.29s15.48.14,15.48,6.93c0,6-.63,6.93-12.53,6.93,2,1.55,2.66,2.88,4.2,4.07a24.5,24.5,0,0,0,6.23-3.78,3.69,3.69,0,0,1,2.5-.63A3,3,0,0,1,57.4,40.4c0,1.54-2.09,2.94-5.5,4.76a21.08,21.08,0,0,0,5.93,2.52,2.34,2.34,0,0,1,1.68,2.38A3.1,3.1,0,0,1,56.64,53.28ZM48.52,31.15c0-1.89.27-2.23-2.1-2.23a49.75,49.75,0,0,1-8.75.46c-7.08,0-8.06,0-8.13.58v2.32c0,1.18.77,1.32,10.16,1.32C48.45,33.6,48.52,33.53,48.52,31.15Zm8.12-10H22.36c-2.06,0-3-1.07-3-2.66,0-1.33.91-2.32,3-2.32L35.43,16V12.39l-10.58.07A2.58,2.58,0,0,1,22.05,10a2.64,2.64,0,0,1,2.8-2.81H35.43V4.62a3,3,0,0,1,3.15-3,2.94,2.94,0,0,1,3.22,3V7.14H53.91A2.64,2.64,0,0,1,56.71,10a2.58,2.58,0,0,1-2.8,2.51L41.8,12.39V16l14.84.2c1.89,0,2.8,1,2.8,2.32A2.48,2.48,0,0,1,56.64,21.14Zm-41.87-3a2.76,2.76,0,0,1-2.38-1.47,34.05,34.05,0,0,0-6.86-6.09A2.45,2.45,0,0,1,4.13,8.4c0-.85,1.68-3.15,3.57-3.15,2.1,0,10.85,5.39,10.85,9A4.09,4.09,0,0,1,14.77,18.13ZM285.13,56.62l23.59-.68v-3H291.15c-1.18,0-2.87-1.26-2.87-2.45S290,48,291.15,48h17.57V45.23c-3.43,0-6.72-.14-9.59-.21-5,.68-7.42-2.38-7.63-5.6-.07-1.4-.14-2.8-.14-4.14,0-1.61.07-3.15.14-4.62.14-2.59,2-5.39,7.42-5.46,3.71-.07,8.55-.14,12.95-.14,4.76,0,9.66.07,14,.14,4.13.07,7,2.68,7.14,5,.14,1.41.14,2.95.14,4.65,0,1.44,0,3-.14,4.46A6.3,6.3,0,0,1,325.52,45c-2.8.14-6.86.21-10.57.21V48h18a2.51,2.51,0,1,1,0,5H315v3l24,.68c1.89,0,2.87.58,2.87,1.91,0,2-1,2.66-2.87,2.66H285.13a2.53,2.53,0,0,1-2.81-2.66C282.32,57.2,283.76,56.62,285.13,56.62Zm23.59-26.94c-9.38,0-11.34,0-10.94,2.67v.55h10.94Zm0,7.63H297.78v.63c-.47,2,.79,2.53,3,2.6,2.38.07,5.11.07,8,.07Zm6.23,3.3c3.08,0,6.09-.07,8.75-.07,2.17,0,3.36-.85,3.36-2.6v-.63H315Zm0-7.71h12.11v-.62c-.14-2.52-1.33-2.6-12.11-2.6Zm124.21-4.48c2.4-.07,6.53-.14,10.59-.14,3.37,0,6.66.07,9.53.14,5.6.21,7.56,2.8,7.7,5.95s.07,9.32.14,12.12l.88,7.28v.14c0,4.13-3.12,9.38-12.3,9.38-4.76,0-7.42-.56-7.42-3.71A2.93,2.93,0,0,1,451,56.5a1.68,1.68,0,0,1,.56.07c1.47.85,2.94.49,4.28.49,2.66,0,4.62-.91,4.76-4,0-.85.07-1.48.07-2.18h-24v9.8c0,2-1.75,3.73-2.91,3.73-2.13,0-3.67-.8-3.67-3.66,0-.7.35-25.13.42-26.33C430.64,31.71,432.67,28.56,439.16,28.42Zm21.45,7.84c-.07-2.73-1.19-2.8-10.54-2.8-12.22,0-13.06,0-13.2,2.8v1.05h23.81Zm.14,9.81V42.15h-24c0,1.26-.07,2.59-.07,3.92Z" fill-rule="evenodd"/></g></g></svg>