<svg xmlns="http://www.w3.org/2000/svg" width="301.59" height="43.12" viewBox="0 0 301.59 43.12"><g id="b5976beb-bb42-4606-aa6d-61111c7be2af" data-name="Layer 2"><g id="a8d9b4fb-19ae-464c-a902-ba1de9fda215" data-name="レイヤー 1"><path d="M300.44,28c.05,2-.8,2.44-2.16,2.44-1,0-2-.69-2-1.34v-2c0-4-.37-12.37-.6-19.46V7.49A2.45,2.45,0,0,1,298.32,5,2.59,2.59,0,0,1,301,7.62c0,5.39-.6,15.37-.6,19.6Zm-2.07,5.34a3.06,3.06,0,0,1,3.22,3.27,3.12,3.12,0,0,1-3.22,3.13,3.24,3.24,0,0,1-3.22-3.13A3.21,3.21,0,0,1,298.37,33.34Zm-15.9-7c-1.35-3.68-3.23-7.22-5.72-8.92-2.21-1.52.28-4.92,3-2.85,3.27,2.43,6.44,6.76,6.9,11.12C287.06,28.65,282.5,29.57,282.47,26.39Zm-15.88,6.49c-2.95,4.78-7,4.47-9.62,1.61-3.31-3.59-4.83-8.92-5.2-14.72a41.8,41.8,0,0,1-.23-5.11c.09-2.9,4.56-3.49,4.69,0,.1,1.79-.09,1.88,0,4,.19,4.83,1.06,9.38,4.33,11.87.51,1.15,1.1,1.29,2.12-.09.55-.79,1.91-2,1.51-2.72,1.25-2.67,5.06-.73,4.19,2.55A16.33,16.33,0,0,0,266.59,32.88Zm-28-12.05c-2.58-.88-6.77-1.38-9.21-.46s-3.81-2.9-.78-4a17.06,17.06,0,0,1,11,.23C242.69,17.74,241.44,21.79,238.55,20.83Zm-17.16-5.48A181.17,181.17,0,0,1,213,38.49c-1.38,3.09-6.26,1.95-4.33-1.34,2-4.48,6.11-11.41,8.05-20.79a13.33,13.33,0,0,1-6.71-.64c-2.35-1-1.89-5.2,1.56-4,1.93.69,4.19.69,7.23.28-.6-.82-.79-2.94-.46-5-.65-2.62,3.67-2.11,4.13-.23a13.66,13.66,0,0,1,.05,3.68c.64-.32,1.2-.64,1.75-1,2.39-1.57,5.24,2.25,1.79,3.95A28.57,28.57,0,0,1,221.39,15.35ZM196,26.39c-.88-3.68-2.77-7.22-5.25-8.92-2.21-1.52.28-4.92,3-2.85,3.26,2.43,6.44,6.76,6.9,11.12C201,28.65,196.45,29.57,196,26.39Zm-15.42,6.49c-2.94,4.78-7,4.47-9.61,1.61-3.31-3.59-4.83-8.92-5.2-14.72a39.89,39.89,0,0,1-.23-5.11c.09-2.9,4.55-3.49,4.69,0,.09,1.79-.09,1.88,0,4,.19,4.83,1.06,9.38,3.86,11.87,1,1.15,1.57,1.29,2.58-.09a8.06,8.06,0,0,0,1.52-2.72c1.24-2.67,5.06-.73,4.19,2.55C182.55,30.63,181,32.05,180.53,32.88Zm-24.42,8.83c-2.86.28-7.09.79-11.32.79-10.72,0-14.08-1.8-18.08-5.89-2.3,2.57-5.15,5.47-6.95,5.47a2.6,2.6,0,0,1-2.53-2.44,2,2,0,0,1,1.15-1.74,15.48,15.48,0,0,0,6.17-4.79c0-2.07.09-3.17.09-5.61V25.61c0-1.19-.55-1-2.12-1h-1.79c-.32,0-2.53-.39-2.53-1.78a3.69,3.69,0,0,1,1.93-2.61,18.1,18.1,0,0,1,4.46.36c3-.22,4.33,1.07,4.33,4s.2,5.84.2,8.79c2.6,3.68,7.34,4.64,14.31,4.64,4,0,9-.5,12.54-.68h.23a2.08,2.08,0,0,1,2.21,2.11A2.24,2.24,0,0,1,156.11,41.71Zm-5.66-6.16c-1.52,0-3.32-.42-3.32-1.41,0-1.77.56-2.64,1.52-2.64a1.21,1.21,0,0,1,.42.05,3.52,3.52,0,0,0,1,.13c.74,0,1.29-.46,1.29-1.74V27.73h-4.73v6.48c0,1.2-1.38,1.8-2.5,1.8-.66,0-1.32-.6-1.32-1.8V27.73h-6.22c0,2.07,0,4.23,0,6.39v.05a1.82,1.82,0,0,1-2,1.84,1.94,1.94,0,0,1-2-1.89c0-2.71,0-5.38,0-8,0-3.54,0-6.95,0-10.12,0-2.81,1.51-4.19,4.73-4.19,1.25,0,2.44-.05,3.69-.05a10.18,10.18,0,0,0-1.66-.82c-.6-.23-.83-.18-.83-1.11a2.09,2.09,0,0,1,2-1.84c1,0,3.12,1.38,3.53,1.47.7-.46,4-2.11,4-2.43,0-.14-.43-.19-.71-.19-3.27,0-8.66.09-13.16.23h-.09a1.66,1.66,0,0,1-1.56-1c0-1.68.55-2.6,1.61-2.6,4.83-.13,10.49-.13,15-.13,2.81,0,4.37,1.33,4.37,2.8,0,1.29-1.15,2.76-6.9,5.57,7,0,8.56.23,8.56,6,0,7.94.05,9.66.19,12.14v.58C155.42,33.06,154.38,35.55,150.45,35.55ZM142.77,15c-5.76,0-6.17,0-6.17,1.52l0,1.61h6.22Zm0,6.69h-6.22c0,.63,0,1.73,0,2.88h6.26Zm8.46-5.17a1.42,1.42,0,0,0-1.57-1.47c-1.28-.05-2.57-.05-3.07-.05v3.13h4.68C151.27,17.56,151.23,17,151.23,16.55Zm.09,5.17h-4.73V24.6h4.78C151.37,23.54,151.32,22.39,151.32,21.72Zm-24.38-8.85a1.84,1.84,0,0,1-1.57-1c-1.19-1.84-3.22-3.26-3.84-4C120.22,7.53,120,7,120,6.47a2.35,2.35,0,0,1,2.34-2.07c1.38,0,7.13,3.55,7.13,6.36A2.67,2.67,0,0,1,126.94,12.87ZM103.37,34.49c3.87-1.47,5.25,4.45,1.15,5-2.74,1-11.31,1.93-15.87-.37C82,35.73,82.3,28.65,89.76,22.35c.46-.37.87-.74,1.33-.63a34.8,34.8,0,0,0-5.52-11.15c-2.39-2.95,2.12-5.43,4-2.81a46.91,46.91,0,0,1,5.38,10.72,87.72,87.72,0,0,1,8.1-5.06c3.12-1.75,5.52,2.67,2,4.46-4.69,2.71-9.43,5.06-13.06,8.15-4.56,3.86-4.69,7.31-.9,9.06C94,36.7,100.61,35.5,103.37,34.49ZM54.09,40.38c-3.63.6-4-3.82-.82-4.28,4.18-.6,7.36-1.65,9.66-3.86,2.76-2.44,3.19-4.72,1.51-6.54-2-2.25-5.25-2.2-8.15-1.33-3.76,1-6.75,2.85-9.88,4.28s-5-2.81-2-4a85,85,0,0,1,10.58-4c4.64-1,9.16-1,12.38,2.35,3.86,4,2.3,9.11-1.89,12.6C62.74,37.9,59.11,39.55,54.09,40.38ZM36.31,6.15c-.78-.78-2.16-2.76-3.36-3.26-2.16-1.29,0-3.52,2-2.72a15.41,15.41,0,0,1,4.19,3.41A1.9,1.9,0,0,1,36.31,6.15ZM30.7,8.82a15.52,15.52,0,0,0-3.22-3.31c-2.12-1.38.09-3.82,2.07-2.67A15.43,15.43,0,0,1,33.6,6.38C35,8.59,31.9,10.84,30.7,8.82Zm-7,1.79c1.33-.09,2.53-.13,3.54-.13,2.25,0,3.86-.05,7,0,3.87.09,3.68,5,0,4.69A68.66,68.66,0,0,0,27,14.85c-1.06,0-1.58,0-3.36.09.05,1.47.09,2.9.09,4.23a8.81,8.81,0,0,0,1,2.62C28,28.23,23.11,38,18.23,41.9c-3.08,3.3-7.08-.83-3.08-3.68a16.29,16.29,0,0,0,5.24-6.77c-3,1.57-7,.69-7.68-3.45-2.44-4.46,0-7.77,2.85-8.64a9.12,9.12,0,0,1,4-.42c-.05-1-.09-2.39-.14-3.73-3.86.37-7.68.92-10.07,1.29C6,17,4.2,17.61,2.45,17.84c-3.08.55-3.32-4.05-.37-4.65,1.84-.32,4.83-.64,7.26-1,1.81-.36,5.95-.87,10-1.24v-.83c0-2.29-.23-3-.23-4.5,0-2.94,4.64-3,4.83-.14,0,1.06.38,3.17-.19,4.41C23.75,10.15,23.71,10.38,23.71,10.61ZM20.35,24c-.23-.28.41-.56-.74-.79A3,3,0,0,0,16.67,23c-1.11.51-1.52,1.93-1.34,3.5a2.74,2.74,0,0,0,5.29-.79C20.76,24.74,20.62,25.08,20.35,24ZM227.41,33c2.35,2.39,5.16,2.16,10.54,1.7a2.39,2.39,0,1,1,.6,4.74c-5.92,1.33-12.38-.78-14.4-3S225,30.58,227.41,33Z" fill="#fff" fill-rule="evenodd"/></g></g></svg>