<svg id="Layer_1" data-name="Layer 1" xmlns="http://www.w3.org/2000/svg" viewBox="0 0 260.3 40.63"><defs><style>.cls-1{fill-rule:evenodd;}</style></defs><path class="cls-1" d="M1089.74,528.17c-.27,1.22-1.29,1.71-4.51,1.52a11.45,11.45,0,0,0-6.85,1.95c-2.58.26-4.88,3-5.89,4.72-4,6.77-1,16.43,9.34,16.06,4.83-.18,5.11,5.24.23,5.2-13.2,0-18.68-12.79-13.67-22a19.4,19.4,0,0,0,1.48-2.39c.73-1,.5-.92-.37-.64-3.45,1.1-2.67,1.1-5.8,2.3-1.47.55-2.76,1-4.14,1.38-4,1.1-5.24-4.19-1.56-5,1-.23,3.63-.74,5.26-1.11,2.1-.55,6.1-1.47,10.79-2.8s8.51-2.44,12.56-2.72C1089.47,524.45,1090.25,526.7,1089.74,528.17Zm-46.86,15.46a13.49,13.49,0,0,0-5.11-8.92c-2.21-1.52.28-4.93,3-2.85,3.26,2.43,6.44,6.76,6.9,10.67C1048.08,545.89,1043.52,546.81,1042.88,543.63Zm-15.28,6.49c-2.94,4.78-7,4.37-9.61,1.61-3.32-3.59-4.21-8.93-5.2-13.83-.19-3.51-.28-4.34-.23-6,.09-2,4.79-3.5,4.69,0,.09,1.79.56,1.88,0,4,.19,4.83,1.06,9.38,3.64,11.87,1.19,1.15,1.79,1.29,2.8-.09a26.72,26.72,0,0,0,1.52-2.6c1.24-2.79,5.06-.85,4.19,1.54A12.48,12.48,0,0,1,1027.6,550.12Zm-45.67,6.16c-4.28,1.29-4.6-3.77-.92-4.87,5.8-.78,10.26-2.35,13.53-5.38,3.91-3.46,4.19-7.23,2.07-9.67-2.94-2.48-8.14-3.26-12.28-2a45,45,0,0,0-6.58,2.71c-2.07,1-4.14,2.07-6.4,3.13-3.72,1.7-5.7-2.28-2.16-4.6,4-1.5,9.34-4.14,14.31-5.38,5.24-1.34,12.24-1,16.47,3.13,5,5.2,4,11.78-2.53,16.47C993.71,552.88,988.74,555.13,981.93,556.28Zm-40.24-3.77a2.28,2.28,0,0,1,3.27-3.17c2.48,2.25,8,1.52,11.59.78s4,4.09.92,5.67C952.55,556.24,945,556.1,941.69,552.51ZM955,534a23.21,23.21,0,0,0-10.67.14c-2.54.64-4-3.45-.65-4.28a27.69,27.69,0,0,1,12.1-.28C959,530.38,958.39,534.71,955,534Zm-21,19.5c-.28,1.25.28,2.67-.44,3.68-1.58,1-3.29.83-4.21-1.42-3.68-9.06,0-22.68,1.31-28.16,0-3.4,4.69-2.39,3.94.28-.74,3.73-3.28,14.54-2.39,18.82.13.59.32.46.5,0,.09-.23.6-1.15.78-1.47a1.84,1.84,0,0,1,3.22,1.79A23.39,23.39,0,0,0,934,553.52Zm-41.14-2.39a2.34,2.34,0,0,1-2.3,2.16,1.59,1.59,0,0,1-1.52-1,13.31,13.31,0,0,0-2.66-3.72c-.08-.28-.37-.16-.37-.88,0-1,1.19-1.79,2.3-1.79C890.3,545.89,892.87,550.18,892.87,551.13ZM915.78,538c-2.48,0-11.22-7.41-16.28-12.65-.51-1-1-1.2-1.11-1.2-.73,0-1.19.28-1.56,1.2-1.93,2.07-4.51,4.78-7.22,7.27a2.07,2.07,0,0,1,1.24-.37h14.81a2,2,0,0,1,2.07,2,1.93,1.93,0,0,1-2.07,2h-5.43v3.95h11.18a2,2,0,0,1,2.07,2,1.93,1.93,0,0,1-2.07,2H900.23v10.07h1.61a25.75,25.75,0,0,0,2.95-7.08c.53-1.06,1.1-1.47,2-1.47a2.48,2.48,0,0,1,2.57,2.16c0,1.24-2.48,5.06-2.44,6.07l8.71-.09c.82,0,1.46,1,1.46,2s-.64,2-1.46,2H882.08c-2.27,0-3-1-3-2s.74-2,3-2l13.74.41V544.14h-11a2,2,0,0,1-2.12-2,2,2,0,0,1,2.12-2h11v-3.95h-5a2,2,0,0,1-2.12-2c0-.42.14-.83.95-1.2-7.25,6.07-8.95,6.3-9.6,6.3a2.73,2.73,0,0,1-2.44-1.45c0-1.67.42-2.46,1.43-2.7,5.34-3,11.13-8.68,14.63-12.74a4.63,4.63,0,0,1,4.1-2.66c1.47,0,3,.69,5.07,2.66a49.37,49.37,0,0,0,14.34,11c.87,1,1.24,1.15,1.24,1.89A2.72,2.72,0,0,1,915.78,538Zm-50.08,8.05.1,12.17c0,.9-1.11,1.5-2.21,1.5s-2.21-.6-2.21-1.5l.09-11-11.69,3.26a1.94,1.94,0,0,1-.73.1c-1.2,0-1.67-1-1.67-2,0-.83.24-.91,1.3-2l12.79-3.54-.09-21.76a2,2,0,0,1,2.16-2,2.09,2.09,0,0,1,2.26,2l-.1,20.76,4.28-1.4a4.2,4.2,0,0,1,.65-.09,2,2,0,0,1,2,2.07c0,.79.06,1.57-1.07,1.84ZM853,533.83c1,0,4.68,2,5,2.72a2.45,2.45,0,0,1,.92,1.88,2,2,0,0,1-3.45,1.66,25,25,0,0,0-4.5-2.9,1.67,1.67,0,0,1-1.06-1.47C849.88,534.8,850.84,533.83,853,533.83Zm4.29-2.3a2,2,0,0,1-1.51-.78,18.58,18.58,0,0,0-4.24-3.36,1.4,1.4,0,0,1-.82-1.29,2.22,2.22,0,0,1,2.25-2c1.56,0,5,2.62,5.7,3.35,1.26.56.69,1.15.69,1.75A2.24,2.24,0,0,1,857.28,531.53Zm-7.49,4.24c0,1-1.34,2-2.54,2h0l-4.92-.09v3.16c.27-.95.59-1,.92-1,1.1,0,5.33,2.94,5.33,4.69a2.26,2.26,0,0,1-2.11,2.21,1.85,1.85,0,0,1-1.48-.78,4,4,0,0,0-2.66-2.64c0,6.41.23,15.44.23,15.44V558a2.08,2.08,0,0,1-2.21,2,2,2,0,0,1-2.1-2v.66l.07-14.55c-3.29,7.17-5.7,7.13-6.44,7.13a2.23,2.23,0,0,1-2.25-2.07,1.89,1.89,0,0,1,.78-1.47,33.63,33.63,0,0,0,7.91-9.94v-.14l-5.2.09h0a1.8,1.8,0,0,1-2-1.84,2,2,0,0,1,2-2.07h5.16l0-12.37v-.05a2,2,0,0,1,2.1-2,2.06,2.06,0,0,1,2.21,2v.05s-.1,3.82-.14,8.28a1.75,1.75,0,0,1,.23-.42,33,33,0,0,0,2.62-4.46,1.7,1.7,0,0,1,1.47-1,2.19,2.19,0,0,1,2.16,2c0,.88-1.84,3.64-3.35,5.39.08.46-.92,1-1.43,1a2.2,2.2,0,0,1-1.7-1.41l0,2.94h4.88C848.45,533.83,849.79,534.8,849.79,535.77Zm-14.08-3.87a1.83,1.83,0,0,1-1.52-1.06,19.81,19.81,0,0,0-2.49-4.09,1.61,1.61,0,0,1-.41-1c0-1,1.1-1.7,2.16-1.7,2.07,0,4.37,4.6,4.37,5.66A2.14,2.14,0,0,1,835.71,531.9Z" transform="translate(-829.59 -519.39)"/></svg>