<svg xmlns="http://www.w3.org/2000/svg" width="258.47" height="3.62" viewBox="0 0 258.47 3.62"><g id="a6aeace6-fe98-4183-80b6-297702547a23" data-name="Layer 2"><g id="a8f53331-bb02-496d-9232-46ee8255afc4" data-name="レイヤー 1"><g style="isolation:isolate"><g style="isolation:isolate"><path d="M6.21,8.79A1.82,1.82,0,1,1,4.4,7,1.81,1.81,0,0,1,6.21,8.79Z" transform="translate(-2.58 -6.98)" fill="#fff"/><path d="M15,8.79A1.81,1.81,0,1,1,13.18,7,1.8,1.8,0,0,1,15,8.79Z" transform="translate(-2.58 -6.98)" fill="#fff"/><path d="M23.78,8.79A1.81,1.81,0,1,1,22,7,1.81,1.81,0,0,1,23.78,8.79Z" transform="translate(-2.58 -6.98)" fill="#fff"/><path d="M32.57,8.79A1.81,1.81,0,1,1,30.76,7,1.81,1.81,0,0,1,32.57,8.79Z" transform="translate(-2.58 -6.98)" fill="#fff"/><path d="M41.36,8.79A1.81,1.81,0,1,1,39.55,7,1.81,1.81,0,0,1,41.36,8.79Z" transform="translate(-2.58 -6.98)" fill="#fff"/><path d="M50.15,8.79A1.82,1.82,0,1,1,48.33,7,1.81,1.81,0,0,1,50.15,8.79Z" transform="translate(-2.58 -6.98)" fill="#fff"/><path d="M58.93,8.79A1.81,1.81,0,1,1,57.12,7,1.81,1.81,0,0,1,58.93,8.79Z" transform="translate(-2.58 -6.98)" fill="#fff"/><path d="M67.72,8.79A1.81,1.81,0,1,1,65.91,7,1.81,1.81,0,0,1,67.72,8.79Z" transform="translate(-2.58 -6.98)" fill="#fff"/><path d="M76.51,8.79A1.81,1.81,0,1,1,74.7,7,1.81,1.81,0,0,1,76.51,8.79Z" transform="translate(-2.58 -6.98)" fill="#fff"/><path d="M85.3,8.79A1.81,1.81,0,1,1,83.49,7,1.81,1.81,0,0,1,85.3,8.79Z" transform="translate(-2.58 -6.98)" fill="#fff"/><path d="M94.09,8.79A1.82,1.82,0,1,1,92.28,7,1.81,1.81,0,0,1,94.09,8.79Z" transform="translate(-2.58 -6.98)" fill="#fff"/><path d="M102.87,8.79A1.81,1.81,0,1,1,101.06,7,1.81,1.81,0,0,1,102.87,8.79Z" transform="translate(-2.58 -6.98)" fill="#fff"/><path d="M111.66,8.79A1.81,1.81,0,1,1,109.85,7,1.81,1.81,0,0,1,111.66,8.79Z" transform="translate(-2.58 -6.98)" fill="#fff"/><path d="M120.45,8.79A1.81,1.81,0,1,1,118.64,7,1.81,1.81,0,0,1,120.45,8.79Z" transform="translate(-2.58 -6.98)" fill="#fff"/><path d="M129.24,8.79A1.81,1.81,0,1,1,127.43,7,1.81,1.81,0,0,1,129.24,8.79Z" transform="translate(-2.58 -6.98)" fill="#fff"/><path d="M138,8.79A1.82,1.82,0,1,1,136.22,7,1.81,1.81,0,0,1,138,8.79Z" transform="translate(-2.58 -6.98)" fill="#fff"/><path d="M146.81,8.79A1.81,1.81,0,1,1,145,7,1.8,1.8,0,0,1,146.81,8.79Z" transform="translate(-2.58 -6.98)" fill="#fff"/><path d="M155.6,8.79A1.81,1.81,0,1,1,153.79,7,1.81,1.81,0,0,1,155.6,8.79Z" transform="translate(-2.58 -6.98)" fill="#fff"/><path d="M164.39,8.79A1.81,1.81,0,1,1,162.58,7,1.81,1.81,0,0,1,164.39,8.79Z" transform="translate(-2.58 -6.98)" fill="#fff"/><path d="M173.18,8.79A1.81,1.81,0,1,1,171.37,7,1.81,1.81,0,0,1,173.18,8.79Z" transform="translate(-2.58 -6.98)" fill="#fff"/><path d="M182,8.79A1.82,1.82,0,1,1,180.16,7,1.81,1.81,0,0,1,182,8.79Z" transform="translate(-2.58 -6.98)" fill="#fff"/><path d="M190.75,8.79A1.81,1.81,0,1,1,188.94,7,1.8,1.8,0,0,1,190.75,8.79Z" transform="translate(-2.58 -6.98)" fill="#fff"/><path d="M199.54,8.79A1.81,1.81,0,1,1,197.73,7,1.81,1.81,0,0,1,199.54,8.79Z" transform="translate(-2.58 -6.98)" fill="#fff"/><path d="M208.33,8.79A1.81,1.81,0,1,1,206.52,7,1.81,1.81,0,0,1,208.33,8.79Z" transform="translate(-2.58 -6.98)" fill="#fff"/><path d="M217.12,8.79A1.81,1.81,0,1,1,215.31,7,1.81,1.81,0,0,1,217.12,8.79Z" transform="translate(-2.58 -6.98)" fill="#fff"/><path d="M225.91,8.79A1.82,1.82,0,1,1,224.1,7,1.81,1.81,0,0,1,225.91,8.79Z" transform="translate(-2.58 -6.98)" fill="#fff"/><path d="M234.69,8.79A1.81,1.81,0,1,1,232.88,7,1.8,1.8,0,0,1,234.69,8.79Z" transform="translate(-2.58 -6.98)" fill="#fff"/><path d="M243.48,8.79A1.81,1.81,0,1,1,241.67,7,1.81,1.81,0,0,1,243.48,8.79Z" transform="translate(-2.58 -6.98)" fill="#fff"/><path d="M252.27,8.79A1.81,1.81,0,1,1,250.46,7,1.81,1.81,0,0,1,252.27,8.79Z" transform="translate(-2.58 -6.98)" fill="#fff"/><path d="M261.06,8.79A1.81,1.81,0,1,1,259.25,7,1.81,1.81,0,0,1,261.06,8.79Z" transform="translate(-2.58 -6.98)" fill="#fff"/></g></g></g></g></svg>