<svg xmlns="http://www.w3.org/2000/svg" width="192.51" height="41.09" viewBox="0 0 192.51 41.09"><g id="a2831b9e-54a8-4749-b035-e23762ca20c4" data-name="Layer 2"><g id="b1f064b5-e24a-42fd-80b9-e7d49953b2bc" data-name="レイヤー 1"><path d="M191.88,32.25c-5.85,6.39-14.08,5.66-13-4.51.22-2.44,1-7.4,1.19-10.17.14-3.26-.55-5.75-7-.41a55.65,55.65,0,0,0-6.58,6,67.06,67.06,0,0,0,.37,13.66c.55,3.18-3.75,4.24-4.65.37a72.78,72.78,0,0,1,0-8.51,52.75,52.75,0,0,0-2.53,5c-1.67,3.33-6.72.53-4.19-2.46.73-.19.27-.32.37-.42a90.51,90.51,0,0,0,6.85-10.26c.09-.92.14-1.79.23-2.71a31.24,31.24,0,0,0-3.5,1.66c-3.17,2-4.6-2.49-2.11-3.64,1.66-.78,3.86-1.7,6-2.53.33-3.45.7-6.53.92-8.55,1.12-3,4.7-2.07,4.24.45-.32,1.66-.65,4-1,6.63,1.47-.18,2.76,1.2,2.54,3.36.08-.51.64-1,1.14-1.43C178.3,8,185,9,184.38,17.53c-.19,2.76-.92,7.64-1.15,10.26-.46,5.24,2.25,4.69,5.8,1.42C190.91,26.73,193.81,30.09,191.88,32.25Zm-52,7.59c-2.86,0-5-.69-5-4.36,0-1.57.09-12.57.09-13.72a1.87,1.87,0,0,1,2.07-1.84c2.07,0,2.07,1.61,2.07,2.76,0,2.58-.09,9.16-.09,11.64v.78c0,.88.37,1.11,1.24,1.11,1.06,0,1.89-.05,1.89-3.13v-.42a2.14,2.14,0,0,1,1.93-1.79A2.06,2.06,0,0,1,146.39,33C146.39,39.52,143.31,39.84,139.91,39.84Zm3-30.82H130.75c-.37,1-1.42,3.59-2.3,5.68,2.76-.44,5.48-.67,8-.94-1.11-.74-1.61-1.15-1.61-1.89a1.93,1.93,0,0,1,2-1.75c1.47,0,7.31,4,7.31,6.4A2.18,2.18,0,0,1,142,18.68a2.14,2.14,0,0,1-1.88-1.15,7.68,7.68,0,0,0-.69-1,176.64,176.64,0,0,1-19.19,2.17c-1.42,0-2.11-.67-2.11-2.26a1.81,1.81,0,0,1,1.93-1.84h0c1.29,0,2.63,0,4-.05A14.91,14.91,0,0,0,126.15,9h-6.21a2.21,2.21,0,0,1-2.07-1.89,2.26,2.26,0,0,1,2.07-1.89h8.91l-.35-3.08v0A2.11,2.11,0,0,1,130.75,0a2.15,2.15,0,0,1,2.3,2.12v0l0,3.08h9.93a1.85,1.85,0,0,1,2,1.89A1.88,1.88,0,0,1,142.94,9Zm-28.2.54a2.27,2.27,0,0,1-1.52-1,18.41,18.41,0,0,0-4.6-3.72c-.59-.37-.87-.92-.87-.67,0-1.12,1.06-2.7,2.3-2.7s7,2.82,7,5.39A2.72,2.72,0,0,1,114.74,9.56ZM113.82,15a1.77,1.77,0,0,1,1,1.93c0,1.29-1,3.38-2.12,3.38-.41,0-.87-1-1.29-1.36-1.07-1.47-3.68-2.34-5.33-2.94a1.57,1.57,0,0,1-1.15-1.52c0-.45.92-2.21,2.21-2.21A16.8,16.8,0,0,1,113.82,15Zm-30,22.31c-4,1.26-5.48-3.59-1.52-4.51,3.5-.78,7-2.76,8.55-5.15,3.27-5.15,2-11.18-2.52-14.08a17.67,17.67,0,0,0-5.71-1.84,2.29,2.29,0,0,1,.64,2.12C83,19.69,78.42,28.56,74,32.48,70.46,35.75,67.35,34,65.11,30c-3.44-5.71-.36-14.27,5.81-17.74C77.18,7.55,85,6.9,90.79,10.68c7.13,4,8.28,12.46,4.28,19C92.91,33.26,88.4,36.12,83.85,37.31ZM73.08,14.72c-4.28,3.31-6.58,9.43-4.64,13,.68,1.33,1.88,2,3,1,3.45-3,6.67-10.35,8-15.13-.78-.74-.64-1.25-.41-1.62A44.83,44.83,0,0,0,73.08,14.72ZM45.7,39.06c-2,.09-4.51.09-7,.09s-4.78,0-6.67-.09c-4-.14-6-2.16-6.12-5.57-.09-3-.13-8-.13-13,0-4.46,0-9,.13-11.58.1-3.42,2.3-5.35,5.75-5.14a42.71,42.71,0,0,1,7.69-.44,30.2,30.2,0,0,1,6.39.44c3.59-.25,5.52,1.72,5.61,5,.1,2.8.43,7.4.43,12,0,5.07-.33,10.13-.43,12.56A5.7,5.7,0,0,1,45.7,39.06Zm1.24-28.57c-.09-3.18-.78-3.22-8.14-3.22-7.78,0-8.42,0-8.56,3.22,0,2.78-.09,4.51-.09,7.41H47C47,15,47,12.33,46.94,10.49ZM30.15,21.94c0,3.87,0,7.55.09,9.76.09,3,.6,3.17,8.42,3.17,1.79,0,3.63,0,4.83,0,2.58-.1,3.36-1.29,3.45-3.27.09-2.3.09-5.94.09-9.62ZM10,35.56v.09a2.48,2.48,0,0,1-2.67,2.44c-1.33,0-1.89-.87-1.89-2.53,0-4.28-.63-14.07-.63-19.74C4.79,9,5,9.35,3,9.35H2.35C.78,9.35,0,7.27,0,6A2.68,2.68,0,0,1,2.39,3.22c.92,0,1.29,0,2.26,0,3.17,0,5.2,1.88,5.33,4.92,0,.6,0,1.42,0,2.44,0,3.68-.14,10-.14,16.42C9.89,29.81,9.89,32.71,10,35.56ZM112.76,24.89c.37-.83,1.11-1.2,2.7-1.2a2.41,2.41,0,0,1,1.31,2.12c0,1.1-2.72,7.91-7,12.79a2.86,2.86,0,0,1-2.11,1.06,2.37,2.37,0,0,1-2.39-1.93,2.4,2.4,0,0,1,.64-1.85C108.81,32.85,110.74,29.49,112.76,24.89Zm8.88-1.2V22.36a2.1,2.1,0,0,1,4.19,0c0,11.13-3.45,15.69-8.56,18.73a1.2,1.2,0,0,0-1.15-.38,2.23,2.23,0,0,1-2.21-2.2,1.68,1.68,0,0,1,1-1.57C121,34.27,121.64,29,121.64,23.69Zm8.56-3.58a1.9,1.9,0,0,1,2,1.93l.1,14.72a2.13,2.13,0,0,1-4.24,0l.1-14.72A1.9,1.9,0,0,1,130.2,20.11Z" fill="#fff" fill-rule="evenodd"/></g></g></svg>