<svg xmlns="http://www.w3.org/2000/svg" width="407.22" height="53.23" viewBox="0 0 407.22 53.23"><g id="a823ce44-8cb3-426c-bf96-63fd5cdfa1aa" data-name="Layer 2"><g id="e5b1a97f-95ec-4357-a4b5-07538b4dbe60" data-name="レイヤー 1"><path d="M406.19,10.26l-26.81-.06h-.3a46.55,46.55,0,0,1-3.36,8c6.42-.9,12.66-1.5,18.72-2.34a12.38,12.38,0,0,0-3.9-1.87c-.48-.59-.57-1-.57-.6,0-1.37.57-2,1.47-2,1.92,0,12.12,6.66,12.12,9.18A1.38,1.38,0,0,1,402,22.08a1.79,1.79,0,0,1-1.5-.78,23.45,23.45,0,0,0-3.42-3.48,271.63,271.63,0,0,1-32.76,3.3A1.55,1.55,0,0,1,362.64,20c0-1.08.53-1.86,1.56-1.86,2.76-.06,5.58-.18,8.28-.3a65.12,65.12,0,0,0,3.06-7.62l-14.83.06a1.41,1.41,0,0,1,0-2.82l20.65.06V2.1c0-1,.84-.74,1.68-.74s1.62-.22,1.62.74l-.06,5.4,21.59-.06c.61,0,1,.72,1,1.38S406.8,10.26,406.19,10.26ZM350.14,48.19c-1.74,0-10-6.24-16.14-14.64.06,4.26.12,17.7.12,17.7a1.45,1.45,0,0,1-1.56,1.44,1.48,1.48,0,0,1-1.62-1.5s.18-13.44.24-17.7c-6.18,10-14.4,15.72-15.84,15.72a1.87,1.87,0,0,1-1.62-1c0-1,.24-1.47.78-1.83A44.91,44.91,0,0,0,329.92,31l-12.84.13a1.35,1.35,0,0,1-1.44-1.39,1.37,1.37,0,0,1,1.44-1.38l14,.06L330.94,24v-.06a1.44,1.44,0,0,1,1.56-1.38A1.5,1.5,0,0,1,334.12,24l-.06,4.44,15.55-.06c.17,0,.65.66.65,1.38s-.48,1.39-.65,1.39L335,31a51.92,51.92,0,0,0,16,13.93c.66.36,1.69.9,1.69,1.5C352.61,47.35,351.16,48.19,350.14,48.19ZM339.4,22.08q-3.06.18-6.12.18c-11.64,0-12.78-.12-12.78-8.46,0-1.86.06-3.78.12-5.22.18-2.88,2.1-4.22,5.4-4.82,2.34-.22,4.62-.28,7.37-.28,1.69,0,3.91.06,6.07.28,3.6,0,5.46,2.12,5.58,4.58.06,1.44.12,3.12.12,4.92,0,1.2-.06,2.46-.06,3.66C345,19.86,343.06,21.84,339.4,22.08Zm2.52-12.84c-.18-2.94-1.74-3-8.34-3-2.16,0-4.32,0-6.48.06-2.4.06-3.48,1.26-3.54,3.06-.06,1.14-.12,2.64-.12,4.08,0,6.54,0,6.54,9.24,6.54S342,19.32,342,14.4C342,13.37,342,11.57,341.92,9.24ZM311.16,51.55A2.2,2.2,0,0,1,309.1,53c-.84,0-1.62-.42-1.62-1.17v-.27l.84-32.77c-1.37,2-6.72,9.61-8.76,9.61-.9,0-1.56-1.45-1.56-2.29a1.67,1.67,0,0,1,.6-1.26A60.34,60.34,0,0,0,314.08,2.76a1.5,1.5,0,0,1,1.44-1,2,2,0,0,1,1.92,1.74c0,.54-2.1,5-5.94,10.8ZM290.37,51H243a1.25,1.25,0,0,1-1.32-.93c0-1.11.42-1.77,1.32-1.77l22.49.06V44l-17.21.06a1.2,1.2,0,0,1-1.31-1.26,1.23,1.23,0,0,1,1.31-1.26l17.21.35V37.57c-3.82,0-7-.06-9.82-.12-6.25-.18-6.25-4-6.25-8,0-1.26.07-2.46.13-3.54.11-2.24,1.74-4.38,5.94-4.44,3.54-.06,7.86-.12,12.3-.12,3.6,0,7.26.06,10.56.12a6.68,6.68,0,0,1,6.37,4A6,6,0,0,0,284,29a9.45,9.45,0,0,0,.67,4.21A7.15,7.15,0,0,1,278,37.45c-3.18.06-6.66.12-9.49.12v4.31l16.82-.35c.41,0,.83.6.83,1.26s-.42,1.26-.83,1.26L268.46,44v4.32l21.91-.06c.9,0,1.32.66,1.32,1.77A1.25,1.25,0,0,1,290.37,51ZM265.45,24.19c-4,0-7.24-.49-9.46-.43-2.4.06-3.36,1-3.48,3.06,0,.42-.06.9-.06,1.38h13Zm0,6.29h-13c0,.54.06,1.09.06,1.57.12,2.33,2.13,3,3.54,3.05,2.46.07,5.58.12,9.4.12ZM281,26.82c.13-2.1-1.2-3-3.72-3.06-2.28-.06-5.76.43-8.77.43v4H281C281,27.72,281,27.3,281,26.82Zm-3.66,8.28c2.28,0,4.39-.89,3.66-3.11,0-.48.06-1,.06-1.51H268.46v4.74C271.23,35.22,274.53,35.17,277.29,35.1Zm12.9-17.58h-47c-1.28,0-1.76-.66-1.76-1.32s.48-1.32,1.76-1.32l15.11.06a19.69,19.69,0,0,0-2.34-4c.21.65-.24-.42-.24-.6,0,0,.78-1.2,1.62-1.2,2.1,0,4.08,4.86,4.14,5.1a1.49,1.49,0,0,1,.06.48v.24h9.54c.95-1,1.62-3.6,1.92-5,.18-.66,1.47-1,1.44-1a1.67,1.67,0,0,1,1.8,1.5,18.84,18.84,0,0,1-2,4.44l15.9-.06a1.32,1.32,0,1,1,0,2.64Zm-4.86-9.36H247.7c-.27,0-1.32-.66-1.32-1.32s1.05-1.32,1.32-1.32l17.05.06V1.44A1.52,1.52,0,0,1,266.43,0a1.5,1.5,0,0,1,1.62,1.44L268,5.58l17.34-.06a1.32,1.32,0,1,1,0,2.64ZM230.45,36.55l-17.88-.06c.93,1.26.48,2.64.48,4,0,5.64-2.82,12.48-11.64,12.48-5.82,0-6.06-1.56-6.06-2.22a1.56,1.56,0,0,1,1.56-1.62,1.49,1.49,0,0,1,.48.06,18.25,18.25,0,0,0,4.56.78c7.68,0,8-8.22,8-9.9a10.78,10.78,0,0,0-.54-3.54l-26.94.06a1.39,1.39,0,0,1-1.44-1.45,1.24,1.24,0,0,1,1.38-1.3l25.68-.08a10.51,10.51,0,0,0-5.1-3.78c-.72-.24-1-.66-1-1.08,0-.72,1.28-1.44,2.69-1.44-.71,0-.47.06-.29.12a13.3,13.3,0,0,1,3.24,1.63c1.62-1,7.32-4.93,7.32-6.25,0-.84-.86-.84-3.78-.84-4.14,0-12.12.06-16.86.18h-.06c-1,0-1.19-.48-1.19-1.32s.29-1.44,1.25-1.44c2.46-.06,5.34-.12,8.28-.12,4.56,0,9.12.06,12.06.12s4,1.44,4,2.94c0,1.26-.42,3.3-8.88,8.58a12,12,0,0,1,1.8,2.7l18.9.08c.9,0,1.68.53,1.68,1.25A1.65,1.65,0,0,1,230.45,36.55Zm-3.06-12.67a1.47,1.47,0,0,1-1.62-1.44V17.58c-.06-2.28-1.08-3.48-4-3.48C217.31,14,211.67,14,206.09,14s-11,0-15.18.06c-2.94,0-3.24,1.08-3.84,3.42v5c0,1-1.08,1.44-1.92,1.44-1.68,0-1.68-.9-1.68-4.38,0-1.08.06-2.28.06-3.18.06-2.4,1.86-4.86,6.54-4.92,5.58-.06,11.1-.06,16.68-.06h7a37.16,37.16,0,0,0,5.52-9.3A1.68,1.68,0,0,1,220.79,1a1.84,1.84,0,0,1,1.86,1.68c0,.84-3.18,5.64-5.64,8.7,1.92,0,3.9.06,6.71.06,3,.06,5.35,2,5.41,4.92.07.72.07,1.92.07,3.06a25.75,25.75,0,0,1-.07,2.88A1.66,1.66,0,0,1,227.39,23.88ZM207.47,9.12a1,1,0,0,1-1.08-.72c-1.08-2.7-2.46-4.14-4.38-6.24.08-.18-.24-.36-.24-.6A1.72,1.72,0,0,1,203.51.18c1.74,0,5.88,6,5.88,7.2A2,2,0,0,1,207.47,9.12Zm-11.22.66a1.12,1.12,0,0,1-1.08-.66C193.61,6.54,192,5.46,190,3.78a1,1,0,0,1-.36-.72,1.7,1.7,0,0,1,1.68-1.5c1.81,0,6.66,4.92,6.66,6.42A1.88,1.88,0,0,1,196.25,9.78ZM150.09,48.37a1.82,1.82,0,0,1-2-1.68c0-.72.54-1.5,2.27-1.74C158,43.21,165.16,38,165.16,28.56c0-8.4-7.45-14.28-16-14.28a1.67,1.67,0,0,1,.84,1.56C150,21.42,142.05,44,134,44c-2.32,0-7.8-4.08-7.8-11.16,0-9.55,8.4-20.66,23-20.66,10.32,0,19.39,6.07,19.39,16.63C168.58,43.57,152.19,48.37,150.09,48.37ZM129.33,32.78c0,4.63,2.46,7.61,4.86,7.61,4.08,0,11.52-14.41,12.36-24.49a2.05,2.05,0,0,1,.6-1.5C136.5,15.48,129.33,25.08,129.33,32.78ZM113.72,52.15c-1.79,0-11.1-8-14.46-19.75C97.1,41.05,92.36,48,83.72,52.45c-.36.58-.66.3-1,.3a1.64,1.64,0,0,1-1.62-1.56,1.6,1.6,0,0,1,.9-1.32C91.34,44.71,95.6,37.87,97,29l-10.56.11A1.84,1.84,0,0,1,85,28.39c0-1.45.48-2.11,1.38-2.11l11,.06a37.44,37.44,0,0,0,.18-4.08c.06-1.08.06-4,.06-6.48l-6.72.06c-2.4,7-3.66,7.26-4.38,7.26S85,23,85,21.9c0,.49.12-.54.3-.84C88.46,16.38,89.6,10.92,90.2,6a1.31,1.31,0,0,1,1.38-1.08,1.6,1.6,0,0,1,1.68,1.5c0,.84-1,5.1-1.26,6.72l5.64-.06c0-3.84-.12-7.68-.18-10.08V2.94a1.53,1.53,0,0,1,1.62-1.56c1.33,0,1.62.54,1.62,1.56.06,2.1.06,6.12.06,10.14h9.72a1.53,1.53,0,0,1,1.62,1.38,1.58,1.58,0,0,1-1.62,1.38l-9.72-.06c0,3.78-.12,7.38-.42,10.56l12.18-.06c.85,0,1.27.72,1.27,2.11a1.58,1.58,0,0,1-1.27.71L101,29c1.67,8.22,7.91,16.56,13.61,19.86a1.56,1.56,0,0,1,.9,1.44A1.85,1.85,0,0,1,113.72,52.15ZM83.36,16.5a1.54,1.54,0,0,1-1.14-.6c-2-2.52-4.86-6.72-6.48-9.14-.42-.82-.78-1.18-1.2-1.18s0,.3-1,1c-2.22,5-5.94,9.42-8.34,12.36a1.53,1.53,0,0,1-1.38.66,1.47,1.47,0,0,1-1.56-1.32,1.8,1.8,0,0,1,.54-1.14A103,103,0,0,0,71.24,5.56c1.53-2.2,1.86-2.4,3.12-2.4S77,3.3,77.72,4.8a109.41,109.41,0,0,0,6.9,9.3c.77.24.3,1.07.3.84A1.59,1.59,0,0,1,83.36,16.5ZM35.16,52.21c-15.12,0-19.08-2.88-23.64-7.86-4.14,4.62-9,7.44-9.78,7.44A1.78,1.78,0,0,1,0,50.05c0-.48.3-1,1.78-1.32,2.48-1.86,5.66-4,8.18-6.9.06-2.46.12-4.74.12-6.91,0-1.5-.06-2.87-.06-4.19,0-1.93-1-2.53-2.76-2.59H2.46A1.37,1.37,0,0,1,1.08,26.7a1.43,1.43,0,0,1,1.44-1.5H6c4,0,7.2.24,7.2,4.92C13.2,34.4,13,38,13,42c4.2,5.28,9.9,7.14,20.16,7.14,6,0,12.37-.66,17.11-1h.18a1.59,1.59,0,0,1,1.68,1.62,1.78,1.78,0,0,1-1.8,1.68A151.43,151.43,0,0,1,35.16,52.21Zm13.09-7.92c-1.14,0-10.57-3.48-15.85-10.74l.06,11.88a1.45,1.45,0,0,1-2.88,0L29.64,34c-5.88,5-11.94,7.74-12.48,7.74a1.59,1.59,0,0,1-1.5-1.62c0,.26.24-1,.78-1.2a40.08,40.08,0,0,0,12.3-7.44c-7.32,0-8.82-.11-8.82-4.83,0-3,0-5.86,5-5.5a38.42,38.42,0,0,1,8.46-.66,26.52,26.52,0,0,1,7.09.66c4.14-.42,4.92,1.8,4.92,4.8,0,5.41-1.44,5.53-11.71,5.53a24.21,24.21,0,0,0,4.93,4.86,45.59,45.59,0,0,0,6.84-4.2,1.21,1.21,0,0,1,.78-.25c.78,0,1.84.86,1.84,1.5,0,.36-.28,1.45-7.06,4.51a38.44,38.44,0,0,0,7.92,3.48c.6.47.84.66.84,1.4A1.56,1.56,0,0,1,48.25,44.29Zm-6-17.23A5.83,5.83,0,0,0,42.31,26c0-3.12,0-3.18-9.61-3.18-2.64,0-5.28.06-7.14.12-2.64.06-2.15,1.2-2.15,4-.43,2.22.53,2.34,8.51,2.34C41.71,29.22,42.13,29.22,42.25,27.06ZM48,16.5H18.6c-1.68,0-2.16-.6-2.16-1.2s.54-1.38,2.16-1.38L30.78,14V8.88L20.4,8.94c-1,0-1.38-.6-1.38-.38,0-1.54.48-2.2,1.38-2.2H30.78V2.58a1.7,1.7,0,0,1,1.5-1.44c.79,0,1.95.82,1.95,1.44V6.36H45.37c1,0,1.38.66,1.38,1.61a1.26,1.26,0,0,1-1.38,1L34.23,8.88V14L48,13.92a1.29,1.29,0,1,1,0,2.58ZM12.24,14c.36,0-.78-.53-1.08-1A25.13,25.13,0,0,0,4,7a1,1,0,0,1-.6-.9A1.76,1.76,0,0,1,5.16,4.5c1.8,0,7.56,4.92,8.46,6A2.26,2.26,0,0,1,14,12.17,1.73,1.73,0,0,1,12.24,14ZM65.54,31.2c1.23,0,.72.13,1,.37.78.71,4.47,6.78,4.47,8.58a1.72,1.72,0,0,1-1.71,1.62,1.2,1.2,0,0,1-1.2-1,40.56,40.56,0,0,0-3.78-7.87,1.47,1.47,0,0,1-.24-.59C64,31.69,65,31.2,65.54,31.2ZM79.1,39.07c-.66,0-.92-.19-.92-1.08,0-.24.6-.48-.1-.72A34.45,34.45,0,0,0,80.78,31c.18-.6.6-.84,1.61-.84.19,0,1,1.28,1,1.32a28.4,28.4,0,0,1-3.18,7.09C80.58,38.89,79.46,39.07,79.1,39.07Zm-6,5.76V27l-8.16.06a1.19,1.19,0,0,1-1.26-1.26,1.24,1.24,0,0,1,1.26-1.32l8.16.06V18.36H69a1.2,1.2,0,0,1-1.32-1.2A1.29,1.29,0,0,1,69,15.84h11.1c1.73,0,1.2.6,1.2,1.26s.53,1.26-1.2,1.26H76v6.18l6.66-.06a1.51,1.51,0,0,1,1.55,1.26,1.51,1.51,0,0,1-1.55,1.32L76,27V43.81c2.7-1,5.22-2.1,7.26-2.8.18-.5.42-.56,1-.56.37,0,1,.72,1,1.5a1.36,1.36,0,0,1-.84,1.2c-7.74,4.08-18.78,7.32-20.16,7.32a1.56,1.56,0,0,1-1.62-1.56c0-.66.42-.93,1.32-1.5A73.72,73.72,0,0,0,73.1,44.83Zm302-20.77c2.88-.06,5.94-.12,9-.12,2.58,0,5.1.06,7.62.12,4.92.18,6.12,2.76,6.24,5,.12,2.83.06,8.53.12,10.93l.06,5.46v.3c0,3-.9,7-8.1,7-5.46,0-6-1-6-2a1.43,1.43,0,0,1,1.44-1.5h.3a34.63,34.63,0,0,0,4.5.81c3.24,0,5.13-1.53,4.68-4.83,0-1,.06-2.16.06-3.48H371.52c-.06,3.66-.06,7.32-.06,10.72,0,.26-.84.8-1.32.8-1.08,0-1.86-.48-1.86-1.5.06-7.74.18-17,.36-22.81C368.7,26.7,370.44,24.18,375.06,24.06Zm20.31,5.77a3.94,3.94,0,0,0-4.2-3.15c-2.43-.16-4.83-.22-7.23-.22-2.88,0-5.76.06-8.22.22-3,.51-4,1.46-4.08,3.15V32h23.28A12.7,12.7,0,0,1,395.37,29.83ZM395,39.31V34h-23.4c0,2.17-.06,3.48-.06,5.28Z" fill-rule="evenodd"/></g></g></svg>