<svg xmlns="http://www.w3.org/2000/svg" width="393.88" height="23.01" viewBox="0 0 393.88 23.01"><g id="a9d13659-a6df-42f9-ba4a-772e6daf6036" data-name="Layer 2"><g id="bd889b4a-038c-4c3a-93fb-b1da401d3179" data-name="レイヤー 1"><path d="M392.79,10.56h-2.71l0,10.83c0,.67.1,1-1.15,1a1,1,0,0,1-1.15-1l0-10.85h-1.95c-.47,4.1-1.26,8.54-4.74,11.14-.29.21.3.31-.84.31-.68,0-1.2-.58-1.2-.42,0-1.05.14-1.36.48-1.6,3.26-2.12,3.79-6.14,3.79-10,0-1.08,0-2.16-.07-2.37V6.53c0-1.63.6-2.54,2.16-2.37,1.94-.63,3.62-1.16,5.4-1.88a1.23,1.23,0,0,1,.5-.09c.7,0,1.61,1.37,1.61,1.22,0,.46-.7.89-1.27,1.08a54.74,54.74,0,0,1-5.33,1.35c-.72,0-.73.35-.73,1.8V7a3.81,3.81,0,0,1,.48,1.59l6.68-.05c1.25,0,1.08.53,1.08,1S394,10.56,392.79,10.56Zm-11-5.85H374.4a1,1,0,0,1-1.08-1.06,1,1,0,0,1,1.08-1h7.42c1.29,0,1.06.53,1.06,1S383.11,4.71,381.82,4.71Zm-7.58,3.81v0c0-1.08.62-2,2.63-2.08.18,0,.73,0,1.28,0,3.4,0,4,0,4,3.58,0,3.29-.48,3.7-4.42,3.7-.45,0-.89,0-1.32,0a14.74,14.74,0,0,1-2.28,7.87,1.28,1.28,0,0,1-1.08.6c.29,0-1.15-.45-1.15-1a1.15,1.15,0,0,1,.24-.67c1.85-1.81,2.16-5.33,2.16-8.14C374.31,11,374.26,10.16,374.24,8.52Zm2.38,3.33c.23,0,.62.24,1,.24,1.61,0,2.3-.37,2.37-1.09,0-.37,0-.85,0-1.33,0-1.36-.07-1.51-1.68-1.51-1.25,0-1.89,0-1.89.87S376.62,11.72,376.62,11.85Zm-8.23.87H360.6a8.27,8.27,0,0,0-.9,1.16c1.39,0,3.12,0,4.65,0h1.76c2.06,0,2.18.87,2.18,2.4a14.34,14.34,0,0,1-.65,3.89,3.32,3.32,0,0,1-3.53,2.35c-1.53,0-2.18-.33-2.18-1.2a.75.75,0,0,1,0-.21,7.43,7.43,0,0,1-2.8,1.93c-.23,0-1.08-.76-1.08-1.08a1,1,0,0,1,.57-1,9.46,9.46,0,0,0,4.78-5.38H362c-2,3.72-5.6,6.4-6.75,6.4a1.21,1.21,0,0,1-1-1.24.84.84,0,0,1,.55-.81,10.56,10.56,0,0,0,5-4.35c-.51,0-1,0-1.47,0-1.29,1.41-3.69,3.85-4.51,3.85-.62,0-1.08-1.14-1.08-1.32,0-.61.17-.9.53-1.09,2.87-1.16,3.62-2.4,4.87-4.28H356a.93.93,0,0,1,.12.46,1.16,1.16,0,0,1-.67,1c-1.77.93-5.59,2.66-6.45,2.66a1.93,1.93,0,0,1-1-.44c0-1.05.24-1.5.8-1.32A12.7,12.7,0,0,1,351,14l0-4.46h-1.78c-.67,0-1-1.23-1-1.71s.36-.45,1-.45H351V3.56c0-1.45.55-1.32,1.1-1.32s1.13-.13,1.13,1.32V7.4h1.63c1.05,0,.94-.1.94,1.08,0-.17.11,1.08-.94,1.08h-1.65v3.57c.53-.24,1-.45,1.46-.69l.31-.13a.89.89,0,0,1-.14-.47,1,1,0,0,1,1-1h12.53c.65,0,1,.46,1,1.45A1.47,1.47,0,0,1,368.39,12.72Zm-5.6,7.49.17,0a.79.79,0,0,1,.24,0,2.87,2.87,0,0,1,.89.12c.94,0,1.83-.36,2.11-3.92v-.12c0,.33-.24-.74-.65-.79A14.4,14.4,0,0,1,362.79,20.21Zm1.44-10.34c-.79,0-1.68.07-2.56.07-3.89,0-4.85.47-4.85-2.88,0-.94.05-2,.09-2.91A2.25,2.25,0,0,1,359.27,2c.81,0,1.65-.05,2.47-.05s1.65,0,2.42.05a2.67,2.67,0,0,1,2.45,2c.72,1-.05,1.7-.05,2.59a3.57,3.57,0,0,0,.77,2.14C366.85,9.07,365.6,10.41,364.23,9.87Zm.12-5.19c0-.52-.19-.76-2.64-.76s-2.73,0-2.78.79l0,.38h5.47Zm0,2.48h-5.54c0,1,0,1.07,2.71,1.07s2.81-.07,2.83-.84ZM336.6,9.43c-1,1-.51,1.76-.29,2.74,2.4,3,4.44,5.26,5.61,7.83.75,1.6-1.58,3-2.35,1.48-1.39-2.55-3.43-5.85-4.8-7.8-1.87-1.84-1.87-3.55,0-5.49,1.63-1.71,3.48-3.48,4.92-5.11a1.27,1.27,0,1,1,2.14,1.31C340.63,5.86,338.08,8,336.6,9.43Zm-13,4.66c-1.9,0-2.86-.38-2.86-2.16,0-1,.08-2,.08-2.66,0-.43.6-.68-1.88-.68-1,0-1.49,0-1.49.7v.43a.91.91,0,0,1,.63-.26c.6,0,2.33,1.17,2.33,2.13a1.07,1.07,0,0,1-1,1,.77.77,0,0,1-.67-.39,7,7,0,0,0-1.3-1.39l-.12.18a4.27,4.27,0,0,1-4.05,3.47,1,1,0,0,1-1-.94c0-.36.73-.72.76-.88,2.12-.68,2.43-1.73,2.43-2.84,0-.33-.05-.69-.05-.28V9.08C315.36,7,317,7,319.22,7l1.42,0a3.52,3.52,0,0,1,1.06.19l-.05,0c-.38-.23-.74-.62-1-.79-.51-.12-.65-.36-.65-.28,0-.75.43-1.21,1-1.21.29,0,2.14.51,2.14,1.54a1.06,1.06,0,0,1-1,1h0a1.73,1.73,0,0,1,.77,1.69c0,.84-.12,1.92-.12,2.61,0,.22,0,.7,1.11.7.31,0,.76-.15.76-1.37v0c0-.8.46-1,.94-1,1.06,0,1.13.6,1.13,1.1C326.74,12.92,326.19,14.09,323.57,14.09ZM325.25,5h-6.89c-1,1-2,1.84-2.59,1.84a1.08,1.08,0,0,1-1.11-1,1,1,0,0,1,.44-.75c1.72-1,2.13-2.13,3-3.6a.85.85,0,0,1,.76-.45,1.14,1.14,0,0,1,1.13,1,1.32,1.32,0,0,1-.33.84l5.59,0a.91.91,0,0,1,1,.91C326.23,4.3,325.9,5,325.25,5ZM314.74,5h-4.8c-.24.07-1.88,2.13-2.86,2.13-.35,0-1.13-.46-1.13-1a1,1,0,0,1,.41-.77c1.61-1.3,3-2,3.38-3.82-.07-.36.22-.5.53-.5a1.18,1.18,0,0,1,1.18,1.1,1,1,0,0,1-.15.51l-.14.26h3.58a.92.92,0,0,1,1,.91C315.72,4.3,315.38,5,314.74,5Zm-2.09,2.39c.3,0-.39-.07-.53-.24a2.62,2.62,0,0,0-1.18-.79c-.31-.12-.12-.36-.12-.28,0-.75.1-1.21,1.32-1.21-.5,0,1.52.48,1.52,1.54A1.06,1.06,0,0,1,312.65,7.39Zm.43,3a1.23,1.23,0,0,1,.5-.08.81.81,0,0,1,.7.8.9.9,0,0,1-.62.81A19.17,19.17,0,0,1,307.3,14a.91.91,0,0,1-.94-.92,1,1,0,0,1,.77-.93,8.47,8.47,0,0,0,2.61-.6V9.22h-1.8c-.62,0-.93.1-.93-.84a.85.85,0,0,1,.93-.84h5.4a.82.82,0,0,1,.87.84c0,.94-.29.84-.87.84h-1v1.7C312.07,11,312.58,10.56,313.08,10.35Zm.67,6.74-6.57.1h0a.91.91,0,0,1-1-.91c0,.13.8-1,1-1l7.75,0,0-.74c0-.59.72-1,1.11-1a1,1,0,0,1,1.13.94v0l0,.74,7.88,0c.64,0,1,.85,1,.93a.93.93,0,0,1-1,.94h0l-6.77-.1A25.44,25.44,0,0,0,325.71,20c.55.15,1,.51,1,.92a1.45,1.45,0,0,1-1.42,1.24,24.21,24.21,0,0,1-8.16-3.81l.05,3.6v0c0,.6-.56.91-1.13.91-.06,0-1.11-.28-1.11-.91v0l.05-3.53a24.85,24.85,0,0,1-8.21,3.91,1.11,1.11,0,0,1-1.15-1.05c0-.39.27-.8,1.14-1C309.31,19.56,311.9,18.68,313.75,17.09Zm-15-4.54c-1,.39-2.09.87-3.05,1.33a20.85,20.85,0,0,1,.05,2.64A1.42,1.42,0,0,1,294.58,18a1.12,1.12,0,0,1-1.2-1.36c0-.51.05-1.06.05-1.56l-.62.36c-3,1.92-2.62,4-.52,4,.52.65,2.87.17,4-.19,2.11-.65,2.78,1.94.57,3.13-1.41-.25-4.68.11-6.55-.95-3.24-1.82-2.66-5.06,1.68-7.92.34-.22.72-.48,1.18-.13,0-2.17-2.5-2.39-4.06.23,0-.8-.07-.75-.09-.72a3.21,3.21,0,0,0-.45.62c-1.43,1.18-3.18-.19-1.74-1.49,1-.58,1.44-1.44,1.95-1.64a20.26,20.26,0,0,1,1.12-2.75c-1.29.19-2.2.58-3-.27-1.73-.86-.55-3.12,1.13-2a3.85,3.85,0,0,0,2.25,0c.1,0,.24,0,.36,0a9.87,9.87,0,0,0,.27-2c.09-1.44,2.35-1.3,2.4-.12a4,4,0,0,1-.2,1.39l0,.34c.64-.39.74-.53,1-.68,1.32-.79,2.62,1.2.84,2.09a12.94,12.94,0,0,1-2.64.79,25.2,25.2,0,0,1-1.15,2.43,3.49,3.49,0,0,1,4,2.09c1-.51,2-1,2.93-1.42.58-.24,1.23-.14,1.87-.89,1.8-1,2.88,2.07,1.35,2.16A27.07,27.07,0,0,1,298.74,12.55ZM267.38,10a1.25,1.25,0,0,1-1.17,1.22,1,1,0,0,1-.82-.5,9.53,9.53,0,0,0-1.53-1.85c-.27-.22,0-.43,0-.67s.1-.89.68-.89A4,4,0,0,1,267.38,10Zm12.29,11.66c-1,0-5.73-3.43-8.47-6.65,0,2.28.07,4.56.07,6.87,0,.65-.6,1-1.2,1-.17,0-1.15-.31-1.15-.94v0l.07-6.7a27.82,27.82,0,0,1-7.75,6.48c-.29,1-.55.24-.79.24a1.19,1.19,0,0,1-1.23-1,1.21,1.21,0,0,1,.75-1.14,23.64,23.64,0,0,0,7.89-6.34l-6.74.1h0a1,1,0,0,1-1-1,1,1,0,0,1,1-1.05l7.9,0,0-4.58H262.2c-.22,0-1-.51-1-1s1.05-.38,1-.38H269l0-3.39c0-.7,1.2-1,1.13-1a1.08,1.08,0,0,1,1.18,1c0,.91,0,1.8,0,3.39h6.37c.64,0,1-.15,1,.35a1,1,0,0,1-1,1H271.2c0,1.53,0,3,0,4.58h.88A18.33,18.33,0,0,0,274.13,8c.14-.71.48-.9.84-.9a1.37,1.37,0,0,1,1.34,1.18,9.59,9.59,0,0,1-1.92,3.14l4.88,0a1,1,0,0,1,1,1,1,1,0,0,1-1,1h0l-7-.1c2.37,2.71,5.81,4.59,8.11,6a1.1,1.1,0,0,1,.7,1A1.4,1.4,0,0,1,279.67,21.65Zm-25.49-.72c-1.11,0-5.19-3.08-8-6.74,0,2.52.07,5.18.07,7.46,0,.63-.6.94-1.22.94s-1.18-.29-1.18-.91v0l.1-7.25c-2.55,3.22-6.87,6.75-8.09,6.75A1.21,1.21,0,0,1,234.57,20a1.2,1.2,0,0,1,.74-1A23,23,0,0,0,243,12.34l-6.58.07h0a1,1,0,0,1-1-1c0,.1.36-1.18,1-1.18l7.54.05,0-2.69h-5.65a1,1,0,0,1-1-1,1.06,1.06,0,0,1,1-1.13h5.62l0-3.09v0a1,1,0,0,1,1.16-1c.62,0,1.22.33,1.22,1,0,1.1,0,2.11,0,3.09h5.68c1.29,0,1,.55,1,1.08s.33,1.08-1,1.08h-5.73c0,.84,0,1.73,0,2.69l7.76-.05a.89.89,0,0,1,1,1.13c0,.55.47,1.08-1,1.08h0L247,12.34a24.83,24.83,0,0,0,7.89,6.24c.48,1.07.7.62.7,1A1.41,1.41,0,0,1,254.18,20.93Zm-31-.07c-2.12.55-2.86-1.87-.8-2.35a18.77,18.77,0,0,0,4.47-1.86c1.7-3.52,1.05-6.66-1.32-8.18a6.35,6.35,0,0,0-3-1c.27.49.41.63.34,1.11.44,3.05-2.55,7.58-4.85,9.72-1.85,1.7-3.87.77-4.92-1.3-1.51-3,.09-7.44,3.48-9.67a8.29,8.29,0,0,1,10.2.27c3.72,1.41,4.32,5.83,2.23,9.26C227.94,18.93,225.59,20.24,223.22,20.86ZM217.6,9.07c-2.23,2.41-3.43,4.93-2.43,6.77,1.11.7,1,1.06,1.59.53,1.8-1,3.48-5.4,4-8,.24-.29-.15.34,0-.75A14.36,14.36,0,0,0,217.6,9.07Zm-18.74,13c-2.31.31-2.43-2.09-.63-1.62,2.07-.93,4-1.32,5-2.85,1.75-2,1.34-4.24-1.92-4a39.39,39.39,0,0,0-4.23,2.21c-.43.45.15,1.15-1.37,1.37-1.05.28-1.87-.75-1.7-2,.19-1.37,1.3-3.82.89-6.17A9.11,9.11,0,0,1,192.64,9c-1.78-.19-1.58-2.72.34-2.11a6.69,6.69,0,0,1,2.28.24,18.31,18.31,0,0,0,.65-4c.38-1.63,2.76-.91,2.3.75A13.59,13.59,0,0,0,197.68,6c.43.1,1.71-.48,1.27-.77,1.66-1.18,3.17,1.22.94,2.26a26.33,26.33,0,0,1-2.71,1.12c-.39,2.12-.75,5.05-.91,5.07A10.87,10.87,0,0,1,201,11.59c5-.67,7.32,3.77,4.29,7.37A8.82,8.82,0,0,1,198.86,22.11ZM184.19,11.28c-1.34.44-3.53-.72-4.8-.24S177.4,9.53,179,9a8.92,8.92,0,0,1,5.76.12C186.35,9.67,185.7,12.32,184.19,11.28Zm-8.95-2.85a94.89,94.89,0,0,1-4.4,12.07c-.72,1.61-3.26.91-2.25-1.13A75.07,75.07,0,0,0,172.79,9a7.62,7.62,0,0,1-3.51-.33c-1.22-.53-1-2.71.82-2.07a6.47,6.47,0,0,0,3.31.15,2.12,2.12,0,0,0,0-2.59c-.1-1.27,3-1.44,2.4-.12a7.66,7.66,0,0,1,0,1.92,3.13,3.13,0,0,0,.91-.51c1.25-.81,3.63,1.18.94,2.07C177,8.48,176.12,8.16,175.24,8.43Zm-25.68,9.06a61.85,61.85,0,0,1,.19-7.79c.07-1.56.24-3.38.19-5.4-.05-1.78,2.67-1.63,2.62,0,.48,1.83-.22,3.79-.34,5.4a65.12,65.12,0,0,0-.43,7.06c.14,3.5,4.42,3.26,8.59,0,1.56-1.22,3,1,1.66,2.49C157.36,22.59,149.68,23.28,149.56,17.49Zm-8.81-6.21c-1.34.44-3.53-.72-4.8-.24s-2-1.51.39-2.06c.43-.43,2.61-.72,5,.12C142.91,9.67,142.26,12.32,140.75,11.28ZM131.8,8.43a94.89,94.89,0,0,1-4.4,12.07c-.72,1.61-3.26.91-2.25-1.13A75.07,75.07,0,0,0,129.35,9a7,7,0,0,1-3.51-.33c-1.22-.53-1-2.71.82-2.07A6.47,6.47,0,0,0,130,6.7a9.81,9.81,0,0,0,0-2.59c-.1-1.27,2.16-1.44,2.4-.12a7.66,7.66,0,0,1,0,1.92,3.13,3.13,0,0,0,.91-.51c2-.81,2.74,1.18.94,2.07C134.42,8.48,132.68,8.16,131.8,8.43ZM114.25,20.84c-1.59.55-2.69-1.76-.54-2.45A18.2,18.2,0,0,0,116,17.21c2.55-1.7,2.83-3.57,1.78-4.68s-3.58-1.44-6.89.88c-1.25,0-2.18.66-3,2.16a24.43,24.43,0,0,0,.19,4.95A1.3,1.3,0,0,1,107,22.06c-.64.1-1.34.11-.7-1.21a3.36,3.36,0,0,1-.24-3.66l-.66.24c-.34.55-.7,1.2-1.13,1.94-1,1.73-3.27.64-2.21-1.2a9.74,9.74,0,0,1,.72-1,35.56,35.56,0,0,0,3.19-5.86l0-.11c-.07-.24-.17-.24-.31.48-.63-.61-.5-.22-1.73.14-1.73,1.08-2.52-1.32-1.15-2,.88-.41,2.18-1,3.41-1.54.16-1.75.9-3.26.4-4.29.15-1.68,2.57-1.35,2.36.07A8.49,8.49,0,0,0,109,7.56c.42,0,1.06,1.28,0,2.71a1.84,1.84,0,0,1-1,1.71v.12c.72-.53,1.58-1,2.07-.86,4.27-2.74,8.09-2,9.81,0s1.35,5.21-2.28,7.82A14.74,14.74,0,0,1,114.25,20.84ZM89.42,23c-1.21,0-1.54-.42-1.78-.78a9.11,9.11,0,0,0-3-2.52,1.09,1.09,0,0,1-.64-.78,1.2,1.2,0,0,1,1.12-1.24c.84,0,4.68,2.8,4.68,3.75C89.84,22.2,89.2,23,89.42,23Zm-17.85-.9c-2.3.31-2.42-2.09-.62-1.62,2.06-.93,4-1.32,5-2.85,1.75-2,1.34-4.24-1.92-4-1,.59-3.22,1.67-4.22,2.21-.44.45-.56,1.15-1.37,1.37-1.06.28-1.88-.75-1.71-2,.19-1.37.53-3.82.89-6.17A9.12,9.12,0,0,1,65.35,9c-1.77-.19-1.58-2.72.34-2.11A6.69,6.69,0,0,1,68,7.16c.24-1.93.48-3.25.65-4,.38-1.63,2.76-.91,2.3.75A15.24,15.24,0,0,0,70.4,6c.43.1.86-.48,1.27-.77,1.65-1.18,3.17,1.22.93,2.26a24.62,24.62,0,0,1-2.71,1.12A12.46,12.46,0,0,1,69,13.66a10.93,10.93,0,0,1,4.75-2.07c5-.67,7.32,3.77,4.3,7.37A8.85,8.85,0,0,1,71.57,22.11ZM56.9,11.28c-1.34.44-3.53-.72-4.8-.24s-2-1.51-.41-2.06a10.09,10.09,0,0,1,6.16.12C59.06,9.67,58.42,12.32,56.9,11.28ZM48,8.43A95.15,95.15,0,0,1,43.56,20.5c-.72,1.61-3.27.91-2.26-1.13S44,13.61,46,9a8.22,8.22,0,0,1-4-.33c-1.23-.53-1-2.71.81-2.07a6.51,6.51,0,0,0,3.32.15,10.47,10.47,0,0,0,0-2.59C46,2.84,48.26,2.67,49,4a1.49,1.49,0,0,0,.24,1.92c-.34-.07-.05-.34.24-.51a1.15,1.15,0,1,1,.93,2.07C49.7,8.48,48.84,8.16,48,8.43Zm-20.23,1c-1.27,1-1.32,1.76-.53,2.74,2.4,3,4.44,5.26,5.62,7.83,1.63,1.6-1.59,3-2.06,1.48-1.69-2.55-3.73-5.85-5.38-7.8s-1.59-3.55.28-5.49c1.64-1.71,3.48-3.48,4.92-5.11a1.27,1.27,0,1,1,2.14,1.31C32,5.86,29,8,27.72,9.43ZM18.31,3C18,2.59,17,1.68,17.05,1.44,15.36.84,16.42,0,17.65,0a10.87,10.87,0,0,1,2,1.61C21.13,2.67,19,4,18.31,3ZM16,4.92C16,5.35,15.67,6.08,15,6a17.88,17.88,0,0,1-7,.68c-.48-.27-1-2.38.72-2.07,1.44.31,4.92-.48,6.72-.16-.7-.48-.58-.48-.46-.48a1.92,1.92,0,0,0-.65-.68c-1.12-.65,0-1.92,1-1.39A7.53,7.53,0,0,1,17.4,3.53C18.17,4.59,16.7,6.56,16,4.92ZM11.9,12.15a10.18,10.18,0,0,1-4.75.12,1.1,1.1,0,1,1,.74-2.07,9.1,9.1,0,0,0,4-.26c-.05-1.08-.21-1.25.46-2-1-1.25,1-1.58,1.44-.45a4.2,4.2,0,0,1,.29,1.8c.36-.15.67-.27.93-.41,1.35-.67,2.55,1.27.75,2a16.44,16.44,0,0,1-1.83.69A20.86,20.86,0,0,0,14,15c0,.41.1.87.14,1.32,1.11,1.17,2.07,1.16,2.84,1.88,1.15,1.08-.36,3.09-1.59,1.82-.43-.46-.5-.86-1.39-.61a4.91,4.91,0,0,1-6.24,1.43c-2.18-.59-2.35-3.72.19-4.78a7,7,0,0,1,4.13-.36,3.78,3.78,0,0,0,0-.46C12,14,11.9,13.16,11.9,12.15ZM8.66,17.69C8,18,8,19.17,8.61,19.06a2,2,0,0,0,3.29-1.15l0-.19A4.45,4.45,0,0,0,8.66,17.69Zm-5.78,1.8a2.75,2.75,0,0,0,.47,1.83C2,21.87.86,21.84.43,20.57a50,50,0,0,1-.12-12C1,7.35.69,6.31.89,5.14c.24-1.51,3.55-1.25,2.4.17-.17,1-.46,2.16-.68,3.33-.48,2.67-1,4.59-.86,6.41.07,1.12.14,1,.46.27.07-.17.14-.24.42,0,.46-2,2.17-.73,1.57.35A11.53,11.53,0,0,0,2.88,19.49Zm48.21-1.85c1.23,1.25,2.69,1.53,5.5.89A1.25,1.25,0,1,1,56.9,21c-3.48.7-6.45-.4-7.51-1.58S49.85,16.37,51.09,17.64Zm83.85,0c1.23,1.25,2.69,1.53,5.5.89a1.24,1.24,0,1,1,.31,2.47c-3.48.7-6.46-.4-7.51-1.58S133.69,16.37,134.94,17.64Zm43.44,0c1.23,1.25,2.69,1.53,5.5.89a1.24,1.24,0,1,1,.31,2.47c-3.48.7-6.46-.4-7.51-1.58S177.13,16.37,178.38,17.64Z" fill="#ed7576" fill-rule="evenodd"/></g></g></svg>