<svg xmlns="http://www.w3.org/2000/svg" width="408.09" height="3.09" viewBox="0 0 408.09 3.09"><g id="f77b395e-47de-4454-b4ac-aa13ab4a05cd" data-name="Layer 2"><g id="bb599938-6601-4049-afb7-e7d30b1c0c96" data-name="レイヤー 1"><g style="isolation:isolate"><g style="isolation:isolate"><path d="M5.29,7.5A1.55,1.55,0,1,1,3.75,6,1.53,1.53,0,0,1,5.29,7.5Z" transform="translate(-2.2 -5.96)" fill="#e5e1bd"/><path d="M12.79,7.5A1.55,1.55,0,1,1,11.25,6,1.53,1.53,0,0,1,12.79,7.5Z" transform="translate(-2.2 -5.96)" fill="#e5e1bd"/><path d="M20.29,7.5A1.55,1.55,0,1,1,18.75,6,1.53,1.53,0,0,1,20.29,7.5Z" transform="translate(-2.2 -5.96)" fill="#e5e1bd"/><path d="M27.79,7.5A1.55,1.55,0,1,1,26.25,6,1.53,1.53,0,0,1,27.79,7.5Z" transform="translate(-2.2 -5.96)" fill="#e5e1bd"/><path d="M35.29,7.5A1.55,1.55,0,1,1,33.75,6,1.53,1.53,0,0,1,35.29,7.5Z" transform="translate(-2.2 -5.96)" fill="#e5e1bd"/><path d="M42.79,7.5A1.55,1.55,0,1,1,41.25,6,1.53,1.53,0,0,1,42.79,7.5Z" transform="translate(-2.2 -5.96)" fill="#e5e1bd"/><path d="M50.29,7.5A1.55,1.55,0,1,1,48.75,6,1.53,1.53,0,0,1,50.29,7.5Z" transform="translate(-2.2 -5.96)" fill="#e5e1bd"/><path d="M57.79,7.5A1.55,1.55,0,1,1,56.25,6,1.53,1.53,0,0,1,57.79,7.5Z" transform="translate(-2.2 -5.96)" fill="#e5e1bd"/><path d="M65.29,7.5A1.55,1.55,0,1,1,63.75,6,1.53,1.53,0,0,1,65.29,7.5Z" transform="translate(-2.2 -5.96)" fill="#e5e1bd"/><path d="M72.79,7.5A1.55,1.55,0,1,1,71.25,6,1.53,1.53,0,0,1,72.79,7.5Z" transform="translate(-2.2 -5.96)" fill="#e5e1bd"/><path d="M80.29,7.5A1.55,1.55,0,1,1,78.75,6,1.53,1.53,0,0,1,80.29,7.5Z" transform="translate(-2.2 -5.96)" fill="#e5e1bd"/><path d="M87.79,7.5A1.55,1.55,0,1,1,86.25,6,1.53,1.53,0,0,1,87.79,7.5Z" transform="translate(-2.2 -5.96)" fill="#e5e1bd"/><path d="M95.29,7.5A1.55,1.55,0,1,1,93.75,6,1.53,1.53,0,0,1,95.29,7.5Z" transform="translate(-2.2 -5.96)" fill="#e5e1bd"/><path d="M102.79,7.5A1.55,1.55,0,1,1,101.25,6,1.53,1.53,0,0,1,102.79,7.5Z" transform="translate(-2.2 -5.96)" fill="#e5e1bd"/><path d="M110.29,7.5A1.55,1.55,0,1,1,108.75,6,1.53,1.53,0,0,1,110.29,7.5Z" transform="translate(-2.2 -5.96)" fill="#e5e1bd"/><path d="M117.79,7.5A1.55,1.55,0,1,1,116.25,6,1.53,1.53,0,0,1,117.79,7.5Z" transform="translate(-2.2 -5.96)" fill="#e5e1bd"/><path d="M125.29,7.5A1.55,1.55,0,1,1,123.75,6,1.53,1.53,0,0,1,125.29,7.5Z" transform="translate(-2.2 -5.96)" fill="#e5e1bd"/><path d="M132.79,7.5A1.55,1.55,0,1,1,131.25,6,1.53,1.53,0,0,1,132.79,7.5Z" transform="translate(-2.2 -5.96)" fill="#e5e1bd"/><path d="M140.29,7.5A1.55,1.55,0,1,1,138.75,6,1.53,1.53,0,0,1,140.29,7.5Z" transform="translate(-2.2 -5.96)" fill="#e5e1bd"/><path d="M147.79,7.5A1.55,1.55,0,1,1,146.25,6,1.53,1.53,0,0,1,147.79,7.5Z" transform="translate(-2.2 -5.96)" fill="#e5e1bd"/><path d="M155.29,7.5A1.55,1.55,0,1,1,153.75,6,1.53,1.53,0,0,1,155.29,7.5Z" transform="translate(-2.2 -5.96)" fill="#e5e1bd"/><path d="M162.79,7.5A1.55,1.55,0,1,1,161.25,6,1.53,1.53,0,0,1,162.79,7.5Z" transform="translate(-2.2 -5.96)" fill="#e5e1bd"/><path d="M170.29,7.5A1.55,1.55,0,1,1,168.75,6,1.53,1.53,0,0,1,170.29,7.5Z" transform="translate(-2.2 -5.96)" fill="#e5e1bd"/><path d="M177.79,7.5A1.55,1.55,0,1,1,176.25,6,1.53,1.53,0,0,1,177.79,7.5Z" transform="translate(-2.2 -5.96)" fill="#e5e1bd"/><path d="M185.29,7.5A1.55,1.55,0,1,1,183.75,6,1.53,1.53,0,0,1,185.29,7.5Z" transform="translate(-2.2 -5.96)" fill="#e5e1bd"/><path d="M192.79,7.5A1.55,1.55,0,1,1,191.25,6,1.53,1.53,0,0,1,192.79,7.5Z" transform="translate(-2.2 -5.96)" fill="#e5e1bd"/><path d="M200.29,7.5A1.55,1.55,0,1,1,198.75,6,1.53,1.53,0,0,1,200.29,7.5Z" transform="translate(-2.2 -5.96)" fill="#e5e1bd"/><path d="M207.79,7.5A1.55,1.55,0,1,1,206.25,6,1.53,1.53,0,0,1,207.79,7.5Z" transform="translate(-2.2 -5.96)" fill="#e5e1bd"/><path d="M215.29,7.5A1.55,1.55,0,1,1,213.75,6,1.53,1.53,0,0,1,215.29,7.5Z" transform="translate(-2.2 -5.96)" fill="#e5e1bd"/><path d="M222.79,7.5A1.55,1.55,0,1,1,221.25,6,1.53,1.53,0,0,1,222.79,7.5Z" transform="translate(-2.2 -5.96)" fill="#e5e1bd"/><path d="M230.29,7.5A1.55,1.55,0,1,1,228.75,6,1.53,1.53,0,0,1,230.29,7.5Z" transform="translate(-2.2 -5.96)" fill="#e5e1bd"/><path d="M237.79,7.5A1.55,1.55,0,1,1,236.25,6,1.53,1.53,0,0,1,237.79,7.5Z" transform="translate(-2.2 -5.96)" fill="#e5e1bd"/><path d="M245.29,7.5A1.55,1.55,0,1,1,243.75,6,1.53,1.53,0,0,1,245.29,7.5Z" transform="translate(-2.2 -5.96)" fill="#e5e1bd"/><path d="M252.79,7.5A1.55,1.55,0,1,1,251.25,6,1.53,1.53,0,0,1,252.79,7.5Z" transform="translate(-2.2 -5.96)" fill="#e5e1bd"/><path d="M260.29,7.5A1.55,1.55,0,1,1,258.75,6,1.53,1.53,0,0,1,260.29,7.5Z" transform="translate(-2.2 -5.96)" fill="#e5e1bd"/><path d="M267.79,7.5A1.55,1.55,0,1,1,266.25,6,1.53,1.53,0,0,1,267.79,7.5Z" transform="translate(-2.2 -5.96)" fill="#e5e1bd"/><path d="M275.29,7.5A1.55,1.55,0,1,1,273.75,6,1.53,1.53,0,0,1,275.29,7.5Z" transform="translate(-2.2 -5.96)" fill="#e5e1bd"/><path d="M282.79,7.5A1.55,1.55,0,1,1,281.25,6,1.53,1.53,0,0,1,282.79,7.5Z" transform="translate(-2.2 -5.96)" fill="#e5e1bd"/><path d="M290.29,7.5A1.55,1.55,0,1,1,288.75,6,1.53,1.53,0,0,1,290.29,7.5Z" transform="translate(-2.2 -5.96)" fill="#e5e1bd"/><path d="M297.79,7.5A1.55,1.55,0,1,1,296.25,6,1.53,1.53,0,0,1,297.79,7.5Z" transform="translate(-2.2 -5.96)" fill="#e5e1bd"/><path d="M305.29,7.5A1.55,1.55,0,1,1,303.75,6,1.53,1.53,0,0,1,305.29,7.5Z" transform="translate(-2.2 -5.96)" fill="#e5e1bd"/><path d="M312.79,7.5A1.55,1.55,0,1,1,311.25,6,1.53,1.53,0,0,1,312.79,7.5Z" transform="translate(-2.2 -5.96)" fill="#e5e1bd"/><path d="M320.29,7.5A1.55,1.55,0,1,1,318.75,6,1.53,1.53,0,0,1,320.29,7.5Z" transform="translate(-2.2 -5.96)" fill="#e5e1bd"/><path d="M327.79,7.5A1.55,1.55,0,1,1,326.25,6,1.53,1.53,0,0,1,327.79,7.5Z" transform="translate(-2.2 -5.96)" fill="#e5e1bd"/><path d="M335.29,7.5A1.55,1.55,0,1,1,333.75,6,1.53,1.53,0,0,1,335.29,7.5Z" transform="translate(-2.2 -5.96)" fill="#e5e1bd"/><path d="M342.79,7.5A1.55,1.55,0,1,1,341.25,6,1.53,1.53,0,0,1,342.79,7.5Z" transform="translate(-2.2 -5.96)" fill="#e5e1bd"/><path d="M350.29,7.5A1.55,1.55,0,1,1,348.75,6,1.53,1.53,0,0,1,350.29,7.5Z" transform="translate(-2.2 -5.96)" fill="#e5e1bd"/><path d="M357.79,7.5A1.55,1.55,0,1,1,356.25,6,1.53,1.53,0,0,1,357.79,7.5Z" transform="translate(-2.2 -5.96)" fill="#e5e1bd"/><path d="M365.29,7.5A1.55,1.55,0,1,1,363.75,6,1.53,1.53,0,0,1,365.29,7.5Z" transform="translate(-2.2 -5.96)" fill="#e5e1bd"/><path d="M372.79,7.5A1.55,1.55,0,1,1,371.25,6,1.53,1.53,0,0,1,372.79,7.5Z" transform="translate(-2.2 -5.96)" fill="#e5e1bd"/><path d="M380.29,7.5A1.55,1.55,0,1,1,378.75,6,1.53,1.53,0,0,1,380.29,7.5Z" transform="translate(-2.2 -5.96)" fill="#e5e1bd"/><path d="M387.79,7.5A1.55,1.55,0,1,1,386.25,6,1.53,1.53,0,0,1,387.79,7.5Z" transform="translate(-2.2 -5.96)" fill="#e5e1bd"/><path d="M395.29,7.5A1.55,1.55,0,1,1,393.75,6,1.53,1.53,0,0,1,395.29,7.5Z" transform="translate(-2.2 -5.96)" fill="#e5e1bd"/><path d="M402.79,7.5A1.55,1.55,0,1,1,401.25,6,1.53,1.53,0,0,1,402.79,7.5Z" transform="translate(-2.2 -5.96)" fill="#e5e1bd"/><path d="M410.29,7.5A1.55,1.55,0,1,1,408.75,6,1.53,1.53,0,0,1,410.29,7.5Z" transform="translate(-2.2 -5.96)" fill="#e5e1bd"/></g></g></g></g></svg>