<svg xmlns="http://www.w3.org/2000/svg" width="234.25" height="41" viewBox="0 0 234.25 41"><g id="bd2d9f14-f0c5-458d-9b5a-1e4aab6e2a76" data-name="Layer 2"><g id="bb7977d2-e1e2-47d3-898f-6c0d61aa00f1" data-name="レイヤー 1"><path d="M234.25,20.5,226,24.81V36a5,5,0,0,1-5,5H5a5,5,0,0,1-5-5V5A5,5,0,0,1,5,0H221a5,5,0,0,1,5,5V15.29Z" fill="#fcedf3" fill-rule="evenodd"/><g style="isolation:isolate"><g style="isolation:isolate"><path d="M26.55,20.94a12.5,12.5,0,0,1,3-.42c2.43,0,4.35,1.3,4.35,3.47,0,1.88-1,3.29-3.49,3.91a13.73,13.73,0,0,1-2.08.26l-.73-2A11.66,11.66,0,0,0,29.59,26c1.28-.22,2.3-.88,2.3-2s-1-1.7-2.33-1.7a11.36,11.36,0,0,0-3,.43c0,1.27.08,2.48.08,3,0,2-.72,2.48-1.75,2.48-1.55,0-3.74-1.33-3.74-3,0-1.39,1.62-2.82,3.55-3.67,0-.36,0-.73,0-1.1V19.11l-.85,0c-.72,0-1.52,0-2.21-.08l0-1.92a17.76,17.76,0,0,0,2.19.13l.91,0c0-.56,0-1,0-1.3s-.07-1.1-.11-1.39H26.8c0,.29-.09,1-.13,1.38s0,.73,0,1.13a21,21,0,0,0,2.91-.59l.05,2c-.9.21-2,.37-3,.5,0,.48,0,1,0,1.43ZM24.8,25.39c0-.4,0-1.12-.05-2-1,.5-1.61,1.16-1.61,1.72s.73.92,1.15.92S24.8,25.93,24.8,25.39Zm6.53-9.13a34.48,34.48,0,0,1,3.89,2.23l-1,1.63a22.67,22.67,0,0,0-3.81-2.3Z" fill="#e73d71"/><path d="M49.57,20.15c0,3.84.18,6.87,1.11,6.87.24,0,.3-.85.33-2.15a7.22,7.22,0,0,0,1.24,1.19c-.15,2-.48,2.85-1.72,2.85-2.33,0-2.8-3.06-2.89-7.16H39.06V20.42l-.15.13a15.08,15.08,0,0,0-1.73-1.2,10.44,10.44,0,0,0,3.41-5.47l2,.41c-.13.4-.26.8-.4,1.19h9.46v1.58H41.47c-.12.26-.27.52-.41.76h9.12v1.53H41V18a13,13,0,0,1-1.62,2.14Zm-3.2,2.29a14.87,14.87,0,0,1-1.69,2.48,18.9,18.9,0,0,1,2.52,2L45.68,28.4a18,18,0,0,0-2.36-2.07,17.91,17.91,0,0,1-4.17,2.82,12.39,12.39,0,0,0-1.42-1.49,14.28,14.28,0,0,0,4.05-2.42c-.91-.61-1.84-1.17-2.69-1.65l1.36-1.25c.83.44,1.76,1,2.67,1.56a10.23,10.23,0,0,0,1.41-2.07Z" fill="#e73d71"/><path d="M69.14,15.06a10.16,10.16,0,0,1-2.38,4.39,9.73,9.73,0,0,0,3,1.25,6.49,6.49,0,0,0-1.14,1.53,9.23,9.23,0,0,1-3.23-1.6A12,12,0,0,1,62,22.3a8.66,8.66,0,0,0-.69-1.14v2.59h-2.4v1h2.64v1.67H58.93v2.51h-1.7V26.38H54.58V24.71h2.65v-1h-2.3V18h2.3v-.89H54.77V15.45h2.46V13.94h1.7v1.51h2.51v1.64H58.93V18h2.4V20.7a9.66,9.66,0,0,0,2.77-1.3,10.59,10.59,0,0,1-1.65-2.77l1.27-.34H61.86V14.66h5.75l.32-.06ZM56.29,20.25h1.14v-1H56.29Zm0,2.19h1.14v-1H56.29Zm3.62-3.15H58.72v1h1.19Zm0,2.17H58.72v1h1.19Zm6.45,5.4h3.18v1.68H61.2V26.86h3.27v-2H62.05v-1.6h2.42V21.48h1.89v1.78h2.46v1.6H66.36ZM64.05,16.29a7.86,7.86,0,0,0,1.33,2,7.49,7.49,0,0,0,1.39-2Z" fill="#e73d71"/><path d="M76,15.29a12.29,12.29,0,0,0-.38,1.4,38.55,38.55,0,0,0-.77,5.81,9.29,9.29,0,0,0,.06,1c.23-.56.48-1.09.71-1.6l1,.77a37.86,37.86,0,0,0-1.14,3.89,5.56,5.56,0,0,0-.09.73c0,.18,0,.43,0,.66l-1.83.13A20.77,20.77,0,0,1,73,22.92a43.19,43.19,0,0,1,.66-6.27,12.66,12.66,0,0,0,.16-1.56Zm3.72,7.82a5.18,5.18,0,0,0-.2,1.33c0,.71.61,1.12,2.21,1.12a18.7,18.7,0,0,0,4-.41l0,2.14a22.15,22.15,0,0,1-4.1.32c-2.74,0-4-1-4-2.61a9.72,9.72,0,0,1,.27-2.06Zm5.53-6.78v2a42.88,42.88,0,0,1-6.8,0v-2A33,33,0,0,0,85.25,16.33Z" fill="#e73d71"/><path d="M91.51,22.78a6.2,6.2,0,0,0-.26,1.6c0,1,1,1.74,3.23,1.74a22.62,22.62,0,0,0,5.57-.62l0,2.24a25.3,25.3,0,0,1-5.51.53c-3.63,0-5.44-1.22-5.44-3.4a10.47,10.47,0,0,1,.31-2.29Zm8-8.41a25,25,0,0,1,1.28,2.2l-1.29.56-.45-.88v1.9c-1.11.08-3.08.19-4.58.19-1.67,0-3-.08-4.32-.17V16.05a40.21,40.21,0,0,0,4.3.2c1.52,0,3.27-.1,4.49-.21-.23-.42-.47-.83-.69-1.15Zm1.89-.72a19.82,19.82,0,0,1,1.3,2.18l-1.27.54a16.66,16.66,0,0,0-1.29-2.2Z" fill="#e73d71"/><path d="M107.23,25.26c.63,1.07,1.75,1.52,3.38,1.58,1.92.08,5.7,0,7.91-.14a8.08,8.08,0,0,0-.59,1.86c-2,.09-5.38.12-7.33,0s-3.19-.54-4.15-1.77c-.64.62-1.3,1.23-2.11,1.92l-.9-1.89a19.13,19.13,0,0,0,2-1.47V21.9h-1.8V20.15h3.6Zm-1.13-7.17a12.6,12.6,0,0,0-2.4-2.66l1.45-1.09a14.05,14.05,0,0,1,2.52,2.55Zm5.82,6.9h-4.17V23.43h4.17v-.7h-3.34V17.29h3.34v-.66h-4V15.09h4V14h1.86v1.13H118v1.54h-4.19v.66h3.49v5.44h-3.49v.7h4.39V25h-4.39v1.48h-1.86Zm-1.61-5.61h1.61v-.76h-1.61Zm1.61,2v-.8h-1.61v.8Zm1.86-2.8v.76h1.67v-.76Zm1.67,2h-1.67v.8h1.67Z" fill="#e73d71"/><path d="M123,23.58a14.68,14.68,0,0,1-1,4.13,8.93,8.93,0,0,0-1.46-.69,11.58,11.58,0,0,0,.85-3.71Zm12.09-7.65a12.42,12.42,0,0,1-2.47,3.95A14.17,14.17,0,0,0,136,21.59a6.86,6.86,0,0,0-1.21,1.52h0v5.73h-1.85v-.59h-3.49v.65h-1.76V23.27l-.27.12a4.69,4.69,0,0,0-.5-.77l-1.06.48c0-.24-.11-.52-.19-.8l-.82.06v6.55h-1.64V22.47l-2.32.15L120.7,21l1.16,0c.24-.3.49-.66.75-1a15.12,15.12,0,0,0-1.89-2.18l.91-1.3.37.32A19.67,19.67,0,0,0,123.17,14l1.65.61c-.58,1.08-1.22,2.32-1.79,3.21l.54.64A27.67,27.67,0,0,0,125,15.83l1.56.72c-.88,1.39-2,3-3,4.31l1.54-.07c-.18-.4-.37-.8-.56-1.15l1.26-.53A17.08,17.08,0,0,1,127,21.62a12.71,12.71,0,0,0,3-1.68,16.82,16.82,0,0,1-1.31-1.49,12.11,12.11,0,0,1-1.33,1.24A5.58,5.58,0,0,0,126,18.45,10.37,10.37,0,0,0,129.51,14l1.86.29c-.17.36-.34.75-.55,1.12h2.75l.29-.08Zm-8.84,7.25a17,17,0,0,1,1,2.88l-1.41.51a19.52,19.52,0,0,0-.92-3Zm7.78-.42a15.07,15.07,0,0,1-2.7-1.66,14.06,14.06,0,0,1-2.52,1.66Zm-1.07,3.84V24.39h-3.49V26.6Zm-3.2-9.44a9.59,9.59,0,0,0,1.5,1.66A10.28,10.28,0,0,0,132.6,17h-2.77Z" fill="#e73d71"/><path d="M147.75,16c-.5.36-1,.78-1.39,1.07-1,.83-3.12,2.45-4.18,3.36-.85.72-.83.9,0,1.63,1.19,1,4.24,3.43,5.81,4.95l-1.84,1.7c-.45-.5-.94-1-1.39-1.48-.87-.91-3.28-3-4.74-4.21s-1.44-2.21.14-3.52c1.24-1,3.41-2.77,4.49-3.82a11.49,11.49,0,0,0,1.21-1.33Z" fill="#e73d71"/><path d="M160.15,18.52a30.62,30.62,0,0,1-3.07.53c-.15.67-.31,1.37-.49,2a50,50,0,0,1-2.51,7.33l-2.22-.74a35.45,35.45,0,0,0,2.73-7.13c.12-.44.24-.88.34-1.33l-1,0c-.77,0-1.36,0-1.92-.06l-.05-2a16.55,16.55,0,0,0,2,.11c.47,0,.93,0,1.41-.05.06-.34.11-.66.14-.9a8.52,8.52,0,0,0,.07-1.61L158,15c-.12.45-.26,1.15-.34,1.5l-.13.6c.9-.13,1.79-.31,2.66-.52Zm-.32,5.2a5.63,5.63,0,0,0-.23,1.33c0,.69.4,1.22,2.1,1.22A20.22,20.22,0,0,0,165,26l-.08,2a25.88,25.88,0,0,1-3.23.22c-2.68,0-4-.92-4-2.53a11.24,11.24,0,0,1,.27-2.11Zm-.93-4c.88-.09,2-.16,3-.16a26.42,26.42,0,0,1,2.79.13l0,1.92a22,22,0,0,0-2.72-.21,26.8,26.8,0,0,0-3.06.18Zm4.16-1.63a18.12,18.12,0,0,0-1.25-2.23l1.27-.52a22.33,22.33,0,0,1,1.26,2.19ZM165,14.65a18.14,18.14,0,0,1,1.29,2.17l-1.26.55a16.84,16.84,0,0,0-1.3-2.21Z" fill="#e73d71"/><path d="M180.26,18.07c-.8.22-1.73.45-2.69.64.61,1.28,1.36,2.79,2.05,4.05L178.5,24c-.86-.18-2.43-.43-3.6-.57l.18-1.64c.52.05,1.39.15,1.87.18-.38-.8-.93-1.91-1.39-2.9a35.35,35.35,0,0,1-6.68,0l-.06-2a26.87,26.87,0,0,0,5.92.16c-.13-.26-.24-.51-.34-.75a10.83,10.83,0,0,0-.78-1.52l2.24-.44c.27.84.58,1.59.93,2.42a22.67,22.67,0,0,0,3.1-.8Zm-8.66,4.4a7.3,7.3,0,0,0-.43,1.89c0,1.15.59,1.94,2.83,1.94a17.55,17.55,0,0,0,4.33-.47l-.05,2.1a22.12,22.12,0,0,1-4.28.39c-3.18,0-4.89-1.2-4.89-3.41a10.94,10.94,0,0,1,.44-2.61Z" fill="#e73d71"/><path d="M186.56,18c0,1,0,2.23.1,3.36.22,2.29.7,3.85,1.7,3.85.75,0,1.37-1.86,1.68-3.11l1.6,1.92c-1.06,2.75-2,3.73-3.33,3.73-1.73,0-3.25-1.57-3.7-5.83-.14-1.45-.18-3.29-.18-4.27a8.79,8.79,0,0,0-.11-1.6l2.43,0A12.82,12.82,0,0,0,186.56,18Zm11,6.52-2.1.8c-.24-2.55-1.09-6.28-2.82-8.23l2-.67A17.34,17.34,0,0,1,197.58,24.54Z" fill="#e73d71"/><path d="M201.22,26.19a1.47,1.47,0,0,1,1.45-1.54,1.54,1.54,0,0,1,0,3.07A1.46,1.46,0,0,1,201.22,26.19Zm.35-8.63-.08-2.23h2.37l-.08,2.23-.34,5.91h-1.53Z" fill="#e73d71"/></g></g></g></g></svg>