<svg xmlns="http://www.w3.org/2000/svg" width="514" height="70" viewBox="0 0 514 70"><g id="e0109738-6809-40bd-866a-bca5f0bfc452" data-name="Layer 2"><g id="b104a12c-a3e6-4568-ae95-d8ca4e21f20b" data-name="レイヤー 1"><path d="M0,0H70V70H0Z" fill="#eb668f" fill-rule="evenodd"/><path d="M74,0h70V70H74Z" fill="#9072b1" fill-rule="evenodd"/><path d="M148,0h70V70H148Z" fill="#2587c9" fill-rule="evenodd"/><path d="M222,0h70V70H222Z" fill="#1eb9d6" fill-rule="evenodd"/><path d="M296,0h70V70H296Z" fill="#55b87c" fill-rule="evenodd"/><path d="M370,0h70V70H370Z" fill="#8fc429" fill-rule="evenodd"/><path d="M444,0h70V70H444Z" fill="#f1bb19" fill-rule="evenodd"/><g style="isolation:isolate"><g style="isolation:isolate"><path d="M31.75,50.69a77.24,77.24,0,0,0-5.7-5.6v12.7h-3.6V44.64a40.49,40.49,0,0,1-8.35,9.65,16,16,0,0,0-2.5-2.7,35.06,35.06,0,0,0,10-11.25H12.7V37.19h9.75V31.94h-9.9V28.79h23.2v3.15h-9.7v5.25h9.3v3.15h-9.3v1.2c1.9,1.4,6.75,5.35,7.9,6.4Zm3.4-30.1H13.25v-3.1h9.2v-5h3.6v5h9.1ZM18.2,28.74a28.79,28.79,0,0,0-1.95-7.2l2.9-.75a27.65,27.65,0,0,1,2.15,7.1Zm8.2-.8a41.42,41.42,0,0,0,2.5-7.25l3.4.8a73.83,73.83,0,0,1-2.9,7.1Zm31.4,4.55H52.2v25.1H48.55V32.49H41.1v1.25c0,7.45-1,17.45-8,24.4a9.39,9.39,0,0,0-2.65-2.6c6.35-6.2,7-14.85,7-21.85V16.29l2.7.85c5.1-1.1,10.7-2.7,13.9-4.3l3,2.75c-4.25,1.9-10.5,3.4-16,4.5V29H57.8Z" fill="#fff"/><path d="M111.4,15.29c0,8.85,1.15,27.7,20.75,39.35a17.67,17.67,0,0,0-3,3.1c-12.3-7.45-17.6-18.4-19.85-27.85-3.7,13-10,22-20,27.9A24.33,24.33,0,0,0,86,54.84c11-5.75,17.2-15.8,20.25-29.8l2.2.35c-.35-2.3-.55-4.5-.65-6.4H95.5v-3.7Z" fill="#fff"/><path d="M205.25,52.74v3.6H161v-3.6H181.2V40H166.35v-3.6H181.2V25.54H169.45a42.41,42.41,0,0,1-5.25,8.15,21.58,21.58,0,0,0-3.35-2.2c4.1-4.4,7.3-11.3,9.25-18.4l3.75.8a68.63,68.63,0,0,1-2.8,8H181.2v-9.6H185v9.6h17.9v3.65H185v10.9h16.05V40H185v12.7Z" fill="#fff"/><path d="M268.25,41.39a33.33,33.33,0,0,0,12.1,5.9,13.24,13.24,0,0,0-2.4,2.9,35.09,35.09,0,0,1-7.15-3.25l-.05.4c-.55,5.7-1.1,8.2-2.2,9.2a4,4,0,0,1-3,1.1c-1.2.1-3.5,0-6,0a8.18,8.18,0,0,0-.85-3.05,51.17,51.17,0,0,0,5.4.25,2.26,2.26,0,0,0,1.65-.4c.55-.55,1-2.1,1.35-5.65H255.85c-2.15,4.65-6.3,7.65-15,9.45a9.26,9.26,0,0,0-1.85-2.9c7.2-1.3,10.95-3.45,12.9-6.55h-9.75V47a54.09,54.09,0,0,1-6.15,2.7,8.51,8.51,0,0,0-2.15-2.65A35.72,35.72,0,0,0,245,41.39H235v-3h13.2a17.35,17.35,0,0,0,2-2.85H240.8V21.89h32.65V35.54h-19.3c-.55,1-1.1,1.9-1.75,2.85h26.7v3ZM246.8,18.69H235.6V15.64h11.2V12.29h3.6v3.35h13V12.29h3.65v3.35H278.4v3.05H267.05v2.5H263.4v-2.5h-13v2.5h-3.6Zm22.5,27.25a27.73,27.73,0,0,1-5.25-4.55h-14.2A29.27,29.27,0,0,1,244,45.94h9.2a24.64,24.64,0,0,0,.8-3.55h3.65c-.2,1.25-.45,2.4-.75,3.55Zm-25-18.4H269.8v-3.2H244.35Zm0,5.55H269.8v-3.2H244.35Z" fill="#fff"/><path d="M336,45.69c4.7,3.6,11.95,6.7,18.25,8.25A15.74,15.74,0,0,0,351.8,57a56.69,56.69,0,0,1-19.1-10v10.8h-3.65V47.14a58.5,58.5,0,0,1-18.95,10.2,14.58,14.58,0,0,0-2.45-3.05,53.7,53.7,0,0,0,18.3-8.6h-17.1v-3h20.2v-3.1H314.9V24.84a50.23,50.23,0,0,1-4.7,4.5,11.12,11.12,0,0,0-2.65-2.45,44,44,0,0,0,11.8-14.7l3.85.75a60.7,60.7,0,0,1-3.15,5.25h9.65a42.29,42.29,0,0,0,2.6-6l4.15.6c-1,1.85-2.05,3.75-3,5.35h16.4v2.95h-16.3v3.35H347.9v2.65H333.55v3.3h14.5v2.65h-14.5v3.45H351.8v3H332.7v3.1h20.5v3ZM330,21.14H318.35v3.35H330Zm0,6H318.35v3.3H330Zm-11.65,9.4H330V33.09H318.35Z" fill="#fff"/><path d="M425,21.14v23.4h-3.8V41.69H406.8v16.2H403V41.69h-14.3v3.1H385V21.14H403v-8.9h3.85v8.9ZM403,38V24.79h-14.3V38Zm18.2,0V24.79H406.8V38Z" fill="#fff"/></g></g><g style="isolation:isolate"><g style="isolation:isolate"><path d="M468.08,51.23a3.31,3.31,0,1,1,6.6,0,3.3,3.3,0,1,1-6.6,0Zm1.15-29.45-.15-5.2h4.65l-.15,5.2L473,43h-3.15Z" fill="#fff"/><path d="M484.23,51.23a3.31,3.31,0,1,1,6.6,0,3.3,3.3,0,1,1-6.6,0Zm1.15-29.45-.15-5.2h4.65l-.15,5.2-.6,21.2H486Z" fill="#fff"/></g></g></g></g></svg>