<svg xmlns="http://www.w3.org/2000/svg" width="362.18" height="71.1" viewBox="0 0 362.18 71.1"><g id="ab5e4dca-59b1-4a37-b0ae-c0111743889a" data-name="Layer 2"><g id="f67b921c-a96c-4b86-9715-85f8054c9382" data-name="レイヤー 1"><path d="M360.55,37a2.34,2.34,0,0,1-3.13-1.38,23.64,23.64,0,0,0-1.19-2.44c-5.94,1.66-15.69,3.73-22.82,4.92-2.94.56-4.56-4.14-.88-4.64.74.79,1.57.41,2.35-.32,2.25-4,7.67-17.53,8.23-23.28a2.55,2.55,0,1,1,5,1,218.11,218.11,0,0,1-7.91,21.4c5.28-.22,9.85-2,13.43-2a13.92,13.92,0,0,0-3.49-4.63c-1.29-1.84,1.61-5.06,3.45-2.76,2.21,2,7,6.67,8.46,10.81A2.68,2.68,0,0,1,360.55,37Zm-58.66,1.89c-3.77,1.15-5.47-3.41-1.79-4.37,9.06-2.44,14.91-8,17-13.85.46-1.24.23-2-1.52-2-4.7-.09-13.25.05-18.18.23-3.26.14-3.68-4.23-.13-4.32,5.93-.14,13.76.69,19.92-.14,4.6,0,6.85,2.62,5,7.13C319.06,29.21,313.3,35.38,301.89,38.88Zm14.63-28.71c-4.32,0-10.67.57-15.64,0-3-.1-3.22-4.33.32-4.28,4.42.05,10.86.05,15.51,0A2.24,2.24,0,0,1,319.19,8C319.19,9.11,318.41,10.17,316.52,10.17ZM279.28,70.76c-.28,0-.44-.2-.44.34,0-1,.49-1.16.32-1.26a9.35,9.35,0,0,0,0-16.48c.15-.12-.34-.32-.34-.5s.22,0,.56,0c.64,0,5.72,2.32,5.72,8.62S280,70.76,279.28,70.76Zm2.2-35.52c-6.77-.23-16-.27-22,.14-2.71.18-3-4-.14-3.85,3.08-.34,7.59-.43,12.24-.43a30.27,30.27,0,0,1,2-6.12c-.46-.38-.46-1.1-1.51-1.1-1.94,0-4.3-.05-7.66.09s-2.91-3.87-.76-4c4-.13,8.23,0,10.53,0a3.6,3.6,0,0,1,3.45,4.64,39.73,39.73,0,0,0-1.15,6.4c1.79,0,3.36,0,5.11.09C284.42,31.53,284.19,36,281.48,35.24ZM255.16,70.18a1.88,1.88,0,0,1-.76-.3,15.94,15.94,0,0,1-4.28-9.1h-1.78c-.24,3.88-1,7.16-2.94,9.28-.22.44-.29.32-.74.32a1.11,1.11,0,0,1-1.12-1,.71.71,0,0,1,.22-.52c2.36-2.4,2.82-6.4,2.82-10.08,0-1.08,0-2.16-.08-3.18v-.08a1.94,1.94,0,0,1,2-2c.76,0,1.52,0,2.28,0s1.52,0,2.24,0a2,2,0,0,1,2.06,1.94c0,.36.08,1.2.08,2,0,2.22-.12,3.34-2.62,3.34A13.82,13.82,0,0,0,256,69.1c.26-.54.36-.3.36-.06A1.24,1.24,0,0,1,255.16,70.18Zm-2-11.09c0-1.07.06-1.49.06-1.93s0-1-.06-1.38c0-.64,0-.64-2.44-.64-1.24,0-2.34,0-2.34.8V56c0,.54,0,1.12,0,1.72,0,.44,0,.9,0,1.36h4.78ZM234.86,25.67c1.47,5.2,2.8,9,3.68,11.69.55,1.7-.42,3.35-1.52,3.36a2.16,2.16,0,0,1-2.9-1.66c-.74-2.85-2-7.36-3.5-12.15-4.09,1.25-8.1,2.49-10.9,3.45-3,1-4.42-3.26-1-4.32,2.67-.83,6.54-2,10.63-3.22a9.48,9.48,0,0,1-.68-4.74c-3.64.78-6.45,1.57-8.84,2.12-3.32.78-4.19-3.41-1.15-4.1,2.53-.55,5.7-1.24,8-2-.92-2.94-1.8-5.47-2.35-7.17-1.06-3.13,4.12-3.87,4.37-1.34.46,1.77,2,4.28,2.21,7.32,2.62-.74,5.1-1.57,7.27-2.26,3-1,4,3.22,1.15,4.1-2.07.64-4.56,1.42-7.18,2.16l1.43,4.69c3.72-1.05,7.45-2.11,10.26-2.85,3.58-.92,4.18,3.59,1.33,4.14C242.54,23.51,238.77,24.52,234.86,25.67Zm-25.75,38c-.93,0-1.33-.94-1.33-2.12,0-.43.4-2.12,1.33-2.12,1.18,0,2.12,1.69,2.12,2.12A2.11,2.11,0,0,1,209.11,63.64ZM189.32,41.16c-3.77,1.35-5.79-3-2.9-4.58,8.15-4.51,10-10.68,10-17.53,0-3.59-.23-9.3-.23-12.93,0-3,5-2.31,4.92,0-.09,3.91.14,9.06.14,12.88C201.24,26.91,198.85,34.87,189.32,41.16Zm-3.26-15.72a2.26,2.26,0,0,1-2.4-2.35c.65-4.55.14-11.22-.09-16.14-.14-2.86,4.6-3.09,4.79-.19.23,4.14.23,12,.14,16.29A2.39,2.39,0,0,1,186.06,25.44Zm-3.47,31.64c-.28-.3-1.26-1-1.4-1.14-.49-.4-.56-.86.38-1.3.54.18,1.56,1.24,2,1.14C184.39,56.58,183.27,57.84,182.59,57.08Zm-1.84,1.78a7.07,7.07,0,0,0-1.64-1.2c-1-.42-.22-1.64.7-1.3a6.25,6.25,0,0,1,2,1.22C182.57,58.42,181.41,59.64,180.75,58.86Zm-1.68,2.26a49.53,49.53,0,0,1-6.5,1.82c-.2.88-.4,1.68,0,2.24-.73,1-.29,1.46.91,1.62a41.3,41.3,0,0,0,5.82-.14c1.52-.92,2.38,1.24.42,1.76a21.06,21.06,0,0,1-7,.28c-1.76-.22-2.22-.6-2.42-3-.2-2-.3-6.46-.28-8.84,0-1.4,2.06-1.12,2,.06s-.06,2.58-.1,4.06a39.16,39.16,0,0,0,6.3-1.86A1.08,1.08,0,1,1,179.07,61.12ZM151.15,36.58c-2.34-1.94.09-5.94,2.95-3.78a4.1,4.1,0,0,0,6.44-1.29c1.79-2.66,2.48-9,2.53-11.41a2.49,2.49,0,0,0-2.53-2.71c-1.43.74-3.18,0-5,0-1.93,8.37-6.35,17.48-13.77,22.65-3.71.91-6.61-2.91-2.93-4.89a24.3,24.3,0,0,0,12-17.71c-2.89,0-5.75.18-8.05.27-3.68.19-3.4-4-.32-4.14a36.58,36.58,0,0,1,9.16.54c.27-2.71.68-4.91.68-6.73-.36-3.61,4.56-3.24,4.52.07a46,46,0,0,1-.47,6.2c1.89,0,4.46,0,5.3.46a4.84,4.84,0,0,1,6.07,4.94c-.14,4.64-1,11.31-2.95,14.76C161.87,38.88,155.66,40.71,151.15,36.58ZM138.62,56c-.08-.92,2-1.56,2,0,0,.8,0,1.68,0,2.58,1.28,0,2.56,0,3.76,0,1.88,0,1.46,2,.06,1.94-1.24,0-2.32-.06-3.8-.06v.38a10,10,0,0,1-5.3,9.14c-1.6.92-2.23-.92-1.16-1,3.1-2.28,4.48-4.82,4.48-8V60.4c-1.08,0-2.14,0-3.2,0,0,1.14,0,2.2,0,3s-.33,1-1,1a1,1,0,0,1-1-1c0-.82.06-1.86.06-3l-3.62.14a1,1,0,1,1-.12-1.86c1.37,0,2.46-.06,3.72-.08,0-.94,0-1.82-.08-2.5a1,1,0,1,1,2-.08c0,.66.06,1.56.08,2.54l3.22-.06C138.64,57.54,138.64,56.56,138.62,56ZM125.31,17.71c-2.16-.7-4.51-2.07-7.17-1.93s-2.72-3.68.22-4a14.64,14.64,0,0,1,8.47,1.61C130.49,15.89,127.57,19.14,125.31,17.71Zm-16-5.52a115.69,115.69,0,0,1-8.24,15.51c-1.7,2.76-5.27,1-4.09-2a90.1,90.1,0,0,0,7.54-12.56,12.53,12.53,0,0,1-6.07-.23,2.1,2.1,0,1,1,1.33-4,12.36,12.36,0,0,0,6.31-.14,27.34,27.34,0,0,0,.92-4.65c.41-2.71,4.46-2.21,4.37.41a15.18,15.18,0,0,1-.65,2.81,12.56,12.56,0,0,0,1.48-.78c2.07-1.47,5,1.38,2,3.49A17.52,17.52,0,0,1,109.35,12.19ZM96.69,55.68h7.9s1.21.06,1.21.5-1.21.92-1.21.92h-8.7c-.28.56-.58,1.1-.88,1.64,1.37,0,2,0,3.08,0,.68,0,1.32,0,2.69,0a1.77,1.77,0,0,1,1.59,1.7c0,.92,0,4.44,0,5.26l0,2v0c0,1.22-.88,2.7-3.58,2.7-1.72,0-2.24-.34-2.24-1.1,0-.46.75-.92.88-.92a.82.82,0,0,1,.22,0,7.82,7.82,0,0,0,1.34.14c1.52,0,1.52-.7,1.52-2.22H94.25v3.46a.92.92,0,0,1-1,.94.89.89,0,0,1-.94-.92c0-.38.06-4.22.14-7.52-.6.7-2.48,2.74-3.42,2.74a1,1,0,0,1-1-.92,1,1,0,0,1,.48-.82,17.4,17.4,0,0,0,5.22-6.26H89.19a.9.9,0,0,1-1-.9c0-.46.32-.52,1-.52h5.4c.26-1,.5-1.68.68-1.6.14-1.22.52-1.42.92-1.42a1,1,0,0,1,1.1.9A10.11,10.11,0,0,1,96.69,55.68Zm-2.42,9.24h6.34V63.38H94.27ZM94.33,61c0,.45,0,.52,0,.86h6.28c0-.38,0-.66,0-.86,0-.55.13-.55-2.88-.55C94.85,60.49,94.37,60.49,94.33,61ZM67.23,40.76a2.46,2.46,0,0,1-2.63-2.25,2.11,2.11,0,0,1,1.8-2A26.5,26.5,0,0,0,82.55,25a2.27,2.27,0,0,1,1.93-1.2,2.75,2.75,0,0,1,2.59,2.58c0,.46-.29,1.56-.61,1.38C80.29,37.08,69.53,40.76,67.23,40.76Zm2.94-13.62a2.32,2.32,0,0,1-2.35-2.3A2,2,0,0,1,69.16,23c5.47-2.34,9-5.75,12.24-10.21,1-.78,1.24-1.1,1.88-1.1a2.57,2.57,0,0,1,2.4,2.53C85.68,17.21,74.08,27.14,70.17,27.14Zm.32-12.51a2.26,2.26,0,0,1-2.3-2.21,2.08,2.08,0,0,1,1.34-1.93C75,8,78.36,5.11,80.8,1.56a2.31,2.31,0,0,1,1.84-1C83.88.55,85.75,1.7,85.75,3c0,.51-1,1-1.27,1.43C80.06,10.21,72.61,14.63,70.49,14.63ZM62,17.07a1.82,1.82,0,0,1-1.94-1.57,1.55,1.55,0,0,1,.42-1.05c1.65-2,2.67-4.24,4-6.22-.26-.64.29-.39.93-.39,1.11,0,2.39.3,2.39,1.78a33.93,33.93,0,0,1-4.09,6.93A3.4,3.4,0,0,1,62,17.07ZM48,8.14a1.83,1.83,0,0,1-1.93-1.93c0-1,.64-2.07,2.74-2.07A58.19,58.19,0,0,0,64.5,1.47c-.26-.09,0,.56.2.56,1.19,0,2,.36,2,1.42a2.17,2.17,0,0,1-1.56,2C59.82,7.5,49.28,8.14,48,8.14Zm1.57,6.54c-.1-1.57-1.11-1.89-1.22-2.53-.72-.33-.86-.65-.86-1A2.09,2.09,0,0,1,49.7,9.43c1.42,0,3.54,2.58,3.54,4.14A2.29,2.29,0,0,1,51,15.69,1.43,1.43,0,0,1,49.61,14.68Zm7.82-.14a1.49,1.49,0,0,1-1.57-1.29c-.37-1.61-.78-2.26-1.15-2.51a6,6,0,0,1-.18-1.08c0-.92,1.06-1.52,2.07-1.52,2.16,0,3.08,4.39,3.08,4.33A2.26,2.26,0,0,1,57.43,14.54Zm-9.62,8.92c-1.29,0-1.66-.92-1.66-1.84s.42-1.93,1.66-1.93h0l7.54,0L55.26,17a1.92,1.92,0,0,1,2.08-2,2,2,0,0,1,2.11,1.93V17l-.09,2.76,7,0h0a1.81,1.81,0,0,1,1.84,1.93,1.76,1.76,0,0,1-1.84,1.84h0l-7,0v2.88a1.83,1.83,0,0,1,1.29-.51c1.65,0,5,2.21,6.26,3.71.55.21.78,1.31.78,1.36a2.23,2.23,0,0,1-2.12,2.21,2.1,2.1,0,0,1-1.47-.69,11.32,11.32,0,0,0-4.51-3.27c0-.05-.13-.05-.18-.09l.09,10.39v.05a2.35,2.35,0,0,1-2.07,2.31,2.4,2.4,0,0,1-2.12-2.36v0l.14-11.6c-1.88,2.86-4.18,6.41-7.22,8a2.54,2.54,0,0,1-1.66.65,2.18,2.18,0,0,1-2.2-2,2,2,0,0,1,1-1.7,41.24,41.24,0,0,0,9.15-8.77l-6.62-.48ZM6.48,41.54c-1.66,0-2.12-.38-2.12-2.34,0-1.06.32-2.12,1.93-2.17,5.84-.27,11.41-1,16.11-4.32-1.11-.78-2.21-1.18-3.59-2a1.31,1.31,0,0,1-1-1.24,2.76,2.76,0,0,1,2.58-2.39c1.24,0,4.69,1.93,6.31,3.26,3.07-2.89,5.79-6.76,5.79-7.4,0-.32-.23-.14-.74-.14-1.48,0-4.58-.46-7.73-.41-5.34,4.73-12.93,9.15-14.95,9.15a2.59,2.59,0,0,1-2.35-1.35c0-1.64.46-2.42,1.52-2.84,6-2.25,11.92-5.21,16.33-11.54a2.32,2.32,0,0,1,1.84-1,2.29,2.29,0,0,1,2.35,2.07c0,1.2-.14.83-.51,1.24s-.5.51-.73.78c2.34,0,5-.09,6.81-.09,2.44.05,4,1.24,4,2.81,0,.83-.68,1.7-1.23,2.93C27.18,41,7.54,41.54,6.48,41.54ZM2.15,25.9A2,2,0,0,1,0,23.83a2.11,2.11,0,0,1,1.88-2.07A59.14,59.14,0,0,0,14.57,17,5.2,5.2,0,0,0,11.77,15c-.74-.27-1-.73-1-1.19a2.68,2.68,0,0,1,2.58-2.26,9.88,9.88,0,0,1,4.56,2.35,28.53,28.53,0,0,0,5.79-6c0-.8-.18-1.08-.64-1.08-1.52,0-4.23,0-6.95,0-3.45,4.4-10.53,9-12.65,9a2.11,2.11,0,0,1-2.16-2.07,2.06,2.06,0,0,1,1.24-1.79A39.52,39.52,0,0,0,15.72,1a3.35,3.35,0,0,1,1.84-1,2.15,2.15,0,0,1,2.26,1.93,1.3,1.3,0,0,1-.42,1.15l-.32.37c2.07-.05,4.33-.09,5.94-.09,2.48,0,3.68,1.47,3.68,3.22,0,.83-.28,2.38-.88,2.53C17.75,22.73,3,25.9,2.15,25.9Zm83.54,27c.34,0,.56-.3.56,0s-.1.38.55.5c-4.19,1.68-5,5.2-5,8.14,0,3.3.89,6.62,4.41,8.34,0,.1.06.3.06,1.26,0-.54-.16-.34-.44-.34-.72,0-5.23-2.92-5.23-9.26S85.05,52.88,85.69,52.88Zm20.67-23.34a15.07,15.07,0,0,1,8.83-.88V27.05c0-1.15-.09-2.3-.14-3.45a14.29,14.29,0,0,1,.23-3.08c.55-2.53,4.6-1.93,4.14,1.64-.13-.12-.27.38-.27,1.35s0,2.21,0,3.54c0,.88.14,1.84.19,2.85,2.44,1,4.46,3.21,6.42,3.68,1.81,2.9-1.91,6.17-4.12,3.5.09-.83-1.57-1.66-2.63-2.39-1.33,3.68-6.45,6.9-12.65,4.09C102.12,36.62,101.62,31.65,106.36,29.54Zm1.76,5.88c2.56,1.39,6.29,0,6.93-2.43.46-.14,0-.33.46-.46-2.9-.79-5.38-.88-7.63.23C106.63,33.4,106.54,34.74,108.12,35.42Zm1.64,22.48c-.28-.68-.36-1.52-1.07-1.78a.69.69,0,0,1-.18-.42c0-.22,1.24-.74.93-.74.9,0,1.9,2,1.9,2.46a.93.93,0,0,1-.91.94C110.16,58.36,110.4,58.22,109.76,57.9Zm1.78,3v-.06l-2.25,0h0a.78.78,0,0,1-.86-.8.87.87,0,0,1,.89-.9h2.23l0-5.38v0c0-.58.88-.88,1-.88,1,0,1,.3,1,.88v0s0,1.66-.06,3.6c0-.06.06.26.1-.18a12.7,12.7,0,0,1,1.14-1.56c.14-.68.78-.8.64-.8a1.16,1.16,0,0,1,.94.86c0,.38-.8,2.14-1.46,2.34-.18.41-.4.3-.62.3a.79.79,0,0,1-.74-.46l0,1.28h2.13c1.13,0,.82.42.82.84s.31.86-.81.86h0l-2.14,0v1a.85.85,0,0,1,.4-.1c.47,0,2.32,1.28,2.32,2,0,1.27-.46,1-.93,1a.8.8,0,0,1-.64-.34,8.63,8.63,0,0,0-1.15-1.28c0,2.92.1,6.54.1,6.54v0c0,.94,0,.82-1,.82a.79.79,0,0,1-1-.82v0l.07-6c-1.82,3-2.47,3.1-2.79,3.1a1,1,0,0,1-1-.9.83.83,0,0,1,.34-.64C109.16,65.09,110.61,62.62,111.54,60.92Zm6-1.72a5.8,5.8,0,0,1,2.52,1.18,1.08,1.08,0,0,1,.4.82,1,1,0,0,1-.88,1,.93.93,0,0,1-.62-.26,10.85,10.85,0,0,0-2-1.26c-.32-.16-.46-.1-.46-.64A.94.94,0,0,1,117.59,59.2Zm.57-4.22a6.91,6.91,0,0,1,2.25,1.46,1.09,1.09,0,0,1,.3.76,1,1,0,0,1-.9,1,.89.89,0,0,1-.66-.34,8,8,0,0,0-1.84-1.46c-.26.06,0-.34,0-.56C117.36,55.42,117.39,55,118.16,55Zm3.47,8.26,0-9.46a.86.86,0,0,1,.94-.86.91.91,0,0,1,1,.86l0,8.94,1.86-.52a1.57,1.57,0,0,1,.28,0,.89.89,0,0,1,.86.9.81.81,0,0,1-.64.8l-2.36.66,0,5.16c0,.52-.48.78-1,.78s-1-.26-1-.78l0-4.64-5.08,1.42a.94.94,0,0,1-.32,0,.84.84,0,0,1-.84-.86,1.14,1.14,0,0,1,.68-.86Zm28.7-2.7h12.56a1,1,0,1,1,0,2H150.33a1,1,0,0,1-1.06-1A1,1,0,0,1,150.33,60.54Zm45.18-1.16c.18-.34.1-.66-.34-.66-1.17,0-4,.08-5.78.12a1,1,0,0,1,0-1.94c1.46-.06,4.4-.1,6.42-.1,1.8,0,2.82,1.14,2,2.89-.68.79-1.4,1.93-2.22,3,1.66,1,4.2,2.68,5.12,4,.8,1.12-.7,3.44-1.64,1.5a20.81,20.81,0,0,0-4.68-4,16.9,16.9,0,0,1-6.66,4.62c-1.46.94-2.14-.66-.64-1.94A15.28,15.28,0,0,0,195.51,59.38Zm26.08-1.8a.53.53,0,0,1-.56-.42c-.64-.8-1.52-1.42-1.6-1.74-.76,0-.88-.38-.88-.62a1,1,0,0,1,1-.9c.6,0,3.1,1.54,3.1,2.56A1.17,1.17,0,0,1,221.59,57.58ZM230.33,65A9.11,9.11,0,0,0,233.8,66a.72.72,0,0,1,.72.74.9.9,0,0,1-.91.9,11.31,11.31,0,0,1-4.08-1.44.64.64,0,0,1-.36-.58,1.44,1.44,0,0,1,1.27-.8C230.07,64.86,230.21,64.9,230.33,65Zm3.94-1.47c.5,0,.75.13.75.49,0,.91-.25.7-.75.7l-5.54,0-5.32,0c-.38,0-.74.21-.74-.7,0-.36.36-.49.74-.49l2.66.2V62.08l-1.92,0a.69.69,0,1,1,0-1.38l1.92,0v-.56a.6.6,0,0,1,.42-.56c-.22,0-.44,0-.66,0-2,0-2.74-.26-2.74-2.16,0-.64,0-1.66,1.58-1.66h1.16c.58,0,.76,0,.76-.46,0-.28,0-.36-.32-.38h-2.56a.65.65,0,0,1-.7-.5c0-.56.24-.92.68-.94h.68l2.34,0c1.06,0,1.46.44,1.46,1.86,0,1.7-.46,1.7-3.12,1.7-.32,0-.36.44-.36.66,0,.71.16.91,1.18.91.68,0,1.2-.13,1.24-1a.68.68,0,0,1,.74-.64,1.11,1.11,0,0,1,.88.74c0,.8-.4,2.35-1.62,1.8.34.06.66.26.66.64v.56l1,0h.92v-.58c0-.38,1-.6.68-.64-.69,0-.69-.45-.69-1.82,0-.9.2-1.9.89-1.9h1.22c.72,0,.78,0,.78-.46,0-.28,0-.36-.31-.38h-2.71a1,1,0,0,1-.68-.3c0-.76.24-1.12.68-1.14h.68l2.45,0c1.16,0,1.47.54,1.47,1.86,0,1.66-.37,1.7-3.22,1.7-.38,0-.38.56-.38.64,0,.8.08.93,1.26.93,1,0,1.47-.13,1.5-1.15a.69.69,0,0,1,.75-.64c.43,0,1,.28,1,.76,0,1.84-1.88,2-3.25,2a1.91,1.91,0,0,1-.56,0c-.07.1.11.28.11.56v.56l2.09,0c.81,0,.73.34.73.68s.08.7-.73.7l-2.09,0v1.61Zm-4.62-1.41-.92,0-1,0v1.61l1,.2.9-.2Zm-9.08,4.3c0-.68.08-2,.08-2.92,0-.7,0-.92-.84-.92-.32,0-.58,0-.58,0-.58,0-.6,0-.6-.86,0-.14-.38-.9.14-.9h2.06c.58,0,1.68.16,1.68,1.88,0,1.16-.08,2.52-.08,3.8.24.3,1.2.58.9,1.42-.1-.72-.14-.9-.14-1.06a.64.64,0,0,1,.64-.66,5.9,5.9,0,0,0,3-1.14c.79-.1.26-.14.38-.14.38,0,1,1,1,.82,0,.22-.39.44-.61,1a30.78,30.78,0,0,1-3.46,1h.06c.46.4,1.58.8,4.38.8a28.23,28.23,0,0,0,5.86-.34h.11a.93.93,0,0,1,.95,1,1,1,0,0,1-1,1c-1.26.12-3.14.24-5,.24-5,0-6.6-.9-8-2.46-.56.64-2.08,2.76-2.86,2.76-.56,0-1.06-.92-1.06-1.44a.87.87,0,0,1,.48-.74A8,8,0,0,0,220.57,66.38Zm18.77-2.14a1,1,0,0,1-1-.55c0-.77.24-1.17.74-1.31a23.5,23.5,0,0,0,2.36-.7v-3h-2a1,1,0,0,1-.86-.88c0,.12.47-.88.86-.88h2l0-3.2c0-.62.85-.94,1-.94a.84.84,0,0,1,.94.94v3.2H245c.6,0,.88,1,.88.88a.84.84,0,0,1-.88.88h-1.64V61a9.92,9.92,0,0,0,1.5-.64c.86.69.24.49.34.49.44,0,1.32-.17,1.32.25,0,.64-.92.78-3.18,1.74v2.3c0,.32.06,2.72.08,2.84v.08c0,1.26-.82,3-2.56,3a1.84,1.84,0,0,1-1.8-1.44c0-.86.28-.56.78-.56.16,0,.67,0,.18-.74a3.11,3.11,0,0,0,.64.08c.42,0,.82.26.82-.66V63.6A8.15,8.15,0,0,1,239.34,64.24ZM260.19,59h3V57.4h-1.68c-.44.82-.78,1.26-1.32,1.26s-.92,0-.92-.78a.7.7,0,0,1,.14-.42,7.65,7.65,0,0,0,1.4-2.9.73.73,0,0,1,.76-.52c.46,0,.94.84.94.74a3,3,0,0,1-.32,1.08l1,0v-2a1,1,0,0,1,.92-.84c.44,0,1.7.48,1.7.84v2l1.8,0a.77.77,0,1,1,0,1.54h-1.8V59h2.5a.77.77,0,1,1,0,1.54l-2.5,0v1.4l.72,0c1.32,0,1.9.64,1.9,1.88,0,.58,0,1.62,0,2.3v.52c0,.76.17,2-1.86,2a1.18,1.18,0,0,1-1.28-1.28c0-.4.2-.8.58-.8,0,0,.33,0,.73,0-.53,0-.43,0-.35,0,.26,0,.48-.12.48-.62,0,0,0-1.34,0-1.92s-.48-.76-.92-.76v6c0,.62-1.26,1.5-1.7,1.5s-.92-.88-.92-1.5v-6c-1.32,0-1.62.06-1.62.76v1c0,.86,0,1.88,0,2.62v0c0,1-.44.84-.86.84s-.88.12-.88-.84c0-.54,0-1.24,0-2s0-.69,0-2c.06-1.86,1.76-1.86,3.34-1.86v-1.4l-3,0c-.8,0-1.08-.38-1.08-.78S259.39,59,260.19,59ZM271,55.08c.37,0,.85-.44.85.16V65.36a.83.83,0,0,1-.85.84c-.55,0-.2-.28-.2-.84V55.24C270.8,54.64,270.45,55.08,271,55.08Zm.2,13c-.19,0-.13,0-.05,0,.4.08.9.62,1.36.62s1.12-.62,1.14-1.46,0-6.24,0-9.16V54.2c0-.6.48-.52,1-.52s1-.08,1,.52v11l0,2.4v0c0,1.2-.8,2.6-3.24,2.6-1.62,0-2.32-.28-2.32-1.14A1,1,0,0,1,271.2,68.06Z" fill-rule="evenodd"/></g></g></svg>