<svg xmlns="http://www.w3.org/2000/svg" width="245.39" height="35.47" viewBox="0 0 245.39 35.47"><g id="a84ef29e-d92c-4e73-b4f5-93d53731ccf5" data-name="Layer 2"><g id="a50487d2-db75-4407-8e89-e36154886aaa" data-name="4"><path d="M241.58,30.84a32.2,32.2,0,0,0-9.36-8A33.77,33.77,0,0,1,218.9,32c-2.92,1.08-4.28-2.84-1.28-3.87,7.28-1.78,13.6-8.92,16.76-14.88A.82.82,0,0,0,233.7,12c-2.52,0-8,.16-11.56.24-2.4.08-2.55-3.76,0-3.88,2.92-.12,8.8-.2,12.84-.2,3.6,0,5.64,2.28,4.08,5a64,64,0,0,1-4.44,6.8c3.32,2,8.4,5.36,10.24,7.92C246.62,30.08,243.63,33.19,241.58,30.84Zm-41.43-7.56c-2,2.39-5.24.11-3-2.29A48.57,48.57,0,0,0,201.27,16c.72-1.08.44-1-.56-.8-1.4.44-5.36,2-9.4,3.72-.12,2.44-.2,5-.28,6.12-.08,2,.92,3,3.32,3.24,2.37.53,5.76,0,8.6-.84,4.15-1.13,5.32,3.27.8,4.31a14.83,14.83,0,0,1-10.88.4c-3.52-.44-5.72-2.21-5.64-5.87,0-1.4.08-3.4.12-4.93a36.19,36.19,0,0,0-6.76,2.09c-2.76,1.91-4-2.64-1.48-3.44.8-.24,4.28-1.68,8.63-3.32-.19-3.28-.15-6.6-.15-9,0-2.68,4.08-2.24,4.08.43,0,1.53-.12,4.21.06,6.93,3.86-1.68,7.9-3.24,9.82-3.92,3.56-1,6,1,4.72,3.72A28.32,28.32,0,0,1,200.15,23.28ZM148.89,33.87c-2.94,1.32-5-2.6-1.72-3.76C156.05,27,162.65,19,165.61,12.24c.32-.76,0-1.52-1-1.48-1.68,0-4.6.32-6.4.52a32.89,32.89,0,0,1-9,9.68c-2.68,1.8-5-1.64-2.32-2.56,3.84-3.12,9-10.48,10.88-13.64,1.32-2.24,5.32-.32,3.44,2.36l-.28.4c1.72-.12,3.68-.28,5.28-.36,3.08-.16,5.76,2,5.06,4.84C165.65,21.32,160.13,29.43,148.89,33.87ZM127.61,19.2a2.6,2.6,0,0,1-2.28-.12c-1,6.11-4,10.87-9.91,14.59a2.72,2.72,0,0,1-3.76-.36c-.68-.92-.52-2.31,1.08-3.12,6.84-3.32,9-9.91,8.4-15.71A2,2,0,0,1,123.33,12a2.63,2.63,0,0,1,2.4,2.28c0,.48,0,1,0,1.48.13,0,.21-.12.32.6A27.79,27.79,0,0,0,133.29,11c.6-1.25.6-1.85-.44-1.85-4.48,0-13.19.08-18.79.36-2.67.16-3.32-3.68-.32-3.84,6.64-.28,14.51-.24,20.51-.24,4.16,0,6.08,3.48,4.1,6.64C134.89,15.08,132,18.4,127.61,19.2Zm-25.5,13.7A7.79,7.79,0,0,1,97,30.35c-.06-.06-.09-.06-.12-.06a.27.27,0,0,0-.21.09,11,11,0,0,1-7,2.82,6.54,6.54,0,0,1-6.81-6.42c0-2.87,2.12-4.7,4.82-6.75.6-.05-.11-.11-.11-.18s0-.05.71-.11c-2.33-1.77-3-3.31-3-4.72a5.12,5.12,0,0,1,5.28-4.95c3.73,0,5,2.23,5,4.83,0,2.1-1,3.43-3.51,5.22a.19.19,0,0,0-.09.15.25.25,0,0,0,.09.15c1.9,1.5,3,3.27,4.53,4.95.09.1.12.13.18.13a17.92,17.92,0,0,0,3.06-6.31,1.4,1.4,0,0,1,1.41-1,1.71,1.71,0,0,1,1.8,1.59,21.39,21.39,0,0,1-4,8,.39.39,0,0,0-.06.14.3.3,0,0,0,.09.19,4.69,4.69,0,0,0,3.06,1.58c.39,0,.75.11,1.11-.24.61-.09.39-.12.57-.12a1.63,1.63,0,0,1,1.5,1.68C105.35,31.49,105.11,32.9,102.11,32.9Zm-9.32-18c0-2-2.2-2-2.09-2a2.31,2.31,0,0,0-2.3,2.37,4.39,4.39,0,0,0,1.47,2.81.12.12,0,0,0,.09.06.42.42,0,0,0,.21-.08C91.67,16.92,92.79,16.17,92.79,14.9ZM89.8,22C89.36,22,86,24.06,86,26.72c0,2.15,1.67,3.39,3.72,3.39a8,8,0,0,0,5-2.27S89.93,22,89.8,22ZM76.29,35c-1.72,0-6.28-1.76-9.68-4.59a17.88,17.88,0,0,1-10,5.07,2.22,2.22,0,0,1-2-1.1,26,26,0,0,0-4.92-.18c-1.12,0-1.39,0-3.08-.08A3.1,3.1,0,0,1,43.57,31a3.28,3.28,0,0,0,.76-2.47,4.72,4.72,0,0,0-.76-3.16,3,3,0,0,1,3-3l3-.08c1.28,0,2.52,0,3.48.08,1.56.08,3.28,1.12,3.32,2.83,0,.92,0,1.92,0,2.92s0,2,0,2.88a2.37,2.37,0,0,1-.16.92,17.9,17.9,0,0,0,7.84-4,12.66,12.66,0,0,1-3-6.11,1.85,1.85,0,0,1,1.33-1.68,1.53,1.53,0,0,1,1.48,1c.72,2.35,2.19,3,3.45,4.31a10,10,0,0,0,2.31-5.63c0-.48-.6-.52-.88-.52H66.17c-2.48,0-5.28,0-7.48.08h0a1.6,1.6,0,0,1-1.44-.88c0-1.56.48-2.4,1.4-2.4,1.56,0,3.6,0,5.72,0,2.61,0,4.28,0,6.08,0,2.56,0,3.52,1.48,3.52,3,0,2.28-2,6.12-4.76,8.8A19.82,19.82,0,0,0,77,31.11c1,.2,1.91,1,1.91,1.8A2.45,2.45,0,0,1,76.29,35ZM52.85,26.32c-.08-1-1-1.08-3-1.08-.56,0-1.12,0-1.72,0C47,25.35,47,26,47,28.16c0,.64,0,1.27,0,1.87,0,.84.8,1,2.84,1,2.28,0,3-.25,3-1,0-.57,0-1.2,0-1.84S52.89,26.87,52.85,26.32Zm19.8-11.88c-4.28,0-4.72-1.6-4.72-4.64,0-1.48,0-2.78,0-4.4,0-1.12-.92-1.16-1.68-1.16-1.44,0-2.4,0-2.4,1.24,0,3.72,0,6.64-3.6,9.52-.44,0-.92.08-1.36.08a2.06,2.06,0,0,1-2.08-1.88c0-.44.2-.88,1.46-1.2,1.54-1.52,2-3.12,2-6,0-.48,0-1,0-1.56V4.36C60.25,1.2,64,1,65.61,1c4.76,0,6,.48,6,4.8,0,1.28.68,2.32.68,3.44v.56c0,1.57-.4,1.32.52,1.32,1.36,0,1.52-1,1.52-2.44v-.4c0-1,.8-1.36,1.64-1.36s1.92.52,1.92,1.4V9.41C77.89,13.52,75.69,14.44,72.65,14.44Zm-18.6.68H45.73A1.62,1.62,0,0,1,44,13.48c0-.07.56-1.64,1.72-1.64h8.32c1.12,0,1.68,1.57,1.68,1.64A1.6,1.6,0,0,1,54.05,15.12Zm0,5.16H45.73A2.09,2.09,0,0,1,44,19.39c0-1.59.6-2.39,1.76-2.39h8.32c1.12,0,1.68.8,1.68,2.39A2,2,0,0,1,54.05,20.28Zm1.8-10.36H44a1.66,1.66,0,0,1-1.76-1.68c0-.84.6-1.09,1.76-1.09H55.85c1.2,0,1.76.25,1.76,1.09A1.64,1.64,0,0,1,55.85,9.92ZM54,4.44H45.65c-.31,0-1.84-.42-1.84-1.64,0-.84,1.53-1.64,1.84-1.64H54A1.58,1.58,0,0,1,55.65,2.8C55.65,4,55.09,4.44,54,4.44Zm-22.86,30a14.48,14.48,0,0,1-3.91.5c-5.76,0-8.52-.5-8.6-4.73,0-2.26,0-5.49,0-8.32l-1,.48c-.28.12-.52.59-.76.59-.88,0-1.52-1.23-1.52-2.07,0-.52.24-1,.88-1l2.4-1.59c0-1.48,0-2.88,0-4.28,0-1.12,1.54-1.64,1.72-1.64A1.56,1.56,0,0,1,22,14v0c0,.84,0,1.76,0,2.68l2.72-1.28V11.52a1.71,1.71,0,0,1,3.4,0V13.8l1.16-.56a4.09,4.09,0,0,1,1.92-.44c3.56,0,3.35,3,3.35,4.36,0,1.6-.16,3.52-.28,5-.36,3.76-1.51,5-4.28,5-1.11,0-1.43-.08-1.87-.44v1a1.51,1.51,0,0,1-1.68,1.44,1.53,1.53,0,0,1-1.72-1.44V18.8c-.92.48-1.84,1-2.72,1.4C22,24,22,27,22,29.35c0,1.72,1,1.81,4.4,1.81,5,0,6.91,0,6.91-3.31,0-1.45.8-2,1.64-2a1.81,1.81,0,0,1,1.92,2C36.91,32.37,35,34,31.11,34.47ZM28.12,24c.19-.16,1.05-.24.68-.24a1.14,1.14,0,0,1,.35,0,2,2,0,0,0,.65.12c.4,0,1.35-.2,1.35-5.68,0-2-.19-2.12-.59-2.12a.93.93,0,0,0-.41.12l-2,1ZM34.23,9H20.92c-2.08,4-2.92,4.76-4.2,4.76A1.82,1.82,0,0,1,14.84,12a2,2,0,0,1,.48-1.2,24.91,24.91,0,0,0,5.12-9.52A1.68,1.68,0,0,1,22.08.16a1.84,1.84,0,0,1,2,1.72,8.46,8.46,0,0,1-1.36,3.64l11.55-.08A1.67,1.67,0,0,1,36,7.2,1.67,1.67,0,0,1,34.23,9Zm-19.51.8h0l-5-.08a14.37,14.37,0,0,1-.24,3.68c.48,0,1,0,1.44,0,2.4,0,4.52.83,4.52,3.56v.24c-.24,8.23-.6,17.07-6.68,17.07-.6,0-3.52-.12-3.52-2.28v-.24C4,34.37,3.28,34.79,2,34.79A2,2,0,0,1,0,33a1.63,1.63,0,0,1,.4-1C4.76,26.85,5.68,18,6.08,9.72l-2.8,0h0C2.08,9.76,1.81,8.88,1.81,8s.27-1.76,1.43-1.76h0l3.84.08,0-4.48A2.13,2.13,0,0,1,9,0a2.16,2.16,0,0,1,2,1.84V6.32l3.72-.08h0A1.6,1.6,0,0,1,16.44,8,1.72,1.72,0,0,1,14.72,9.76Zm-5.6,7.29A44.77,44.77,0,0,1,5.8,30.43a1.44,1.44,0,0,1,.88-.27,1.55,1.55,0,0,1,.72.16c.44.19.8.66,1.16.66.76,0,3.12-.47,3.28-13.14,0-.84-.44-.84-1.08-.79Z" fill="#fff" fill-rule="evenodd"/></g></g></svg>