<svg xmlns="http://www.w3.org/2000/svg" width="77.17" height="35.61" viewBox="0 0 77.17 35.61"><g id="e60cd19d-8883-4f36-9cca-a08547a78696" data-name="Layer 2"><g id="f0ebc978-46f1-4f29-bc49-d3c5af104798" data-name="4"><path d="M54.93,27.59a2,2,0,0,1-2,1.89,1.21,1.21,0,0,1-1.32-.89,11.51,11.51,0,0,0-2.32-3.23A1.08,1.08,0,0,1,49,24.6c0-.84,1-1.56,2-1.56C52.69,23,54.93,26.56,54.93,27.59Zm19.92-10.9c-2.16,0-9.76-6.93-14.16-11.85a1.71,1.71,0,0,0-1.2-.68,1,1,0,0,0-1,.68c-1.83,2.16-3.2,4.52-6.43,6.68.44-.2.64.27,1.08.27H66.05c1.2,0,1.8.29,1.8,1.13a1.68,1.68,0,0,1-1.8,1.72H61.33v3.44h9.72a1.7,1.7,0,0,1,1.8,1.72,1.68,1.68,0,0,1-1.8,1.72H61.33V30h1.4a24.5,24.5,0,0,0,2.56-5.92A2.29,2.29,0,0,1,67,22.84a2.16,2.16,0,0,1,2.24,1.88c0,1.08-2.16,4.4-2.76,5.27l7.8-.08c1.6,0,1.68.89,1.68,1.72s-.08,1.72-1.68,1.72H44.77a1.72,1.72,0,1,1,0-3.44L57.49,30V21.52H48a1.74,1.74,0,0,1-1.84-1.72A1.71,1.71,0,0,1,48,18.08h9.52V14.64H53.17a1.69,1.69,0,0,1-1.84-1.72c0-.36,1-.13.36-1-5.83,5.28-7.15,5.48-7.87,5.48a2.09,2.09,0,0,1-2.12-2,2,2,0,0,1,1.23-1.8A40,40,0,0,0,55.65,2.66,4,4,0,0,1,59.21.36,4.56,4.56,0,0,1,63,2.66,96.17,96.17,0,0,0,76.09,13.05c.76-.37,1.08,1,1.08.87C77.17,15,76.17,16.69,74.85,16.69ZM36.11,21.88l-4.38,1.71-.26,9.92c0,1-.95,1.56-1.92,1.56a1.71,1.71,0,0,1-1.92-1.56l.08-8.88L17.56,27.07a1.87,1.87,0,0,1-.64.08,1.67,1.67,0,0,1-1.68-1.71,1.79,1.79,0,0,1,1.36-1.72l11.11-3.08L27.63,1.72A1.72,1.72,0,0,1,29.52,0a1.8,1.8,0,0,1,1.95,1.72l.26,17.88,3.38-1a3.14,3.14,0,0,1,.56-.08c1,0,2,.92,2,2.55A7,7,0,0,1,36.11,21.88ZM19.64,12.56c1.56,0,4.32,1.76,5,2.36a2.15,2.15,0,0,1,.8,1.64,1.9,1.9,0,0,1-1.76,2A1.87,1.87,0,0,1,22.48,18a21.69,21.69,0,0,0-3.92-2.52,2.44,2.44,0,0,1-.92-.79A2,2,0,0,1,19.64,12.56Zm4.44-2a1.78,1.78,0,0,1-1.32-.68A16,16,0,0,0,19.08,7c-.52-.28-.72.1-.72-1.12a1.93,1.93,0,0,1,2-1.72c1.36,0,4.36,2.28,4.95,2.92a2.17,2.17,0,0,1,.6,1.52A1.94,1.94,0,0,1,24.08,10.56ZM17,14.64c0,.44-.2,1.32-1.6,1.32h0L11,15.88v2a1.82,1.82,0,0,1,.8-.2c1,0,4.64,3.31,4.64,4.08a2,2,0,0,1-1.84,1.92A1.6,1.6,0,0,1,13.36,23,16.28,16.28,0,0,0,11,20.48c0,5.83.2,13.07.2,13.07v0a2.07,2.07,0,0,1-1.92,2c-.86,0-1.55-.94-1.55-2v0l-.21-12c-3.64,5.92-5,6.2-5.6,6.2a1.94,1.94,0,0,1-2-1.81,1.65,1.65,0,0,1,.68-1.27A34.36,34.36,0,0,0,7.56,16v-.12L3,16H3a1.56,1.56,0,0,1-1.72-1.6A1.73,1.73,0,0,1,3,12.56H7.52L7.77,1.8v0A1.56,1.56,0,0,1,9.32,0a1.79,1.79,0,0,1,1.92,1.76v0s-.08,3.32-.12,7.2a1.62,1.62,0,0,1,.2-.36A29.21,29.21,0,0,0,13.6,4.76a1.35,1.35,0,0,1,1.28-.84,1.91,1.91,0,0,1,1.88,1.72c0,.76-1.6,3.16-2.92,4.68a1.67,1.67,0,0,1-1.24.6A1.72,1.72,0,0,1,11.12,10l0,2.56h4.24C16.76,12.56,17,13.4,17,14.64ZM5.32,10.88A1.42,1.42,0,0,1,4,10c.18-1.36-1.72-3-2.16-3.56a1.38,1.38,0,0,1-.36-.84c0-.84,1.7-1.48,2.08-1.48,1.6,0,3.6,4,3.6,4.92A1.87,1.87,0,0,1,5.32,10.88Z" fill="#fff" fill-rule="evenodd"/></g></g></svg>