<svg xmlns="http://www.w3.org/2000/svg" width="223.55" height="35.67" viewBox="0 0 223.55 35.67"><g id="e3807b2c-45ea-47f5-b676-f5237dee8bd2" data-name="Layer 2"><g id="baa3a9e2-728d-4255-b2cd-eef424abac35" data-name="4"><path d="M220.51,13.61c-1,0-1.95-1.37-1.95-2.45V9.6c0-1.56-.2-2.2-2.16-2.24-3.16,0-7-.08-10.68-.08-3,0-6,0-8.48.08-2.16,0-2.28.72-2.32,1.76v2c0,1.08-1,2.45-1.92,2.45-1.92,0-1.92-2.25-1.92-3.93,0-2.36.08-5.44,4.28-5.48,3.12,0,6.28-.08,9.95-.08V1.92A2.2,2.2,0,0,1,206.92,0,1.93,1.93,0,0,1,209,1.92v2.2c3,0,5.92,0,9.29.08,1.71,0,4.14,1.16,4.22,3.8,0,.48,0,1.12,0,2.35C222.55,11.16,222.55,13.61,220.51,13.61Zm-26.35,4.67a1.91,1.91,0,0,1-1.92-1.84c0-.24.36-1.24,1.2-.84,2.48-1,5-3.68,6.6-5.92A2.69,2.69,0,0,1,201.28,9c.92,0,1.84.88,1.84,2.61,0-.41-.12,0-.4.31C201,14.24,195.93,18.28,194.16,18.28Zm23.53-1.76c-2.49-1.27-4-3.36-7-4.44a1.58,1.58,0,0,1-1-1.4c0-.07.76-1.64,1.76-1.64s6,2.48,8.12,5.31c.44-.11.63.9.63.89a2,2,0,0,1-1.87,2C218.69,17.24,217.36,17,217.69,16.52ZM203.2,15.28c1-1,2.16-.93,3.44-.93s2.6-.07,3.76.93a54.91,54.91,0,0,0,11.83,7.91,1.32,1.32,0,0,1,1.32,1.45c0,1-.27,2-1.92,2-1.34,0-7.91-3.88-13.67-9.16-.44-.4-.76.16-.65.16-.75,0-1.07-.56-1-.16-2.23,1.8-4.67,4-7.23,5.92.84-.44,1.36-.17,7-.17,2.16,0,4.48.4,7.58-.31a3.63,3.63,0,0,1,3,3.27c0,.77.08,1.9.08,2.48,0,.84,0,1.73-.08,2.64a3.84,3.84,0,0,1-4,3.68c-2.08.08-4,.12-5,.12-2.67,0-4.51,0-6.47-.12-2.6-.08-3.92-1.52-4-3.64,0-.68,0-1.39,0-2.08,0-2.84,0-4.11,1-5.19-2.12,1.56-5.2,3.48-6.4,3.48a1.81,1.81,0,0,1-1.84-1.84c0-.73.36-1.48,1.28-1.09A59.85,59.85,0,0,0,203.2,15.28Zm-.84,16.43a33.92,33.92,0,0,0,4.95.24,27.45,27.45,0,0,0,4.17-.24c1.48-.08,1.52-1,1.52-2.71,0-.56,0-1.13,0-1.69.74-1.39-.64-1.44-5.6-1.44-1.68,0-3.4.05-5,.08-.6.05-1.56,1.17-1.56,3.23C200.76,31,200.92,31.68,202.36,31.71Zm-26.92,3.44c-3,0-4.32,0-4.32-2.2a1.71,1.71,0,0,1,1.64-1.88c.58,0,.2,0,.32,0a22.6,22.6,0,0,0,2.52.28c1.6,0,2.8-.52,2.8-2.27,0-11.08,0-12.87-.12-16.72-.08-2.28-.88-2.05-2.8-2.68-2.36,0-4.54,0-7,0-.16,1.4-.44,2.8-.88,4.92h.16c1.24,0,9.36,4.28,9.36,6.8a2.56,2.56,0,0,1-1.39,2.24c-1.45,0-2-.28-2.49-1-1.3-2.16-3.92-4.2-5.89-5.6-.67-.08-.79-.16-.91.12-2.48,4.8-6.52,7.36-7.84,7.36a2.11,2.11,0,0,1-2-2.08c0-.6,1.2-1.24,1.08-.89,4.8-3.19,6.4-7,6.92-11.91-2,0-4,0-6,0-2.28.63-2.88.68-2.92,2.68q-.12,5.4-.12,10.8V34a1.75,1.75,0,0,1-1.92,1.72,1.8,1.8,0,0,1-2-1.68v0c.08-7.35,0-15.55.37-23.35a5,5,0,0,1,5-4.32c2.44,0,5.08-.08,7.8-.08,0-1.6,0-3.28,0-4.24a1.86,1.86,0,0,1,2-2,2,2,0,0,1,2,2c0,1,0,2.72,0,4.2,2.88,0,5.8,0,8.68.08a4.82,4.82,0,0,1,4.88,4.64c.08,4.48,0,9.23.12,13.32l.08,5.94v-.31C182.44,32.19,180.92,35.15,175.44,35.15ZM139.17,31c-1.6-2.44-6.43-6.09-9.7-8a33.77,33.77,0,0,1-13.32,9.23c-2.92,1.08-3.53-2.84-.54-3.87,6.54-1.78,12.86-8.92,16-14.88.36-.27.56-1.32-.68-1.32-2.51,0-8,.16-11.55.24-2.4.08-2.18-3.76,0-3.88,2.92-.12,8.8-.2,12.83-.2s6.35,2.28,4.08,5a69,69,0,0,0-3.72,6.8c2.6,2,7.68,5.36,9.52,7.92C143.7,30.28,140.7,33.39,139.17,31ZM106.28,8.88A14.81,14.81,0,0,0,103,6.6c-2-.38-.6-3.2,1.28-2.6a12.77,12.77,0,0,1,4,2.28C110.72,7.88,107.64,10.4,106.28,8.88Zm-3.68,3.56c-.52-.23-2.48-2-3.28-2.4-2-.84.41-2.69,1.4-2.6,1.21,1.17,3.21,1.48,4,2.44C106.24,11.56,103.92,14,102.6,12.44ZM99.24,17A77.56,77.56,0,0,1,85,20.6c0,1.76-.08,3.36-.12,4.47.44,2,.8,2.93,3.2,3.24a36.15,36.15,0,0,0,11.64-1.08c3.17-1,4.76,3.29.84,4.32-3.6,1-8.85,1.08-13.92.56-3.52-.43-5.64-2.72-5.68-6,0-4,.24-12.92.28-17.68,0-2.8,4.12-2.24,4.08.12,0,2.16-.12,5.16-.2,8.12A78.32,78.32,0,0,0,97.76,13C100.68,11.68,102.68,16.25,99.24,17ZM67.47,20.15H42.35a1.91,1.91,0,0,1-2.12-1.55,2.35,2.35,0,0,1,2.12-2.4H67.47c1.73,0,2,1,2,2S69.2,20.15,67.47,20.15ZM31,15.64c-2.48-.08-5-.12-7.6-.12v.76a20.32,20.32,0,0,1-10.2,18.27c-3.6,1.84-5.2-1.84-2.72-3.19,6.2-3.41,9-8.48,9-14.92v-.92c-2.16,0-4.28,0-6.4.08,0,2.28,0,4.4,0,6a2,2,0,0,1-2,2.08c-1,0-1.31-.72-2-2,.08-1.64.12-3.72.12-5.92-2.52.57-5,.92-6.82.28-2.74.16-3-3.64-.66-3.72s4.92-.12,7.44-.16c0-1.88-.08-3.64.61-5-.89-2.72,3-3,3.59-.16A22,22,0,0,0,13,12l6.44-.12c0-1.67,0-3.27,0-5.16-.16-3.32,4-3.12,4,0,0,1.6,0,3.36,0,5.93a54.3,54.3,0,0,1,8.25-.26C34.63,11.72,33.89,15.72,31,15.64Z" fill="#fff" fill-rule="evenodd"/></g></g></svg>