<svg xmlns="http://www.w3.org/2000/svg" width="333.26" height="53.53" viewBox="0 0 333.26 53.53"><g id="ad110f53-2bc0-4781-8d77-25fc65db7105" data-name="Layer 2"><g id="b10d6587-588c-4678-83af-60616abea337" data-name="レイヤー 1"><path d="M35.29,23.33c3.9,0,7.68.06,11.4.18,4.2.12,5.46-5.88-.18-5.82a72.84,72.84,0,0,0-11.28.66c0-3.24,0-5.88.06-8.28.06-4.62-6.24-4.92-6,.06.06,2.21.06,4.62.06,7.74l-9.66.18c-.06-2.94-.12-5.64-.24-7.62a3,3,0,1,0-5.94.24c.12,2,.18,4.68.48,7.5-4,.06-7.8.12-11.4.24S-.83,24.23,3,24c3.36.37,7.08-.3,11.64-.42a59.15,59.15,0,0,1-1,8.88,2.85,2.85,0,0,0,3,3.06,3,3,0,0,0,3.06-3.12A76.26,76.26,0,0,0,20,23.45c2.93-.06,6.11-.12,9.35-.12v1.38c0,9.66-4.14,17.28-13.44,22.39-3.72,2-1.32,7.56,3.48,4.8,11-6.36,15.9-16,15.9-27.43Z" fill="#e73d71" fill-rule="evenodd"/><path d="M328.7,19.26a2.36,2.36,0,0,1-2.56-2.52V14.4c0-2.34-.68-3.3-3.62-3.36-4.19-.06-10.5-.12-16-.12-4.56,0-9.06.06-12.2.12-3.76.06-3.94,1.08-4,2.64v3.06a2.66,2.66,0,0,1-2.88,2.52c-2.88,0-2.88-2.22-2.88-4.74,0-3.54.12-8.16,6.42-8.22,4.68-.06,9.42-.12,14.22-.12V2.88A3,3,0,0,1,308.3,0a2.9,2.9,0,0,1,3.12,2.88v3.3c4.44,0,8.88.06,13.26.12,3.24.06,6.9,1.74,7,5.7a5,5,0,0,1,.45,2.64C332.15,16.74,332.15,19.26,328.7,19.26Zm-39.54,8.16a2.86,2.86,0,0,1-2.88-2.76c0-1,1.41-1.39,1.8-2.4,4.41-1.4,7.44-4.38,9.9-7.74.54-.27,1.2-1,1.86-1,1.38,0,2.76,2,2.76,2.76a1.88,1.88,0,0,1-.6,1.62C299.36,21.36,291.62,27.42,289.16,27.42Zm34.08-2.35a28.8,28.8,0,0,0-9.3-6.95c-1-.54-1.44-.86-1.44-2.1a2.66,2.66,0,0,1,2.64-2.46c1.68,0,8.94,3.72,12.18,7.08a3.31,3.31,0,0,1,1,2.22,3,3,0,0,1-2.82,3A5.48,5.48,0,0,1,323.24,25.07Zm-20.52-2.15a7.06,7.06,0,0,1,5.16-2.28c2.64,0,4.44.78,5.64,2.28A63.31,63.31,0,0,0,331.28,34.2c1.38,1.08,2,1.68,2,2.77a2.85,2.85,0,0,1-2.88,2.93c-2.7,0-11.88-5.82-20.52-13.74a2.6,2.6,0,0,0-1.68-.9,3.82,3.82,0,0,0-1.5.9A92.26,92.26,0,0,1,296.54,35c2-.66,2-.84,10.56-.84,3.24,0,6.72.06,10.14.12a5.86,5.86,0,0,1,5.7,4.92c.06,1.14.12,2.41.12,3.73s-.06,2.58-.12,4A5.76,5.76,0,0,1,317,52.45c-3.12.12-5.94.18-8.76.18s-5.52-.06-7.94-.18c-4.42-.12-6.4-2.28-6.58-5.46-.06-1-.06-2.1-.06-3.12,0-4.26,0-6.19,1.5-7.81-3.18,2.34-7.8,5.23-9.6,5.23-.88,0-2.08-1.39-2.08-2.77,0-1.07-.14-2.22,1.24-2.64A61.29,61.29,0,0,0,302.72,22.92Zm-1.26,24.67c2.22.06,4.44.06,6.72.06s5.34,0,7-.06c2.22-.12,2.28-1.5,2.28-4.08,0-.84,0-1-.06-2.52-.12-2.11-1-1.5-8.4-1.5-2.52,0-5.1-.61-7.56-.54-2.16.06-2.34,1.73-2.34,4.25C299.06,46.51,299.3,47.53,301.46,47.59Zm-40.28,5.16c-4.23,0-6.48-.54-6.48-3.3a2.56,2.56,0,0,1,2.46-2.82c.12,0,.3.06.48.06a22.06,22.06,0,0,0,3.78.42c2.4,0,4.2-.78,4.2-3.43,0-16.62,0-20-.18-25.08-.12-3.42-1.32-4-4.2-4-3.54-.06-7-.06-10.3-.06-.44,2.1-.86,4.2-1.52,6.34h.24c1.86,0,14,7.46,14,11.24a3.43,3.43,0,0,1-3.36,3.36A2.88,2.88,0,0,1,257.88,34c-1.86-2.94-5.88-6.3-9.6-8.4a2.15,2.15,0,0,1-.6-.42C244,33,237.9,37.69,235.92,37.69c-1.74,0-3.06-2.41-3.06-4a3.78,3.78,0,0,1,1.62-2.46c7.2-3.66,9.6-10.4,10.38-16.74-2.33,0-5.34,0-9,.06-3.42.06-4.32,1-4.38,4-.12,5.4-.18,10.8-.18,16.68V51a2.63,2.63,0,0,1-2.88,2.58c-1.5,0-3-.84-3-2.52V51c.12-11.05.06-23.35.3-35.05a7.5,7.5,0,0,1,7.5-6.48c3.9-.06,7.86-.12,11.94-.12,0-2.4-.06-4.92-.06-6.36A2.8,2.8,0,0,1,248,0a2.94,2.94,0,0,1,3.06,3c0,1.56,0,4.08-.06,6.3,4.32,0,8.91,0,13,.12a7.23,7.23,0,0,1,7.32,7c.12,6.72.06,13.26.18,20l.12,8.35v.79C271.68,48.31,269.22,52.75,261.18,52.75Zm-54.81-6.18a62.45,62.45,0,0,0-14-12.07,50.82,50.82,0,0,1-20,13.87c-4.38,1.62-6.42-4.26-1.92-5.83,10.92-3.65,20.41-13.38,25.15-22.32.54-1,.3-2-1-2-3.37-.06-12.07.24-17.35.36-3.6.12-3.84-5.64,0-5.55,4.38-.45,13.2-.57,19.27-.57,5.4,0,8.46,3.42,6.12,7.5a96,96,0,0,1-6.66,10.2c5,3,12.6,8,15.36,11.88C213.69,45.43,209.19,50.11,206.37,46.57Zm-48.7-33.25a22.22,22.22,0,0,0-5-3.42c-3.06-1.2-.31-4.8,1.92-3.9a19.15,19.15,0,0,1,6.06,3.42C163.07,12.45,159.71,15.6,157.67,13.32Zm-5.52,5.34a21.06,21.06,0,0,0-4.93-3.6c-3.06-.81-.66-4.92,2.11-3.9,1.62.69,4.62,2.22,5.94,4.3C157.61,17.34,154.13,21,152.15,18.66Zm-5.05,6.78c-5.7,1.92-14.46,4.68-20.56,5.46a37.45,37.45,0,0,0-.92,6.73c-.12,2.93,1.2,4.38,4.8,4.86s13.2-.13,17.46-1.63c4.57-1.55,7.15,5.24,1.27,6.49-5.18,1.75-14.59,1.62-20.89.84-5.28-.66-7.72-4.08-8.32-9-.26-6,.16-18.92.22-26.52,0-4.2,6.18-3.36,6.12,1-.06,2.43-.18,6.93-.3,11.37a109.11,109.11,0,0,0,18.9-5.58C149.27,17.52,152.27,23.64,147.1,25.44Zm-47.52,4.2H61.89a3,3,0,0,1-3.18-2.77,3.08,3.08,0,0,1,3.18-3.17H99.58a3,3,0,1,1,0,5.94Z" fill-rule="evenodd"/></g></g></svg>