<svg xmlns="http://www.w3.org/2000/svg" width="70.25" height="22.27" viewBox="0 0 70.25 22.27"><g id="a9948f6d-ef2f-4195-9be6-3e92458d1d61" data-name="Layer 2"><g id="ae11dc95-c6ed-4726-9c66-256a3ca42abb" data-name="レイヤー 1"><path d="M61.15,3.22a.91.91,0,0,1,.39.72c0,1.25-2.3,3-3.17,3.79A17.32,17.32,0,0,1,60,9a28.87,28.87,0,0,0,4-4.22A1.15,1.15,0,0,1,65,4.27a1.25,1.25,0,0,1,1.32,1.08.89.89,0,0,1-.31.77,36.31,36.31,0,0,1-5.91,5.26c1.88-.12,4.24-.29,5.48-.48-.31.53-.6-.46-.91-.65a1,1,0,0,1-.51-.79,1.05,1.05,0,0,1,1.11-.94c1.15,0,5,3.26,5,4.61A1.3,1.3,0,0,1,69,14.4a1,1,0,0,1-.87-.57,7.06,7.06,0,0,0-1-1.4c-1.46.24-3.19.46-5,.68l0,8.17a1.92,1.92,0,0,1-1.17.6.53.53,0,0,1-.53-.6l.24-7.93c-2,.09-6,.45-7.8.45-.75,0-.73-.55-.73-1.08s-.06-1,1.21-1c.67,0,1.94.58,3.26.1a15.52,15.52,0,0,1,1.71-1.42,22.69,22.69,0,0,0-3.89-2.5c-.41.56-.58-.52-.58-.84A1.08,1.08,0,0,1,55,6c.41,0,1,.29,1.6,1.35.89-1.56,2-2.93,2.67-4-2.26.14-4.39.83-5.88.77C52.49,4.35,52,3.05,52,2.47a1.05,1.05,0,0,1,1.16-1h.91a83.15,83.15,0,0,0,13.22-1,1.46,1.46,0,0,1,.29,0,1.07,1.07,0,0,1,1.11,1.13.94.94,0,0,1-.77,1C66.1,2.81,63.63,3.05,61.15,3.22ZM56,15.12c.22-.33.53.16,1.68.16a.55.55,0,0,1,.45.59c0,1.17-4.27,5.41-5.56,5.41-.72,0-1.28-1.24-1.28-1.84a1.12,1.12,0,0,1,.75-1A8.43,8.43,0,0,0,56,15.12ZM45,5.43l-4.34-.24c1.46,0,4.06,1.65,4.06,2.9a1.16,1.16,0,0,1-1.11,1.18,1.24,1.24,0,0,1-1-.56c-.31-.4-.65-.77-1-.76A55.72,55.72,0,0,1,28.71,9a1.11,1.11,0,0,1-1.2-1.1c0-.5,1.1-1,1-1,1,0,2,0,3-.08.88-.53.58-1.44.82-1.6l-5.07.24c-.72,0-1.1-1.3-1.1-1.56,0-.8.38-1.33,1.1-1.33l8.13.25V1.13c0-.75,0-1.13.63-1.13a1.15,1.15,0,0,1,1.25,1.13V2.79L45,2.54c.75,0,1.11.53,1.11,1.33C46.07,4.13,45.71,5.43,45,5.43Zm-5.64.62c-.33-.17.22,0,.22-.67,0-.29-.53-.6-.24-.43H34.93a12.08,12.08,0,0,0-1,1.72c1.92-.12,3.79-.28,5.59-.48Zm-21,14c-.1,0-1.1.05-1.72.05-2.45,0-4.35,0-4.42-2.64-.05-1.8-.07-3.75-.07-5.69s0-3.91.07-5.69c.07-2.35,2-2.38,4.13-2.38.69,0,1.41,0,2.06,0,2,0,3.33,1,2.55,2.52C21,8,21,9.89,21,11.81s0,4.55-.09,5.62C21.69,18.94,20,20,18.31,20.09Zm.32-13.27c0-.87-.2-1.11-2.07-1.11s-2.09.36-2.11,1.11c-.07,1.39-.1,3.09-.1,5.21,0,1.46,0,3.36.1,4.89,0,.89.31,1.11,2.21,1.11,1.48,0,1.94-.27,2-1.18,0-1.51.07-3.31.07-5.09S18.67,8.23,18.63,6.82ZM10.3,19.23a1.69,1.69,0,0,1-1-.35,10.08,10.08,0,0,0-2.69-3.37c-.22,2-2.23,3.79-4.59,5.32a1.6,1.6,0,0,1-.86.29A1.17,1.17,0,0,1,0,20c0,.21.19-.72.62-1a8.87,8.87,0,0,0,4.66-7.54H2.59c-1.46,0-1.56-.5-1.56-1s.12-1.08,1.56-1.08H5.35V5.83l-1.13,0c-1,2.47-1.6,3-1.87,3C1.22,8.83.7,8.45.7,7.9c0,.53.27-.48.28-.77A13.53,13.53,0,0,0,3.31,1.06a9.54,9.54,0,0,0,1-.7c.63,0,1.32.38,1.32,1A11.65,11.65,0,0,1,5,3.77H9.89a1,1,0,0,1,1,1.06,1,1,0,0,1-1,1h0L7.56,5.81c0,1.1,0,2.54,0,3.58h2.84a1,1,0,0,1,1,1,1,1,0,0,1-1,1.05H7.51a14.47,14.47,0,0,1-.26,2c1.39.86,4.32,3.47,4.32,4.39C11.57,19.12,10.92,19.23,10.3,19.23Zm22.3-9.8c1.13,0,2.55,0,3.94,0,1.15,0,2.76,0,3.6,0,1.58.08,2.26,1,2.3,2,.05,1.7,0,4,.05,4.65l0,2v.05c0,1.55-.82,3.22-4,3.22-1.63,0-2.55-.2-2.55-1.28A1,1,0,0,1,37,19.06a.68.68,0,0,1,.19,0,7.81,7.81,0,0,0,1.47.17c.91,0,1.58-.31,1.63-1.46,0,0,0-.41,0-.65H32.05V20.5c0,.69-.6,1.77-1.18,1.77s-.82-1-.82-1.75c0-.24-.14-8.62-.11-9C30,10.56,30.68,9.48,32.6,9.43Zm7.66,2.69c0-.93.36-1-3.89-1-3.91,0-4.2,0-4.25,1v.36h8.16Zm.05,3.36V14.14H32.07c0,.43,0,.89,0,1.34Zm24.16-1c.81,0,4,2,5.21,3.41a1.44,1.44,0,0,1,.38.93,1.34,1.34,0,0,1-1.3,1.32.89.89,0,0,1-.85-.55,13,13,0,0,0-4-3.12,1,1,0,0,1-.6-.89C63.29,15,64.07,14.45,64.47,14.45Z" fill="#fff" fill-rule="evenodd"/></g></g></svg>