<svg xmlns="http://www.w3.org/2000/svg" width="71.38" height="21.47" viewBox="0 0 71.38 21.47"><g id="a3ba98da-5b55-4244-b654-789bf97386de" data-name="Layer 2"><g id="fc489ac5-1828-40d2-85c5-0e993b6454b5" data-name="レイヤー 1"><path d="M62.51,2.81a6.65,6.65,0,0,1,.16.72c0,1.25-2.31,3-3.17,3.79a16,16,0,0,1,1.65,1.22,21.62,21.62,0,0,0,4-4.22,1.16,1.16,0,0,1,.94-.46,1.25,1.25,0,0,1,1.32,1.08c0,.44.5.51-.31.77A35.85,35.85,0,0,1,61.2,11c1.88-.12,3.75-.29,5.48-.48-.32.53-.6-.46-.92-.65s-.3-.5-.3-.79a.87.87,0,0,1,.9-.94c1.16,0,5,3.27,5,4.61A1.3,1.3,0,0,1,70.16,14c-.32,0-.65-.16-.56-.57-.57-.51-.91-1-.84-1.4-1.92.24-3.64.46-4.6.68l-.57,8.17a3.37,3.37,0,0,1-1.48.6,2,2,0,0,1-1.15-.6l0-7.93c-1.18.09-5.14.45-7,.45a1.24,1.24,0,0,1-1.13-1.08,1,1,0,0,1,1.05-1c1.23,0,2.5.58,3.82.1A11.2,11.2,0,0,0,59.47,10c-.56-1-2.64-1.82-3.88-2.5C55.18,8,55,6.94,55,6.62a1.08,1.08,0,0,1,1.1-1c.41,0,1,.29,1.61,1.35.89-1.56,2-2.93,2.67-4-2.26.14-4.4.83-5.88.77-.89.24-1.35-1.06-1.35-1.64s.39-1,1.67-1h.4A81.75,81.75,0,0,0,68.45,0a1.42,1.42,0,0,1,.29,0,1.07,1.07,0,0,1,1.1,1.13.93.93,0,0,1-.76,1C67.23,2.4,64.76,2.64,62.51,2.81Zm-5.36,11.9c.21-.33.52.16.84.16.64,0,1.52-.06,1.52.59,0,1.17-4.5,5.41-5.79,5.41-.73,0-1.28-1.24-1.28-1.84a1.11,1.11,0,0,1,.75-1A8.61,8.61,0,0,0,57.15,14.71ZM42,20.63a8.59,8.59,0,0,1-2.09-.78c-.53-.19-.77-.06-.77-1.08,0-.3.39-1.13,1-1.13.87,0,.29,0,.46.07a4.32,4.32,0,0,0,1.27.24c1,0,2.76-.62,2.76-8.52,0-.57,0-1.13,0-1.65,0-.68-.24-.89-.89-.92l-1.27,0a14.72,14.72,0,0,1-6,13.59,1.29,1.29,0,0,1-.79.26,1.12,1.12,0,0,1-1.13-1.1c0,.44.17-.68.56-.94a12.14,12.14,0,0,0,1-.79,66.82,66.82,0,0,1-8.74,1.53,1,1,0,0,1-1-1c0-.45.27-.91,1-.93,1.09-.1,2.46.42,4.47-.41l-.39-1.44-3.47.07h0a.84.84,0,0,1-.93-.84.88.88,0,0,1,1-.84l3.47,0V13c-3.81,0-4.12-.07-4.12-3.41,0-2.95.67-3,4.36-3l-.24-1H27.64c-.62,0-1,.2-1-.86a.89.89,0,0,1,1-.86l3.93,0V3c-1.65.07-2.8.07-3,.07-.95,0-1.08-.48-1.08-1s.13-.91,1.47-.91h.09c-.23.15.6.38.75.38a30.06,30.06,0,0,0,5.91-1A.63.63,0,0,1,36,.5a1,1,0,0,1,1,1c0,1.13-.48,1-3.44,1.29L33.26,4l3.55,0a.89.89,0,0,1,1,.86s0,.12,0,.17.34-.15,1.13-.15c.05,0,.72,0,1.68,0V1.06c0-.73.26-1.06.81-1.06a1.08,1.08,0,0,1,1.16,1.06l0,3.74,2.38,0c1,0,2,1.06,2,2.67,0,.89,0,1.41,0,2.13C46.92,14.87,46.48,20.63,42,20.63ZM30.13,10.85c-.71.72-.5.74,1.44.74V10.42H29.89C29.89,10.58,30.13,10.73,30.13,10.85ZM31.81,8c-2.3,0-2.42.05-1.68.86v.24h1.68Zm1.45,3.55c1.51,0,1.94,0,2-.77,0-.14,0-.26,0-.4h-2Zm0-2.45h2V8.81c0-.77-.32-.77-2-.77ZM38.9,6.89c-1.25,0-1.08-.51-1.08-1,0-.1.24-.22-.46-.32a1.12,1.12,0,0,1-.55.12H33.26v1c3.14,0,3.91,0,3.91,3.08,0,3.26-.48,3.33-3.91,3.33v.91l3-.07h.24a.79.79,0,0,1,.67.82.84.84,0,0,1-.91.82l-2.77,0v1.18c.9-.19,1.9-.41,3-.62.72,0-.07,0,0,0,.41,0,.69.29,1.56.65,1.53-2.71,2.13-6.27,2.52-9.87C39.62,6.86,38.92,6.89,38.9,6.89ZM20.5,20.54c-1.73.15-3.94.29-6.12.29-5.21,0-7.18-.2-9.44-2.95-1.2,1.91-2.68,2.86-3.06,2.86C.62,20.74,0,20.11,0,19.46a1,1,0,0,1,.6-.91,11.49,11.49,0,0,0,3.22-2.49c0-1.08,0-2,0-2.93v-1c0-.62-.28-.69-1.1-.69H1.82c-.45,0-1.32,0-1.32-1a1,1,0,0,1,1-1.08c.87,0,1.54,0,2.33,0,1.54.05,2.26.72,2.26,2.26s0,3.05,0,4.93c1.51,1.57,4,2.07,7.32,2.07,2.4,0,5-.26,6.84.09H21c.09,0,.5.08.5.66A1.14,1.14,0,0,1,20.5,20.54Zm-.77-4.23-5.16-.16v1.13a1,1,0,0,1-2.09,0V16.15l-4.87.16a1,1,0,0,1-.91-1,.88.88,0,0,1,.91-.92l4.87,0V14c-4,0-4.58-.24-4.58-4.17,0-3.09.79-3.12,4.6-3.12V5.81L10,5.83a.85.85,0,1,1,0-1.7l2.47,0V3.67a1,1,0,0,1,1-1,1,1,0,0,1,1,1v.48l3,0a.82.82,0,0,1,.69.86.81.81,0,0,1-.69.84l-3,0v.93c.87,0,1.71,0,2.41,0,2.25.09,2.47,1.61,2.47,3.09,0,2.26-.29,3.29-2.62,3.93a6.71,6.71,0,0,1-2.23.24v.35l5.16,0c1.25,0,.89.46.89.92S21,16.31,19.73,16.31ZM9.91,11c.08.75.24.77,2.57.77V10.61H9.91Zm0-1.89v.16h2.57l0-.88C10.41,8.38,10,8.38,9.91,9.1Zm7.3-.1c0-.62-.14-.62-2.67-.62v.88h2.69Zm0,2,0-.36H14.57v1.15C16.68,11.76,17.19,11.76,17.21,11Zm2.18-5.59c-.55,0-.57-.29-.57-.84V3.46c0-.58-.67-.8-1.35-.8s-2.25,0-3.69,0c-.73,0-2.88,0-3.67,0S9,2.86,9,3.46V4.58c0,.56-.53.84-1.06.84s-1.08-.28-1.08-.86c0,.46,0-.67,0-1,0-1.39,0-2.64,3.19-2.66.51,0,2-.05,3.61-.05s3.12,0,4.39.05c1.54,0,2.45.65,2.47,2,0,.36,0,.84,0,1.61C20.55,4.61,20.5,5.38,19.39,5.38ZM5.06,5.5A1,1,0,0,1,4.25,5,7.32,7.32,0,0,0,1.9,2.9a.82.82,0,0,1-.48-.74A1.22,1.22,0,0,1,2.64,1.08c.72,0,3.72,1.85,3.72,3.07A1.41,1.41,0,0,1,5.06,5.5ZM65.6,14c.81,0,4,2,5.2,3.41a1.4,1.4,0,0,1,.39.93,1.34,1.34,0,0,1-1.3,1.32,1.23,1.23,0,0,1-1-.55A11.37,11.37,0,0,0,65,16a1,1,0,0,1-.6-.89A1.16,1.16,0,0,1,65.6,14Z" fill="#fff" fill-rule="evenodd"/></g></g></svg>