<svg id="Layer_1" data-name="Layer 1" xmlns="http://www.w3.org/2000/svg" viewBox="0 0 176.2 40.95"><defs><style>.cls-1{fill-rule:evenodd;}</style></defs><path class="cls-1" d="M1045.54,528.07h0c-2.48-.05-7-.09-11.5-.09-5.57,0-11.32,0-14.08.09-1.61,0-2.21.78-2.21,2.07-.09,8.33.55,21-4.64,27.6a2.52,2.52,0,0,1-2.07,1.06,2.38,2.38,0,0,1-2.44-2.07,1.75,1.75,0,0,1,.41-1.06c4-4.74,4.42-12.14,4.42-18.91,0-2.44,0-4.74-.09-6.85v-.14c0-3.68,1.79-5.57,6-5.66,2.25,0,5.2-.09,8.42-.09v-2a2.4,2.4,0,1,1,4.78,0v2c5.15,0,10.21.05,13.07.09a2,2,0,0,1,2.16,1.93A2,2,0,0,1,1045.54,528.07Zm-52.21,31.7c-3.73,0-5.34-.65-5.34-2.63a2.13,2.13,0,0,1,2-2.3,1.7,1.7,0,0,1,.5,0,16.77,16.77,0,0,0,3.13.51c1.38,0,2.58-.51,2.62-2.44,0-1.71,0-13.76,0-22.78V523a2.21,2.21,0,0,1,4.42,0v25.21l.29,5.52v.1C1001,557.34,998.94,559.77,993.33,559.77Zm-3.41-9a1.67,1.67,0,0,1-1.68-1.32V525.35c0-1.38.62-2.07,1.68-2.07a2,2,0,0,1,2.16,2.07v24.14C992.08,549.92,991,550.81,989.92,550.81Zm-6-12.74-7.59.27v2.43c1.25,0,2.44,0,3.89,0,3.37.09,4,1.47,4,4.33,0,1.33,0,3.72.05,5.29v.27c0,2.67-1.06,4.7-4.28,4.7-2,0-3-.56-3-2,0-.92.46-1.84,1.34-1.84,0,0,.14.4.23.4.51.47.46-.26.64-.26,1,0,1.11-.28,1.11-1.43,0,0,0-3.08,0-4.41,0-1.66-1.1-1.75-4-1.75v13.85a2.09,2.09,0,1,1-4.18,0V544.08c-3,0-3.73.14-3.73,1.75V548c0,2,0,4.33.05,6v.05a2,2,0,0,1-4,0c0-1.24,0-2.86,0-4,0-2.21,0-3.86,0-5.11.14-4.27,2.63-4.27,7.69-4.27v-2.43l-7.46-.27c-1.24,0-1.69-1.35-1.69-2.27a1.59,1.59,0,0,1,1.69-1.75h7.46v-3.73h-3.87c-1,1.89-1.79,2.9-3,2.9a2,2,0,0,1-2.12-1.79,1.61,1.61,0,0,1,.32-1,17.48,17.48,0,0,0,3.22-6.67c.23-.83,1-.69,1.75-.69,1.06,0,2.16.14,2.16,1.2a20.73,20.73,0,0,0-.19,2.48l1.76.05v-4.7a2.1,2.1,0,0,1,4.18,0v4.7l6-.05a1.78,1.78,0,1,1,0,3.54h-6v3.73h7.59A1.93,1.93,0,0,1,986,535.8,2.33,2.33,0,0,1,983.89,538.07Zm-33.44,22.16c-1.19,0-2.39-.24-2.39-1.94V522.87a2.13,2.13,0,0,1,2.35-2c1.24,0,3.25.69,3.25,2v35.42C953.66,560,951.65,560.23,950.45,560.23Zm-26-20.52c1.06-.05,4.09.61,6.53.61,4.47,0,8.1-.57,8.1,4.32a22.78,22.78,0,0,1-1.84,8.41c-2.07,4.42-5.79,6.3-11.55,6.3a24,24,0,0,1-5.29-.64,2.41,2.41,0,0,1-2-2.35,2.32,2.32,0,0,1,2.48-2.3,4.93,4.93,0,0,1,1.15.19c1.38,1,3,.55,4,.55,3,0,5.48-1.11,6.63-2.87a18.06,18.06,0,0,0,1.75-6.79c0-1.61-1.11-1.66-3.18-1.66-2.62,0-6.86.86-8.26.86-3.24,0-4.34-2-4.34-3.85a7,7,0,0,1,.09-1c1.47-7.68,2.62-9,6.16-9h.19c.69,0,6.53.13,7.22.13,1.29,0,1.66-.41,1.66-2.48,0-2.39-.19-2.81-1.66-2.81h-10.4a1.94,1.94,0,0,1-2-2,2,2,0,0,1,2.07-2.12h1.92c3.26,0,7.83,0,9.44,0,5,0,5.24,3,5.24,6.72,0,.82,0,2,0,2.3-.09,2.8-2,4.43-5.2,4.43-.83,0-6.86-.25-7.32-.25-1,0-1.51.32-1.74,1,0,.86-.79,2.62-.79,3.45S924.05,539.71,924.46,539.71ZM902.19,560c-4.47,0-4.5-1-4.5-2.62,0-1.15-.1-2.3,1.78-2.3-.46,0-.32,0-.14,0a16.26,16.26,0,0,0,3.13.5c2.16,0,2.58-.5,2.62-2.48,0-1.71,0-14.49,0-23.05v-7.27a2.21,2.21,0,0,1,4.42,0v25.49l.09,5.56v.1C909.64,556.78,908.18,560,902.19,560ZM899,550.75c-1.06,0-1.28-.65-1.28-2V525.31c0-1.38.22-2.07,1.28-2.07a2,2,0,0,1,2.16,2.07v23.46A2,2,0,0,1,899,550.75Zm-4-7.36a1.64,1.64,0,0,1-1.66,1.75H873.57a1.63,1.63,0,0,1-1.61-1.75,1.74,1.74,0,0,1,1.61-1.7l7.82.09v-2.39l-4.74,0a1.54,1.54,0,1,1,0-3.08l4.69,0v-2.2h-5.19c-1,0-1.52-.15-1.61-1.34h-.37c-2.07,0-2.07-1.33-2.07-3.49,0-2.35.32-4.88,4.6-4.93h4.41l0-2.46v-.44c0-1.15,1.15-1.74,2.25-1.74s2.3.59,2.3,1.74V522l0,2.46h4.69c2.48,0,4.42,1.34,4.42,3.78,0,.64,0,1.51,0,2.48,0,1.58-.27,2.07-2.07,2.07h-.23a1.45,1.45,0,0,1-1.52,1.43h-5.52l0,2.2,4.92,0a1.54,1.54,0,1,1,0,3.08l-4.92,0-.05,2.39,8.05-.09A1.74,1.74,0,0,1,895,543.39ZM885.39,530v1.06l5.29,0v-1.84c0-1.47-.55-1.52-6.34-1.52-8,0-8.1,0-8.1,1.52V531l5.06,0V530a2.06,2.06,0,0,1,4.09,0Zm-6.76,17c1.29-.05,2.76-.1,4.23-.1,1.84,0,3.68,0,5.16.1,2.25.09,4,1.33,4.09,3.35.09,1,.14,2.17.14,3.85,0,4.25-.83,5-8.22,5-8.39,0-9.31-.18-9.31-6.16C874.72,549.78,874.72,547.11,878.63,547Zm4.79,9.44c4.09,0,4.73-.89,4.73-3.37,0-2.76-.13-2.81-4.27-2.81-1.2,0-2.4,0-3.36,0-1.38,0-1.18.55-1.18,2.81S878.86,556.42,883.42,556.42Zm153.79-27.89a1.88,1.88,0,0,1,2.07,1.7v2.12h5.38c1.66,0,1.7.87,1.7,1.74s0,1.8-1.7,1.8h-5.33c0,4.92,0,5.89-7.69,5.89-6.21,0-6.94-.14-6.94-5.89H1020a2,2,0,0,1-1.66-1.75c0-.87,1.42-1.79,1.66-1.79h4.69c0-.88,0-1.61,0-2.26,0-1.06,1-1.61,2-1.61a1.8,1.8,0,0,1,2,1.66v2.21h6.49v-2.17A1.76,1.76,0,0,1,1037.21,528.53Zm-8.47,7.17c0,3.5,0,3,3.32,3,2.25,0,3.08.46,3.17-1.29V535.7Zm-11.13,20.62a32.19,32.19,0,0,0,10.54-2.3c-.92-.65-4.24-3.09-4.24-3.87a2.13,2.13,0,0,1,2.35-2.24c.46,0,.92-.2,1.29.22a19.88,19.88,0,0,0,4.37,3.77c2.71-2,4.18-4.14,4.18-4.51s-.08-.41-.59-.41h-3.45c-3.45,0-7.55,0-10.86.09h-.05a1.68,1.68,0,0,1-1.75-1.8,1.74,1.74,0,0,1,1.75-1.84h16.57c2.76.05,3.81,1.43,3.81,3,0,2.94-5.06,7.13-5.56,7.54,2.9,1.06,6.16,1.57,10.07,2.5,1.43-.75,2.12.22,2.12,1.28a2.26,2.26,0,0,1-2.49,2.2,23.93,23.93,0,0,1-13.52-3.49c-6.07,3.36-13.8,3.86-14.13,3.86a2.12,2.12,0,0,1-2.39-2A2,2,0,0,1,1017.61,556.32Z" transform="translate(-871.96 -519.33)"/></svg>