<svg id="Layer_1" data-name="Layer 1" xmlns="http://www.w3.org/2000/svg" viewBox="0 0 115.55 53.36"><defs><style>.cls-1{fill:#e93c71;}.cls-1,.cls-2{fill-rule:evenodd;}</style></defs><path class="cls-1" d="M600.81,250a2.92,2.92,0,0,0,2.7-3,3.26,3.26,0,0,0-.9-2.28c-.9-1-5.4-4.38-7.44-4.38a2.9,2.9,0,0,0-2.94,2.58,1.83,1.83,0,0,0,1.08,1.68c1.5.84,3.84,3.41,5.52,4.38A2.67,2.67,0,0,0,600.81,250Zm5.34,34.44c0,1.57,1.44,2.34,3.16,2.34a2.46,2.46,0,0,0,2.6-2.34l-.12-15.48,7.08-2a2.44,2.44,0,0,0,1.92-2.4,2.66,2.66,0,0,0-2.58-2.7,4.71,4.71,0,0,0-.84.12l-5.58,1.56.12-26.82a3,3,0,0,0-2.94-2.58,2.58,2.58,0,0,0-2.82,2.58l.12,28.38-16.68,4.62a2.69,2.69,0,0,0-2,2.58c0,1.32,1,2.58,3.13,2.58-.31,0,0,0,.6-.12l15-4.26Zm-5.88-22.5a2.86,2.86,0,0,0,2.64-2.94,3.23,3.23,0,0,0-1.2-2.46c-1.08-.9-5.22-3.54-7.56-3.54a2.83,2.83,0,0,0-3,2.46,2.18,2.18,0,0,0,1.38,1.92c1.44,1.45,4,2.16,5.88,3.78A3,3,0,0,0,600.27,261.92Zm-27.6-11.46a2.57,2.57,0,0,0,2.76-2.82c0-1.38-3-7.38-5.71-7.38-1.38,0-2.82,1-2.82,2.22,0,.36,1,.84.54,1.26a24.92,24.92,0,0,1,3.25,6A2.23,2.23,0,0,0,572.67,250.46Zm8.88,34s-.24-10.86-.3-19.62a24.42,24.42,0,0,1,3.48,3.84,2.39,2.39,0,0,0,1.92,1,2.77,2.77,0,0,0,2.76-2.88c0-2.28-5.52-6.12-7-6.12a2,2,0,0,0-1.2.49V258l6.42.85h.06c1.56,0,2.4-2.05,2.4-3.31a2.41,2.41,0,0,0-2.46-2.52h-6.36l.06-3.84a2.4,2.4,0,0,0,2.22,1.38,2.51,2.51,0,0,0,1.86-.9c2-2.28,4.38-5.88,4.38-7a2.68,2.68,0,0,0-2-2.42c-1.57,0-2.29.2-1.92,1.1a26.78,26.78,0,0,0-4.21,6.71c-.12-.71-.24-.53-.3-.35.06-5.82.18-10.8.18-10.8v-.06a2.89,2.89,0,0,0-5.76,0v.06L576,253h-6.73a2.59,2.59,0,0,0-2.63,2.7c0,1.2.77,3.13,2.57,3.13h.06l7-.85v.18a57.54,57.54,0,0,1-10.55,13,2.57,2.57,0,0,0-1,2.13c0,1.23,2,2.49,2.93,2.49s3-.42,8.64-9.3l-.47,18.06v.06a2.88,2.88,0,1,0,5.76,0Z" transform="translate(-564.69 -234.14)"/><path class="cls-2" d="M675.91,284.18a2.44,2.44,0,0,0,2.52-2.58,2.3,2.3,0,0,0-2.52-2.36l-11.7-.1c.9-1.32,4.14-6.3,4.14-7.92s-1.74-2.82-3.36-2.82a2.53,2.53,0,0,0-2.58,1.92c-.72,2.4-1.71,6.84-3.84,8.88h-2.1V266.42h15a2.42,2.42,0,0,0,2.24-2.58,2.46,2.46,0,0,0-2.24-2.58h-15V256.1h7.08a2.52,2.52,0,0,0,2.7-2.58,2.55,2.55,0,0,0-2.7-2.58H644.23a3.36,3.36,0,0,0-1.62.48,116.67,116.67,0,0,0,9.67-10,1.51,1.51,0,0,1,1.43-1,2.56,2.56,0,0,1,1.8,1c6.6,7.38,18,17,21.24,17a3.53,3.53,0,0,0,3.48-3.24,3.41,3.41,0,0,0-1.62-2.64A71.78,71.78,0,0,1,659,237.5a7.78,7.78,0,0,0-5.7-2.82A6.75,6.75,0,0,0,648,237.5c-4.56,5.94-12.12,13.32-19.09,16.92-1.32,1.38-1.36,1.68-1.36,2.7,0,1.56.82,3.06,2.68,3.06,1.08,0,3.07-.3,12.52-8.22-1.05.48-1.23,1-1.23,1.56a2.54,2.54,0,0,0,2.76,2.58h6.48v5.16H636.43a2.57,2.57,0,0,0-2.76,2.58,2.6,2.6,0,0,0,2.76,2.58h14.28V279.2l-19.08,0c-1.81,0-2.77,1-2.77,2.36a2.57,2.57,0,0,0,2.77,2.58Zm-29-8.64c0-1.56-3.36-6.84-5.94-6.84a2.92,2.92,0,0,0-3,2.73s.54.39.48.75a14.87,14.87,0,0,1,3.48,5.25c.42,1,2,.93,2,.93A3.06,3.06,0,0,0,646.87,275.54Z" transform="translate(-564.69 -234.14)"/></svg>